G04 ================== begin FILE IDENTIFICATION RECORD ==================*
G04 Layout Name:  E:/GitHub/RF-PowerAmplifier-DCDC/RFPW_V10A/PCB/RFPW_V10A.brd*
G04 Film Name:    BOTTOM*
G04 File Format:  Gerber RS274X*
G04 File Origin:  Cadence Allegro 16.6-2015-S071*
G04 Origin Date:  Mon Nov 28 19:10:57 2016*
G04 *
G04 Layer:  BOARD GEOMETRY/OUTLINE*
G04 Layer:  ETCH/BOTTOM*
G04 Layer:  PIN/BOTTOM*
G04 Layer:  VIA CLASS/BOTTOM*
G04 *
G04 Offset:    (0.0000 0.0000)*
G04 Mirror:    No*
G04 Mode:      Positive*
G04 Rotation:  0*
G04 FullContactRelief:  No*
G04 UndefLineWidth:     0.1524*
G04 ================== end FILE IDENTIFICATION RECORD ====================*
%FSLAX55Y55*MOMM*%
%IR0*IPPOS*OFA0.00000B0.00000*MIA0B0*SFA1.00000B1.00000*%
%ADD11C,.6096*%
%ADD12C,2.032*%
%ADD10C,3.5*%
%ADD13C,.7112*%
%ADD14C,.1524*%
%ADD16C,3.3024*%
%ADD18C,3.0484*%
%ADD17C,4.5164*%
%ADD15C,2.9468*%
G75*
%LPD*%
G75*
G36*
G01X330000Y10000D02*
G02X10000Y330000I4231J324231D01*
G01Y6270000D01*
G02X330000Y6590000I322500J-2500D01*
G01X6270000D01*
G02X6590000Y6270000I-2692J-322692D01*
G01Y330000D01*
G02X6270000Y10000I-322500J2500D01*
G01X330000D01*
G37*
%LPC*%
G75*
G36*
G01X6412560Y6093500D02*
G03X6422370Y6058580I13726J-14982D01*
G02X6275650Y6001760I-28371J-144581D01*
G03X6259380Y6034180I-16325J12100D01*
G02X6412560Y6093500I625J225821D01*
G37*
G36*
G01X3985740Y748950D02*
Y541050D01*
X3938950Y494260D01*
X1971050D01*
X1894260Y571050D01*
Y1201050D01*
X1871050Y1224260D01*
X1604260D01*
Y1445740D01*
X2068950D01*
X2145740Y1368950D01*
Y818950D01*
X2168950Y795740D01*
X3938950D01*
X3985740Y748950D01*
G37*
G36*
G01X3995740Y2218950D02*
Y2041050D01*
X3938950Y1984260D01*
X1961050D01*
X1894260Y2051050D01*
Y2681050D01*
X1871050Y2704260D01*
X1604260D01*
Y2925740D01*
X2068950D01*
X2145740Y2848950D01*
Y2288950D01*
X2158950Y2275740D01*
X3938950D01*
X3995740Y2218950D01*
G37*
G54D16*
X5560000Y6260000D03*
X340000Y890000D03*
G54D18*
X471600Y3198400D03*
X6128400Y1231600D03*
Y2711600D03*
X6138400Y4171600D03*
Y5661600D03*
G54D17*
X340000Y340000D03*
Y6260000D03*
X6260000Y340000D03*
G54D15*
X5876000Y2964000D03*
Y976000D03*
X216000Y2946000D03*
Y3454000D03*
X724000Y2946000D03*
Y3454000D03*
X5876000Y1484000D03*
Y2456000D03*
X5886000Y3916000D03*
Y4424000D03*
Y5406000D03*
Y5914000D03*
X6384000Y976000D03*
Y1484000D03*
Y2456000D03*
Y2964000D03*
X6394000Y3916000D03*
Y4424000D03*
Y5406000D03*
%LPD*%
G75*
G36*
G01X3940000Y730000D02*
Y560000D01*
X3920000Y540000D01*
X1990000D01*
X1940000Y590000D01*
Y1220000D01*
X1890000Y1270000D01*
X1650000D01*
Y1400000D01*
X2050000D01*
X2100000Y1350000D01*
Y800000D01*
X2150000Y750000D01*
X3920000D01*
X3940000Y730000D01*
G37*
G36*
G01X2140000Y2230000D02*
X3920000D01*
X3950000Y2200000D01*
Y2060000D01*
X3920000Y2030000D01*
X1980000D01*
X1940000Y2070000D01*
Y2700000D01*
X1890000Y2750000D01*
X1650000D01*
Y2880000D01*
X2050000D01*
X2100000Y2830000D01*
Y2270000D01*
X2140000Y2230000D01*
G37*
G54D10*
X340000Y340000D03*
Y6260000D03*
X6260000Y340000D03*
Y6260000D03*
G54D11*
X172280Y1412450D03*
Y1158450D03*
Y1666450D03*
Y2586450D03*
Y2332450D03*
Y2078450D03*
Y4078450D03*
Y4586450D03*
Y4332450D03*
Y5132450D03*
Y4878450D03*
Y5386450D03*
X373550Y5802280D03*
X743550Y162280D03*
X627550Y5802280D03*
X881550D03*
X997550Y162280D03*
X1251550D03*
X1310000Y1160000D03*
X1060000D03*
X1262230Y1537260D03*
X1070000Y2620000D03*
X1310000D03*
X1179460Y3042420D03*
X1433460D03*
X1093550Y4632280D03*
X1347550D03*
X1253550Y4453950D03*
X1507550D03*
X1432170Y6074560D03*
Y6328560D03*
X1733550Y162280D03*
X1987550D03*
X1830000Y460000D03*
X1720000D03*
X2020000Y690000D03*
X1980000Y750000D03*
Y630000D03*
X1550000Y1160000D03*
X1740000Y1040000D03*
X1700000Y1340000D03*
X1790000D03*
X1880000D03*
X1840000Y1940000D03*
X1710000D03*
X1516230Y1537260D03*
X1770230D03*
X2024230D03*
X1730000Y2520000D03*
X1980000Y2110000D03*
Y2230000D03*
X2020000Y2170000D03*
X1550000Y2620000D03*
X1687460Y3042420D03*
X1941460D03*
X1880000Y2820000D03*
X1790000D03*
X1700000D03*
X1693550Y3252280D03*
X1947550D03*
X2000000Y3590000D03*
X2040000Y3650000D03*
X2000000Y3710000D03*
X1873550Y4632280D03*
X1601550D03*
X1761550Y4453950D03*
X2015550D03*
X2000000Y5080000D03*
Y5200000D03*
X2040000Y5140000D03*
X1686170Y6074560D03*
X1940170D03*
X1686170Y6328560D03*
X1940170D03*
X2241550Y162280D03*
X2060000Y750000D03*
Y630000D03*
X2278230Y1537260D03*
X2060000Y2110000D03*
Y2230000D03*
X2195460Y3042420D03*
X2449460D03*
X2201550Y3252280D03*
X2080000Y3590000D03*
Y3710000D03*
X2127550Y4632280D03*
X2381550D03*
X2269550Y4453950D03*
X2523550D03*
X2080000Y5080000D03*
Y5200000D03*
X2194170Y6074560D03*
X2448170D03*
X2194170Y6328560D03*
X2448170D03*
X2853550Y1202280D03*
X3107550D03*
X2853550Y982280D03*
X3107550D03*
X2852350Y1415280D03*
X3106350D03*
X2863550Y2462280D03*
X3117550D03*
X2863550Y2702280D03*
X3117550D03*
X2935130Y2920440D03*
X2913550Y3622280D03*
X2893550Y4182280D03*
X3147550D03*
X2903550Y3912280D03*
X3063550Y4502280D03*
X2777550Y4453950D03*
X2903550Y5102280D03*
Y5852280D03*
Y5592280D03*
Y5332280D03*
X2702170Y6074560D03*
X2956170D03*
X2702170Y6328560D03*
X2956170D03*
X3573550Y172280D03*
X3361550Y1202280D03*
Y982280D03*
X3360350Y1415280D03*
X3614350D03*
X3371550Y2462280D03*
Y2702280D03*
X3189130Y2920440D03*
X3443130D03*
X3167550Y3622280D03*
X3421550D03*
X3401550Y4182280D03*
X3157550Y3912280D03*
X3411550D03*
X3317550Y4502280D03*
X3571550D03*
X3157550Y5102280D03*
X3411550D03*
X3157550Y5852280D03*
X3411550D03*
X3157550Y5592280D03*
X3411550D03*
X3157550Y5332280D03*
X3411550D03*
X3210170Y6074560D03*
X3464170D03*
X3210170Y6328560D03*
X3464170D03*
X3827550Y172280D03*
X4081550D03*
X3880000Y620000D03*
X3800000D03*
X3720000D03*
X3880000Y700000D03*
X3800000D03*
X3720000D03*
X3930570Y1526360D03*
X4184570D03*
X3880000Y2110000D03*
X3800000D03*
X3720000D03*
X3880000Y2190000D03*
X3800000D03*
X3720000D03*
X3871770Y3064210D03*
X4125770D03*
X3913550Y3912280D03*
X4167550D03*
X3980700Y4519290D03*
X4234700D03*
X3903550Y5402280D03*
X4157550D03*
X3718170Y6074560D03*
X3972170D03*
X4226170D03*
X3718170Y6328560D03*
X3972170D03*
X4226170D03*
X4414130Y267340D03*
X4668130D03*
X4438570Y1526360D03*
X4692570D03*
X4392360Y1918450D03*
X4646360D03*
X4379770Y3064210D03*
X4633770D03*
X4283550Y3422280D03*
X4537550D03*
X4623550Y3912280D03*
X4421550D03*
X4488700Y4519290D03*
X4742700D03*
X4273550Y4892280D03*
X4527550D03*
X4781550D03*
X4411550Y5402280D03*
X4613550D03*
X4480170Y6074560D03*
X4734170D03*
X4480170Y6328560D03*
X4734170D03*
X4922130Y267340D03*
X5176130D03*
X5243550Y1222280D03*
X5063550Y972280D03*
X5317550D03*
X4946570Y1526360D03*
X5200570D03*
X4900360Y1918450D03*
X5154360D03*
X5073550Y2452280D03*
X5327550D03*
X5273550Y2742280D03*
X4887770Y3064210D03*
X5141770D03*
X5083550Y3512280D03*
X4791550Y3422280D03*
X4877550Y3912280D03*
X5131550D03*
X4996700Y4519290D03*
X5250700D03*
X5063550Y5002280D03*
X5317550D03*
X4867550Y5402280D03*
X5121550D03*
X4988170Y6074560D03*
X5242170D03*
X4988170Y6328560D03*
X5242170D03*
X5430130Y267340D03*
X5684130D03*
X5497550Y1222280D03*
X5751550D03*
X5571550Y972280D03*
X5454570Y1526360D03*
X5408360Y1918450D03*
X5662360D03*
X5581550Y2452280D03*
X5527550Y2742280D03*
X5781550D03*
X5395770Y3064210D03*
X5649770D03*
X5337550Y3512280D03*
X5591550D03*
X5504700Y4519290D03*
X5571550Y5002280D03*
X5916360Y1918450D03*
X6170360D03*
X5941110Y3268970D03*
X6195110D03*
X5941110Y3522970D03*
X6195110D03*
X5949830Y4758900D03*
X6203830D03*
X5949830Y5012900D03*
X6203830D03*
G54D12*
X471600Y3198400D03*
X216000Y2946000D03*
Y3454000D03*
X724000Y2946000D03*
Y3454000D03*
X5876000Y976000D03*
Y1484000D03*
Y2456000D03*
Y2964000D03*
X5886000Y3916000D03*
Y4424000D03*
Y5406000D03*
Y5914000D03*
X6384000Y976000D03*
X6128400Y1231600D03*
X6384000Y1484000D03*
Y2456000D03*
X6128400Y2711600D03*
X6384000Y2964000D03*
X6138400Y4171600D03*
X6394000Y3916000D03*
Y4424000D03*
Y5406000D03*
X6138400Y5661600D03*
X6394000Y5914000D03*
G54D13*
G01X216000Y2788500D02*
Y2946000D01*
G01D02*
Y3103500D01*
G01X58500Y2946000D02*
X216000D01*
G01D02*
X373500D01*
G01X216000Y3296500D02*
Y3454000D01*
G01D02*
Y3611500D01*
G01X58500Y3454000D02*
X216000D01*
G01D02*
X373500D01*
G01X724000Y2788500D02*
Y2946000D01*
G01D02*
Y3103500D01*
G01X566500Y2946000D02*
X724000D01*
G01D02*
X881500D01*
G01X724000Y3296500D02*
Y3454000D01*
G01D02*
Y3611500D01*
G01X566500Y3454000D02*
X724000D01*
G01D02*
X881500D01*
G01X5876000Y818500D02*
Y976000D01*
G01Y1326500D02*
Y1484000D01*
G01D02*
Y1641500D01*
G01X5718500Y1484000D02*
X5876000D01*
G01D02*
X6033500D01*
G01X5876000Y976000D02*
Y1133500D01*
G01X5718500Y976000D02*
X5876000D01*
G01D02*
X6033500D01*
G01X5876000Y2298500D02*
Y2456000D01*
G01D02*
Y2613500D01*
G01X5718500Y2456000D02*
X5876000D01*
G01D02*
X6033500D01*
G01X5876000Y2806500D02*
Y2964000D01*
G01D02*
Y3121500D01*
G01X5718500Y2964000D02*
X5876000D01*
G01D02*
X6033500D01*
G01X5728500Y3916000D02*
X5886000D01*
G01X5728500Y4424000D02*
X5886000D01*
G01X5728500Y5406000D02*
X5886000D01*
G01X5728500Y5914000D02*
X5886000D01*
G01X6384000Y818500D02*
Y976000D01*
G01Y1326500D02*
Y1484000D01*
G01D02*
Y1641500D01*
G01X6226500Y1484000D02*
X6384000D01*
G01D02*
X6541500D01*
G01X6384000Y976000D02*
Y1133500D01*
G01X6226500Y976000D02*
X6384000D01*
G01D02*
X6541500D01*
G01X6384000Y2298500D02*
Y2456000D01*
G01D02*
Y2613500D01*
G01X6226500Y2456000D02*
X6384000D01*
G01D02*
X6541500D01*
G01X6384000Y2806500D02*
Y2964000D01*
G01D02*
Y3121500D01*
G01X6226500Y2964000D02*
X6384000D01*
G01D02*
X6541500D01*
G01X6394000Y3758500D02*
Y3916000D01*
G01D02*
Y4073500D01*
G01X6236500Y3916000D02*
X6394000D01*
G01D02*
X6551500D01*
G01X5886000Y3758500D02*
Y3916000D01*
G01D02*
Y4073500D01*
G01Y3916000D02*
X6043500D01*
G01X6394000Y4266500D02*
Y4424000D01*
G01D02*
Y4581500D01*
G01X6236500Y4424000D02*
X6394000D01*
G01D02*
X6551500D01*
G01X5886000Y4266500D02*
Y4424000D01*
G01D02*
Y4581500D01*
G01Y4424000D02*
X6043500D01*
G01X6394000Y5248500D02*
Y5406000D01*
G01X5886000Y5248500D02*
Y5406000D01*
G01X6394000Y5756500D02*
Y5914000D01*
G01Y5406000D02*
Y5563500D01*
G01X6236500Y5406000D02*
X6394000D01*
G01D02*
X6551500D01*
G01X5886000Y5756500D02*
Y5914000D01*
G01Y5406000D02*
Y5563500D01*
G01Y5406000D02*
X6043500D01*
G01X6236500Y5914000D02*
X6394000D01*
G01D02*
X6551500D01*
G01X5886000D02*
Y6071500D01*
G01Y5914000D02*
X6043500D01*
G54D14*
G01X330000Y0D02*
X6270000D01*
G03X6600000Y330000I0J330000D01*
G01Y6270000D01*
G03X6270000Y6600000I-330000J0D01*
G01X330000D01*
G03X0Y6270000I0J-330000D01*
G01Y330000D01*
G03X330000Y0I330000J0D01*
M02*
