G04 ================== begin FILE IDENTIFICATION RECORD ==================*
G04 Layout Name:  E:/GitHub/RF-PowerAmplifier-DCDC/RFPW_V10A/PCB/RFPW_V10A.brd*
G04 Film Name:    Drill_Legend*
G04 File Format:  Gerber RS274X*
G04 File Origin:  Cadence Allegro 16.6-2015-S071*
G04 Origin Date:  Mon Nov 28 19:10:57 2016*
G04 *
G04 Layer:  BOARD GEOMETRY/OUTLINE*
G04 Layer:  MANUFACTURING/NCDRILL_FIGURE*
G04 Layer:  BOARD GEOMETRY/DIMENSION*
G04 Layer:  MANUFACTURING/NCDRILL_LEGEND*
G04 Layer:  MANUFACTURING/NCLEGEND-1-2*
G04 *
G04 Offset:    (0.0000 0.0000)*
G04 Mirror:    No*
G04 Mode:      Positive*
G04 Rotation:  0*
G04 FullContactRelief:  No*
G04 UndefLineWidth:     0.1524*
G04 ================== end FILE IDENTIFICATION RECORD ====================*
%FSLAX55Y55*MOMM*%
%IR0*IPPOS*OFA0.00000B0.00000*MIA0B0*SFA1.00000B1.00000*%
%AMMACRO11*
1,1,.1524,.1524,0.0*
20,1,.1524,.1524,0.0,-.1524,0.0,0.0*
1,1,.1524,-.1524,0.0*
1,1,.1524,0.0,.1524*
20,1,.1524,0.0,.1524,0.0,-.1524,0.0*
1,1,.1524,0.0,-.1524*
%
%ADD11MACRO11*%
%AMMACRO12*
1,1,.1524,.6985,.6985*
20,1,.1524,.6985,.6985,.6985,-.6985,0.0*
1,1,.1524,.6985,-.6985*
20,1,.1524,.6985,-.6985,-.6985,-.6985,0.0*
1,1,.1524,-.6985,-.6985*
20,1,.1524,-.6985,-.6985,-.6985,.6985,0.0*
1,1,.1524,-.6985,.6985*
20,1,.1524,-.6985,.6985,.6985,.6985,0.0*
1,1,.1524,.6985,.6985*
%
%ADD12MACRO12*%
%AMMACRO10*
1,1,.1524,1.,0.0*
20,1,.1524,1.,0.0,.5,.866025,0.0*
1,1,.1524,.5,.866025*
20,1,.1524,.5,.866025,-.5,.866025,0.0*
1,1,.1524,-.5,.866025*
20,1,.1524,-.5,.866025,-1.,0.0,0.0*
1,1,.1524,-1.,0.0*
20,1,.1524,-1.,0.0,-.5,-.866025,0.0*
1,1,.1524,-.5,-.866025*
20,1,.1524,-.5,-.866025,.5,-.866025,0.0*
1,1,.1524,.5,-.866025*
20,1,.1524,.5,-.866025,1.,0.0,0.0*
1,1,.1524,1.,0.0*
%
%ADD10MACRO10*%
%ADD13C,.1524*%
G75*
%LPD*%
G75*
G54D10*
X340000Y340000D03*
Y6260000D03*
X6260000Y340000D03*
Y6260000D03*
X9131730Y352500D03*
G54D11*
X172280Y1412450D03*
Y1158450D03*
Y1666450D03*
Y2586450D03*
Y2332450D03*
Y2078450D03*
Y4078450D03*
Y4586450D03*
Y4332450D03*
Y5132450D03*
Y4878450D03*
Y5386450D03*
X373550Y5802280D03*
X743550Y162280D03*
X627550Y5802280D03*
X881550D03*
X997550Y162280D03*
X1251550D03*
X1310000Y1160000D03*
X1060000D03*
X1262230Y1537260D03*
X1070000Y2620000D03*
X1310000D03*
X1179460Y3042420D03*
X1433460D03*
X1093550Y4632280D03*
X1347550D03*
X1253550Y4453950D03*
X1507550D03*
X1432170Y6074560D03*
Y6328560D03*
X1733550Y162280D03*
X1987550D03*
X1830000Y460000D03*
X1720000D03*
X2020000Y690000D03*
X1980000Y750000D03*
Y630000D03*
X1550000Y1160000D03*
X1740000Y1040000D03*
X1700000Y1340000D03*
X1790000D03*
X1880000D03*
X1840000Y1940000D03*
X1710000D03*
X1516230Y1537260D03*
X1770230D03*
X2024230D03*
X1730000Y2520000D03*
X1980000Y2110000D03*
Y2230000D03*
X2020000Y2170000D03*
X1550000Y2620000D03*
X1687460Y3042420D03*
X1941460D03*
X1880000Y2820000D03*
X1790000D03*
X1700000D03*
X1693550Y3252280D03*
X1947550D03*
X2000000Y3590000D03*
X2040000Y3650000D03*
X2000000Y3710000D03*
X1873550Y4632280D03*
X1601550D03*
X1761550Y4453950D03*
X2015550D03*
X2000000Y5080000D03*
Y5200000D03*
X2040000Y5140000D03*
X1686170Y6074560D03*
X1940170D03*
X1686170Y6328560D03*
X1940170D03*
X2241550Y162280D03*
X2060000Y750000D03*
Y630000D03*
X2278230Y1537260D03*
X2060000Y2110000D03*
Y2230000D03*
X2195460Y3042420D03*
X2449460D03*
X2201550Y3252280D03*
X2080000Y3590000D03*
Y3710000D03*
X2127550Y4632280D03*
X2381550D03*
X2269550Y4453950D03*
X2523550D03*
X2080000Y5080000D03*
Y5200000D03*
X2194170Y6074560D03*
X2448170D03*
X2194170Y6328560D03*
X2448170D03*
X2853550Y1202280D03*
X3107550D03*
X2853550Y982280D03*
X3107550D03*
X2852350Y1415280D03*
X3106350D03*
X2863550Y2462280D03*
X3117550D03*
X2863550Y2702280D03*
X3117550D03*
X2935130Y2920440D03*
X2913550Y3622280D03*
X2893550Y4182280D03*
X3147550D03*
X2903550Y3912280D03*
X3063550Y4502280D03*
X2777550Y4453950D03*
X2903550Y5102280D03*
Y5852280D03*
Y5592280D03*
Y5332280D03*
X2702170Y6074560D03*
X2956170D03*
X2702170Y6328560D03*
X2956170D03*
X3573550Y172280D03*
X3361550Y1202280D03*
Y982280D03*
X3360350Y1415280D03*
X3614350D03*
X3371550Y2462280D03*
Y2702280D03*
X3189130Y2920440D03*
X3443130D03*
X3167550Y3622280D03*
X3421550D03*
X3401550Y4182280D03*
X3157550Y3912280D03*
X3411550D03*
X3317550Y4502280D03*
X3571550D03*
X3157550Y5102280D03*
X3411550D03*
X3157550Y5852280D03*
X3411550D03*
X3157550Y5592280D03*
X3411550D03*
X3157550Y5332280D03*
X3411550D03*
X3210170Y6074560D03*
X3464170D03*
X3210170Y6328560D03*
X3464170D03*
X3827550Y172280D03*
X4081550D03*
X3880000Y620000D03*
X3800000D03*
X3720000D03*
X3880000Y700000D03*
X3800000D03*
X3720000D03*
X3930570Y1526360D03*
X4184570D03*
X3880000Y2110000D03*
X3800000D03*
X3720000D03*
X3880000Y2190000D03*
X3800000D03*
X3720000D03*
X3871770Y3064210D03*
X4125770D03*
X3913550Y3912280D03*
X4167550D03*
X3980700Y4519290D03*
X4234700D03*
X3903550Y5402280D03*
X4157550D03*
X3718170Y6074560D03*
X3972170D03*
X4226170D03*
X3718170Y6328560D03*
X3972170D03*
X4226170D03*
X4414130Y267340D03*
X4668130D03*
X4438570Y1526360D03*
X4692570D03*
X4392360Y1918450D03*
X4646360D03*
X4379770Y3064210D03*
X4633770D03*
X4283550Y3422280D03*
X4537550D03*
X4623550Y3912280D03*
X4421550D03*
X4488700Y4519290D03*
X4742700D03*
X4273550Y4892280D03*
X4527550D03*
X4781550D03*
X4411550Y5402280D03*
X4613550D03*
X4480170Y6074560D03*
X4734170D03*
X4480170Y6328560D03*
X4734170D03*
X4922130Y267340D03*
X5176130D03*
X5243550Y1222280D03*
X5063550Y972280D03*
X5317550D03*
X4946570Y1526360D03*
X5200570D03*
X4900360Y1918450D03*
X5154360D03*
X5073550Y2452280D03*
X5327550D03*
X5273550Y2742280D03*
X4887770Y3064210D03*
X5141770D03*
X5083550Y3512280D03*
X4791550Y3422280D03*
X4877550Y3912280D03*
X5131550D03*
X4996700Y4519290D03*
X5250700D03*
X5063550Y5002280D03*
X5317550D03*
X4867550Y5402280D03*
X5121550D03*
X4988170Y6074560D03*
X5242170D03*
X4988170Y6328560D03*
X5242170D03*
X5430130Y267340D03*
X5684130D03*
X5497550Y1222280D03*
X5751550D03*
X5571550Y972280D03*
X5454570Y1526360D03*
X5408360Y1918450D03*
X5662360D03*
X5581550Y2452280D03*
X5527550Y2742280D03*
X5781550D03*
X5395770Y3064210D03*
X5649770D03*
X5337550Y3512280D03*
X5591550D03*
X5504700Y4519290D03*
X5571550Y5002280D03*
X5916360Y1918450D03*
X6170360D03*
X5941110Y3268970D03*
X6195110D03*
X5941110Y3522970D03*
X6195110D03*
X5949830Y4758900D03*
X6203830D03*
X5949830Y5012900D03*
X6203830D03*
X9131730Y1622500D03*
G54D12*
X471600Y3198400D03*
X216000Y2946000D03*
Y3454000D03*
X724000Y2946000D03*
Y3454000D03*
X5876000Y976000D03*
Y1484000D03*
Y2456000D03*
Y2964000D03*
X5886000Y3916000D03*
Y4424000D03*
Y5406000D03*
Y5914000D03*
X6384000Y976000D03*
X6128400Y1231600D03*
X6384000Y1484000D03*
Y2456000D03*
X6128400Y2711600D03*
X6384000Y2964000D03*
X6138400Y4171600D03*
X6394000Y3916000D03*
Y4424000D03*
Y5406000D03*
X6138400Y5661600D03*
X6394000Y5914000D03*
X9131730Y987500D03*
G54D13*
G01X-1800290Y3274120D02*
X-1783700Y3296350D01*
X-1769470Y3309050D01*
X-1750510Y3315400D01*
X-1733910Y3309050D01*
X-1722060Y3296350D01*
X-1712580Y3277300D01*
X-1710210Y3255070D01*
X-1712580Y3236020D01*
X-1722060Y3216970D01*
X-1736290Y3201100D01*
X-1752880Y3194750D01*
X-1771840Y3201100D01*
X-1788440Y3220140D01*
X-1797920Y3248730D01*
X-1800290Y3280470D01*
X-1795550Y3321750D01*
X-1788440Y3343980D01*
X-1776590Y3366200D01*
X-1759990Y3382080D01*
X-1743400Y3385250D01*
X-1726800Y3378900D01*
X-1714950Y3363020D01*
G01X-1609790Y3274120D02*
X-1593200Y3296350D01*
X-1578970Y3309050D01*
X-1560010Y3315400D01*
X-1543410Y3309050D01*
X-1531560Y3296350D01*
X-1522080Y3277300D01*
X-1519710Y3255070D01*
X-1522080Y3236020D01*
X-1531560Y3216970D01*
X-1545790Y3201100D01*
X-1562380Y3194750D01*
X-1581340Y3201100D01*
X-1597940Y3220140D01*
X-1607420Y3248730D01*
X-1609790Y3280470D01*
X-1605050Y3321750D01*
X-1597940Y3343980D01*
X-1586090Y3366200D01*
X-1569490Y3382080D01*
X-1552900Y3385250D01*
X-1536300Y3378900D01*
X-1524450Y3363020D01*
G01X-1450790Y3034120D02*
X-1434200Y3056350D01*
X-1419970Y3069050D01*
X-1401010Y3075400D01*
X-1384410Y3069050D01*
X-1372560Y3056350D01*
X-1363080Y3037300D01*
X-1360710Y3015070D01*
X-1363080Y2996020D01*
X-1372560Y2976970D01*
X-1386790Y2961100D01*
X-1403380Y2954750D01*
X-1422340Y2961100D01*
X-1438940Y2980140D01*
X-1448420Y3008730D01*
X-1450790Y3040470D01*
X-1446050Y3081750D01*
X-1438940Y3103980D01*
X-1427090Y3126200D01*
X-1410490Y3142080D01*
X-1393900Y3145250D01*
X-1377300Y3138900D01*
X-1365450Y3123020D01*
G01X-1260290Y3113500D02*
X-1246070Y3132550D01*
X-1229470Y3142080D01*
X-1210510Y3145250D01*
X-1186800Y3138900D01*
X-1170210Y3123020D01*
X-1165470Y3103980D01*
X-1167840Y3084920D01*
X-1177320Y3069050D01*
X-1224730Y3037300D01*
X-1246070Y3015070D01*
X-1260290Y2983320D01*
X-1265030Y2954750D01*
X-1165470D01*
G01X-1024750Y2948400D02*
X-1029490Y2951580D01*
Y2957920D01*
X-1024750Y2961100D01*
X-1020010Y2957920D01*
Y2951580D01*
X-1024750Y2948400D01*
G01X-879290Y3034120D02*
X-862700Y3056350D01*
X-848470Y3069050D01*
X-829510Y3075400D01*
X-812910Y3069050D01*
X-801060Y3056350D01*
X-791580Y3037300D01*
X-789210Y3015070D01*
X-791580Y2996020D01*
X-801060Y2976970D01*
X-815290Y2961100D01*
X-831880Y2954750D01*
X-850840Y2961100D01*
X-867440Y2980140D01*
X-876920Y3008730D01*
X-879290Y3040470D01*
X-874550Y3081750D01*
X-867440Y3103980D01*
X-855590Y3126200D01*
X-838990Y3142080D01*
X-822400Y3145250D01*
X-805800Y3138900D01*
X-793950Y3123020D01*
G01X-902650Y92850D02*
X-888430Y70620D01*
X-869470Y57920D01*
X-848130Y54750D01*
X-829160Y57920D01*
X-810200Y73800D01*
X-798350Y92850D01*
X-795980Y111900D01*
X-800720Y134120D01*
X-817310Y150000D01*
X-833910Y156350D01*
X-855240D01*
G01X-833910D02*
X-819680Y165870D01*
X-807830Y181750D01*
X-803090Y200800D01*
X-807830Y219850D01*
X-819680Y235720D01*
X-841020Y245250D01*
X-862350Y242080D01*
X-883690Y229370D01*
G01X-660000Y48400D02*
X-664740Y51580D01*
Y57920D01*
X-660000Y61100D01*
X-655260Y57920D01*
Y51580D01*
X-660000Y48400D01*
G01X-441050Y54750D02*
Y245250D01*
X-528770Y108730D01*
X-410230D01*
G01X-112650Y-227150D02*
X-98430Y-249380D01*
X-79470Y-262080D01*
X-58130Y-265250D01*
X-39160Y-262080D01*
X-20200Y-246200D01*
X-8350Y-227150D01*
X-5980Y-208100D01*
X-10720Y-185880D01*
X-27310Y-170000D01*
X-43910Y-163650D01*
X-65240D01*
G01X-43910D02*
X-29680Y-154130D01*
X-17830Y-138250D01*
X-13090Y-119200D01*
X-17830Y-100150D01*
X-29680Y-84280D01*
X-51020Y-74750D01*
X-72350Y-77920D01*
X-93690Y-90630D01*
G01X130000Y-271600D02*
X125260Y-268420D01*
Y-262080D01*
X130000Y-258900D01*
X134740Y-262080D01*
Y-268420D01*
X130000Y-271600D01*
G01X348950Y-265250D02*
Y-74750D01*
X261230Y-211270D01*
X379770D01*
G01X330000Y0D02*
X6270000D01*
G03X6600000Y330000I0J330000D01*
G01Y6270000D01*
G03X6270000Y6600000I-330000J0D01*
G01X330000D01*
G03X0Y6270000I0J-330000D01*
G01Y330000D01*
G03X330000Y0I330000J0D01*
G01X2649210Y-475880D02*
X2665800Y-453650D01*
X2680030Y-440950D01*
X2698990Y-434600D01*
X2715590Y-440950D01*
X2727440Y-453650D01*
X2736920Y-472700D01*
X2739290Y-494930D01*
X2736920Y-513980D01*
X2727440Y-533030D01*
X2713210Y-548900D01*
X2696620Y-555250D01*
X2677660Y-548900D01*
X2661060Y-529860D01*
X2651580Y-501270D01*
X2649210Y-469530D01*
X2653950Y-428250D01*
X2661060Y-406020D01*
X2672910Y-383800D01*
X2689510Y-367920D01*
X2706100Y-364750D01*
X2722700Y-371100D01*
X2734550Y-386980D01*
G01X2839710Y-396500D02*
X2853930Y-377450D01*
X2870530Y-367920D01*
X2889490Y-364750D01*
X2913200Y-371100D01*
X2929790Y-386980D01*
X2934530Y-406020D01*
X2932160Y-425080D01*
X2922680Y-440950D01*
X2875270Y-472700D01*
X2853930Y-494930D01*
X2839710Y-526680D01*
X2834970Y-555250D01*
X2934530D01*
G01X3075250Y-561600D02*
X3070510Y-558420D01*
Y-552080D01*
X3075250Y-548900D01*
X3079990Y-552080D01*
Y-558420D01*
X3075250Y-561600D01*
G01X3220710Y-475880D02*
X3237300Y-453650D01*
X3251530Y-440950D01*
X3270490Y-434600D01*
X3287090Y-440950D01*
X3298940Y-453650D01*
X3308420Y-472700D01*
X3310790Y-494930D01*
X3308420Y-513980D01*
X3298940Y-533030D01*
X3284710Y-548900D01*
X3268120Y-555250D01*
X3249160Y-548900D01*
X3232560Y-529860D01*
X3223080Y-501270D01*
X3220710Y-469530D01*
X3225450Y-428250D01*
X3232560Y-406020D01*
X3244410Y-383800D01*
X3261010Y-367920D01*
X3277600Y-364750D01*
X3294200Y-371100D01*
X3306050Y-386980D01*
G01X3149710Y-835880D02*
X3166300Y-813650D01*
X3180530Y-800950D01*
X3199490Y-794600D01*
X3216090Y-800950D01*
X3227940Y-813650D01*
X3237420Y-832700D01*
X3239790Y-854930D01*
X3237420Y-873980D01*
X3227940Y-893030D01*
X3213710Y-908900D01*
X3197120Y-915250D01*
X3178160Y-908900D01*
X3161560Y-889860D01*
X3152080Y-861270D01*
X3149710Y-829530D01*
X3154450Y-788250D01*
X3161560Y-766020D01*
X3173410Y-743800D01*
X3190010Y-727920D01*
X3206600Y-724750D01*
X3223200Y-731100D01*
X3235050Y-746980D01*
G01X3340210Y-835880D02*
X3356800Y-813650D01*
X3371030Y-800950D01*
X3389990Y-794600D01*
X3406590Y-800950D01*
X3418440Y-813650D01*
X3427920Y-832700D01*
X3430290Y-854930D01*
X3427920Y-873980D01*
X3418440Y-893030D01*
X3404210Y-908900D01*
X3387620Y-915250D01*
X3368660Y-908900D01*
X3352060Y-889860D01*
X3342580Y-861270D01*
X3340210Y-829530D01*
X3344950Y-788250D01*
X3352060Y-766020D01*
X3363910Y-743800D01*
X3380510Y-727920D01*
X3397100Y-724750D01*
X3413700Y-731100D01*
X3425550Y-746980D01*
G01X250000Y0D02*
X-1910000D01*
G01X350000Y6600000D02*
X-1910000D01*
G01X-1660000Y3044260D02*
Y0D01*
G01X-1722500Y400000D02*
X-1660000Y0D01*
X-1597500Y400000D01*
X-1722500D01*
G01X350000Y0D02*
X-1370000D01*
G01X-1660000Y3535740D02*
Y6600000D01*
G01X-1597500Y6200000D02*
X-1660000Y6600000D01*
X-1722500Y6200000D01*
X-1597500D01*
G01X90000Y6260000D02*
X-1370000D01*
G01X-597500Y-400000D02*
X-660000Y0D01*
X-722500Y-400000D01*
X-597500D01*
G01X-1120000Y2804260D02*
Y0D01*
G01X-1182500Y400000D02*
X-1120000Y0D01*
X-1057500Y400000D01*
X-1182500D01*
G01X90000Y340000D02*
X-910000D01*
G01X250000Y0D02*
X-910000D01*
G01X-722500Y740000D02*
X-660000Y340000D01*
X-597500Y740000D01*
X-722500D01*
G01X-1120000Y3295740D02*
Y6260000D01*
G01X-1057500Y5860000D02*
X-1120000Y6260000D01*
X-1182500Y5860000D01*
X-1057500D01*
G01X-400000Y-232500D02*
X0Y-170000D01*
X-400000Y-107500D01*
Y-232500D01*
G01X-282110Y-170000D02*
X0D01*
G01X-660000Y-95740D02*
Y0D01*
G01Y395740D02*
Y340000D01*
G01X0Y120000D02*
Y-1070000D01*
G01X2973140Y-820000D02*
X0D01*
G01X400000Y-757500D02*
X0Y-820000D01*
X400000Y-882500D01*
Y-757500D01*
G01X0Y120000D02*
Y-420000D01*
G01X340000Y90000D02*
Y-420000D01*
G01X0Y120000D02*
Y-710000D01*
G01X2472640Y-460000D02*
X0D01*
G01X400000Y-397500D02*
X0Y-460000D01*
X400000Y-522500D01*
Y-397500D01*
G01X542110Y-170000D02*
X340000D01*
G01X740000Y-107500D02*
X340000Y-170000D01*
X740000Y-232500D01*
Y-107500D01*
G01X3606860Y-820000D02*
X6600000D01*
G01X3487360Y-460000D02*
X6260000D01*
G01X6200000Y-882500D02*
X6600000Y-820000D01*
X6200000Y-757500D01*
Y-882500D01*
G01X6260000Y90000D02*
Y-710000D01*
G01X5860000Y-522500D02*
X6260000Y-460000D01*
X5860000Y-397500D01*
Y-522500D01*
G01X6600000Y130000D02*
Y-1070000D01*
G01X7990000Y35000D02*
Y3860000D01*
X20273440D01*
Y35000D01*
X7990000D01*
G01Y670000D02*
X20273440D01*
G01X7990000Y1305000D02*
X20273440D01*
G01X7990000Y1940000D02*
X20273440D01*
G01X7990000Y2575000D02*
X20273440D01*
G01X7990000Y3210000D02*
X20273440D01*
G01X8269520Y2098750D02*
Y2416250D01*
X8419140D01*
G01X8364010Y2262800D02*
X8269520D01*
G01X8612050Y2416250D02*
X8706530D01*
G01X8659290D02*
Y2098750D01*
G01X8612050D02*
X8706530D01*
G01X8997870Y2257500D02*
X9076620D01*
Y2162250D01*
X9052990Y2130490D01*
X9025430Y2109330D01*
X8986060Y2098750D01*
X8946690Y2109330D01*
X8919130Y2130490D01*
X8895510Y2162250D01*
X8879760Y2199290D01*
X8871880Y2241620D01*
Y2278670D01*
X8879760Y2310410D01*
X8895510Y2347460D01*
X8919130Y2379210D01*
X8942750Y2400370D01*
X8974250Y2416250D01*
X9001810D01*
X9033300Y2405670D01*
X9056930Y2384500D01*
G01X9202600Y2416250D02*
Y2188710D01*
X9218340Y2141070D01*
X9249840Y2109330D01*
X9289210Y2098750D01*
X9328580Y2109330D01*
X9360080Y2141070D01*
X9375820Y2188710D01*
Y2416250D01*
G01X9525430Y2098750D02*
Y2416250D01*
X9623850D01*
X9655350Y2400370D01*
X9675040Y2379210D01*
X9682910Y2336870D01*
X9675040Y2294540D01*
X9651410Y2268090D01*
X9623850Y2252200D01*
X9525430D01*
G01X9623850D02*
X9682910Y2098750D01*
G01X9997870D02*
X9840390D01*
Y2416250D01*
X9997870D01*
G01X9934880Y2262800D02*
X9840390D01*
G01X9781330Y2733750D02*
X9879760Y3051250D01*
X9978190Y2733750D01*
G01X9942750Y2844870D02*
X9816760D01*
G01X10115980Y3051250D02*
Y2733750D01*
X10273460D01*
G01X10430940Y3051250D02*
Y2733750D01*
X10588420D01*
G01X11052990Y3051250D02*
Y2823710D01*
X11068730Y2776070D01*
X11100230Y2744330D01*
X11139600Y2733750D01*
X11178970Y2744330D01*
X11210470Y2776070D01*
X11226210Y2823710D01*
Y3051250D01*
G01X11364010Y2733750D02*
Y3051250D01*
X11545110Y2733750D01*
Y3051250D01*
G01X11722280D02*
X11816760D01*
G01X11769520D02*
Y2733750D01*
G01X11722280D02*
X11816760D01*
G01X12084480Y3051250D02*
Y2733750D01*
G01X11993930Y3051250D02*
X12175030D01*
G01X12316760Y2776070D02*
X12348260Y2749620D01*
X12383690Y2733750D01*
X12415190D01*
X12446680Y2749620D01*
X12470310Y2776070D01*
X12482120Y2813130D01*
X12474250Y2850160D01*
X12454560Y2881910D01*
X12419120Y2903090D01*
X12371880Y2913670D01*
X12344320Y2934830D01*
X12332510Y2971870D01*
X12340390Y3008920D01*
X12360070Y3035370D01*
X12387630Y3051250D01*
X12415190D01*
X12442750Y3040670D01*
X12466370Y3014210D01*
G01X12930930Y2733750D02*
X13029360Y3051250D01*
X13127790Y2733750D01*
G01X13092350Y2844870D02*
X12966360D01*
G01X13265580Y2733750D02*
Y3051250D01*
X13364000D01*
X13395500Y3035370D01*
X13415190Y3014210D01*
X13423060Y2971870D01*
X13415190Y2929540D01*
X13391560Y2903090D01*
X13364000Y2887200D01*
X13265580D01*
G01X13364000D02*
X13423060Y2733750D01*
G01X13738020D02*
X13580540D01*
Y3051250D01*
X13738020D01*
G01X13675030Y2897800D02*
X13580540D01*
G01X14241960Y3051250D02*
X14336440D01*
G01X14289200D02*
Y2733750D01*
G01X14241960D02*
X14336440D01*
G01X14513610D02*
Y3051250D01*
X14694710Y2733750D01*
Y3051250D01*
G01X15131710Y2733750D02*
Y3051250D01*
X15234080Y2786670D01*
X15336450Y3051250D01*
Y2733750D01*
G01X15501800Y3051250D02*
X15596280D01*
G01X15549040D02*
Y2733750D01*
G01X15501800D02*
X15596280D01*
G01X15785260Y3051250D02*
Y2733750D01*
X15942740D01*
G01X16100220Y3051250D02*
Y2733750D01*
X16257700D01*
G01X16446680Y3051250D02*
X16541160D01*
G01X16493920D02*
Y2733750D01*
G01X16446680D02*
X16541160D01*
G01X16706510D02*
Y3051250D01*
X16808880Y2786670D01*
X16911250Y3051250D01*
Y2733750D01*
G01X17202580D02*
X17045100D01*
Y3051250D01*
X17202580D01*
G01X17139590Y2897800D02*
X17045100D01*
G01X17438800Y3051250D02*
Y2733750D01*
G01X17348250Y3051250D02*
X17529350D01*
G01X17832500Y2733750D02*
X17675020D01*
Y3051250D01*
X17832500D01*
G01X17769510Y2897800D02*
X17675020D01*
G01X17989980Y2733750D02*
Y3051250D01*
X18088400D01*
X18119900Y3035370D01*
X18139590Y3014210D01*
X18147460Y2971870D01*
X18139590Y2929540D01*
X18115960Y2903090D01*
X18088400Y2887200D01*
X17989980D01*
G01X18088400D02*
X18147460Y2733750D01*
G01X18301000Y2776070D02*
X18332500Y2749620D01*
X18367930Y2733750D01*
X18399430D01*
X18430920Y2749620D01*
X18454550Y2776070D01*
X18466360Y2813130D01*
X18458490Y2850160D01*
X18438800Y2881910D01*
X18403360Y2903090D01*
X18356120Y2913670D01*
X18328560Y2934830D01*
X18316750Y2971870D01*
X18324630Y3008920D01*
X18344310Y3035370D01*
X18371870Y3051250D01*
X18399430D01*
X18426990Y3040670D01*
X18450610Y3014210D01*
G01X10108110Y3383750D02*
Y3701250D01*
X10186840D01*
X10218340Y3685370D01*
X10241960Y3664210D01*
X10261650Y3632460D01*
X10277400Y3595410D01*
X10281330Y3542500D01*
X10277400Y3489580D01*
X10261650Y3452540D01*
X10241960Y3420780D01*
X10218340Y3399620D01*
X10186840Y3383750D01*
X10108110D01*
G01X10430940D02*
Y3701250D01*
X10529360D01*
X10560860Y3685370D01*
X10580550Y3664210D01*
X10588420Y3621870D01*
X10580550Y3579540D01*
X10556920Y3553090D01*
X10529360Y3537200D01*
X10430940D01*
G01X10529360D02*
X10588420Y3383750D01*
G01X10777400Y3701250D02*
X10871880D01*
G01X10824640D02*
Y3383750D01*
G01X10777400D02*
X10871880D01*
G01X11060860Y3701250D02*
Y3383750D01*
X11218340D01*
G01X11375820Y3701250D02*
Y3383750D01*
X11533300D01*
G01X12171090Y3674790D02*
X12147470Y3690670D01*
X12119920Y3701250D01*
X12088420D01*
X12052980Y3685370D01*
X12025430Y3658920D01*
X12005740Y3627160D01*
X11989990Y3574250D01*
X11986050Y3526620D01*
X11993930Y3479000D01*
X12005740Y3447250D01*
X12029360Y3415490D01*
X12056920Y3394330D01*
X12084480Y3383750D01*
X12112040D01*
X12139600Y3394330D01*
X12163220Y3410200D01*
X12182910Y3431360D01*
G01X12316760Y3383750D02*
Y3701250D01*
G01X12482120D02*
Y3383750D01*
G01Y3542500D02*
X12316760D01*
G01X12615970Y3383750D02*
X12714400Y3701250D01*
X12812830Y3383750D01*
G01X12777390Y3494870D02*
X12651400D01*
G01X12950620Y3383750D02*
Y3701250D01*
X13049040D01*
X13080540Y3685370D01*
X13100230Y3664210D01*
X13108100Y3621870D01*
X13100230Y3579540D01*
X13076600Y3553090D01*
X13049040Y3537200D01*
X12950620D01*
G01X13049040D02*
X13108100Y3383750D01*
G01X13344320Y3701250D02*
Y3383750D01*
G01X13253770Y3701250D02*
X13434870D01*
G01X13659280Y3373170D02*
X13651400Y3378460D01*
Y3389040D01*
X13659280Y3394330D01*
X13667160Y3389040D01*
Y3378460D01*
X13659280Y3373170D01*
G01Y3516030D02*
X13651400Y3521330D01*
Y3531910D01*
X13659280Y3537200D01*
X13667160Y3531910D01*
Y3521330D01*
X13659280Y3516030D01*
G01X14289200Y3701250D02*
Y3383750D01*
G01X14198650Y3701250D02*
X14379750D01*
G01X14604160Y3383750D02*
X14572660Y3389040D01*
X14545110Y3410200D01*
X14521480Y3441960D01*
X14505730Y3479000D01*
X14497860Y3521330D01*
Y3563670D01*
X14505730Y3606000D01*
X14521480Y3643040D01*
X14545110Y3674790D01*
X14572660Y3695960D01*
X14604160Y3701250D01*
X14635650Y3695960D01*
X14663210Y3674790D01*
X14686840Y3643040D01*
X14702590Y3606000D01*
X14710460Y3563670D01*
Y3521330D01*
X14702590Y3479000D01*
X14686840Y3441960D01*
X14663210Y3410200D01*
X14635650Y3389040D01*
X14604160Y3383750D01*
G01X14840380D02*
Y3701250D01*
X14934870D01*
X14966360Y3685370D01*
X14989990Y3648330D01*
X14997860Y3606000D01*
X14989990Y3563670D01*
X14970300Y3531910D01*
X14934870Y3516030D01*
X14840380D01*
G01X15549040Y3701250D02*
Y3383750D01*
G01X15493920Y3595410D02*
X15604160D01*
G01X15864000Y3383750D02*
X15840380Y3389040D01*
X15816760Y3410200D01*
X15801000Y3447250D01*
X15793130Y3489580D01*
X15801000Y3531910D01*
X15816760Y3568960D01*
X15840380Y3590120D01*
X15864000Y3595410D01*
X15887620Y3590120D01*
X15911240Y3568960D01*
X15926990Y3531910D01*
X15930930Y3489580D01*
X15926990Y3447250D01*
X15911240Y3410200D01*
X15887620Y3389040D01*
X15864000Y3383750D01*
G01X16525410Y3553090D02*
X16541160Y3568960D01*
X16552970Y3595410D01*
X16560850Y3632460D01*
X16552970Y3664210D01*
X16537230Y3685370D01*
X16509670Y3701250D01*
X16403370D01*
Y3383750D01*
X16533290D01*
X16560850Y3404910D01*
X16576600Y3436670D01*
X16584470Y3473710D01*
X16576600Y3510740D01*
X16552970Y3542500D01*
X16525410Y3553090D01*
X16403370D01*
G01X16808880Y3383750D02*
X16777380Y3389040D01*
X16749830Y3410200D01*
X16726200Y3441960D01*
X16710450Y3479000D01*
X16702580Y3521330D01*
Y3563670D01*
X16710450Y3606000D01*
X16726200Y3643040D01*
X16749830Y3674790D01*
X16777380Y3695960D01*
X16808880Y3701250D01*
X16840370Y3695960D01*
X16867930Y3674790D01*
X16891560Y3643040D01*
X16907310Y3606000D01*
X16915180Y3563670D01*
Y3521330D01*
X16907310Y3479000D01*
X16891560Y3441960D01*
X16867930Y3410200D01*
X16840370Y3389040D01*
X16808880Y3383750D01*
G01X17123840Y3701250D02*
Y3383750D01*
G01X17033290Y3701250D02*
X17214390D01*
G01X17438800D02*
Y3383750D01*
G01X17348250Y3701250D02*
X17529350D01*
G01X17753760Y3383750D02*
X17722260Y3389040D01*
X17694710Y3410200D01*
X17671080Y3441960D01*
X17655330Y3479000D01*
X17647460Y3521330D01*
Y3563670D01*
X17655330Y3606000D01*
X17671080Y3643040D01*
X17694710Y3674790D01*
X17722260Y3695960D01*
X17753760Y3701250D01*
X17785250Y3695960D01*
X17812810Y3674790D01*
X17836440Y3643040D01*
X17852190Y3606000D01*
X17860060Y3563670D01*
Y3521330D01*
X17852190Y3479000D01*
X17836440Y3441960D01*
X17812810Y3410200D01*
X17785250Y3389040D01*
X17753760Y3383750D01*
G01X17966350D02*
Y3701250D01*
X18068720Y3436670D01*
X18171090Y3701250D01*
Y3383750D01*
G01X10273460Y2575000D02*
Y35000D01*
G01X11887630Y1781250D02*
X11856130Y1770670D01*
X11832510Y1744210D01*
X11816760Y1712460D01*
X11804950Y1670120D01*
X11801020Y1622500D01*
X11804950Y1574870D01*
X11816760Y1532540D01*
X11832510Y1500780D01*
X11856130Y1474330D01*
X11887630Y1463750D01*
X11919120Y1474330D01*
X11942750Y1500780D01*
X11958500Y1532540D01*
X11970310Y1574870D01*
X11974240Y1622500D01*
X11970310Y1670120D01*
X11958500Y1712460D01*
X11942750Y1744210D01*
X11919120Y1770670D01*
X11887630Y1781250D01*
G01X12202590Y1453170D02*
X12194710Y1458460D01*
Y1469040D01*
X12202590Y1474330D01*
X12210470Y1469040D01*
Y1458460D01*
X12202590Y1453170D01*
G01X12430940Y1527250D02*
X12454550Y1490200D01*
X12486050Y1469040D01*
X12521490Y1463750D01*
X12552990Y1469040D01*
X12584480Y1495490D01*
X12604160Y1527250D01*
X12608100Y1559000D01*
X12600230Y1596030D01*
X12572670Y1622500D01*
X12545110Y1633090D01*
X12509670D01*
G01X12545110D02*
X12568730Y1648960D01*
X12588420Y1675410D01*
X12596290Y1707160D01*
X12588420Y1738920D01*
X12568730Y1765370D01*
X12533300Y1781250D01*
X12497870Y1775960D01*
X12462430Y1754790D01*
G01X12832510Y1781250D02*
X12801010Y1770670D01*
X12777390Y1744210D01*
X12761640Y1712460D01*
X12749830Y1670120D01*
X12745900Y1622500D01*
X12749830Y1574870D01*
X12761640Y1532540D01*
X12777390Y1500780D01*
X12801010Y1474330D01*
X12832510Y1463750D01*
X12864000Y1474330D01*
X12887630Y1500780D01*
X12903380Y1532540D01*
X12915190Y1574870D01*
X12919120Y1622500D01*
X12915190Y1670120D01*
X12903380Y1712460D01*
X12887630Y1744210D01*
X12864000Y1770670D01*
X12832510Y1781250D01*
G01X13194710Y1463750D02*
Y1781250D01*
X13049040Y1553710D01*
X13245900D01*
G01X13462430Y1463750D02*
X13489990Y1469040D01*
X13521480Y1484910D01*
X13541170Y1511360D01*
X13549040Y1548420D01*
X13541170Y1585450D01*
X13517550Y1617200D01*
X13482110Y1633090D01*
X13442750D01*
X13419120Y1643670D01*
X13399430Y1670120D01*
X13391560Y1707160D01*
X13403380Y1744210D01*
X13430930Y1770670D01*
X13462430Y1781250D01*
X13493920Y1770670D01*
X13521480Y1744210D01*
X13533300Y1707160D01*
X13525420Y1670120D01*
X13505740Y1643670D01*
X13482110Y1633090D01*
X13442750D01*
X13407310Y1617200D01*
X13383690Y1585450D01*
X13375820Y1548420D01*
X13383690Y1511360D01*
X13403380Y1484910D01*
X13434870Y1469040D01*
X13462430Y1463750D01*
G01X12285260Y458330D02*
X12308890Y490080D01*
X12336450Y505960D01*
X12367950Y511250D01*
X12407310Y500670D01*
X12434880Y474210D01*
X12442750Y442460D01*
X12438810Y410700D01*
X12423060Y384250D01*
X12344320Y331330D01*
X12308890Y294290D01*
X12285260Y241360D01*
X12277390Y193750D01*
X12442750D01*
G01X12675030Y183170D02*
X12667150Y188460D01*
Y199040D01*
X12675030Y204330D01*
X12682910Y199040D01*
Y188460D01*
X12675030Y183170D01*
G01X12989990Y511250D02*
X12958490Y500670D01*
X12934870Y474210D01*
X12919120Y442460D01*
X12907310Y400120D01*
X12903380Y352500D01*
X12907310Y304870D01*
X12919120Y262540D01*
X12934870Y230780D01*
X12958490Y204330D01*
X12989990Y193750D01*
X13021480Y204330D01*
X13045110Y230780D01*
X13060860Y262540D01*
X13072670Y304870D01*
X13076600Y352500D01*
X13072670Y400120D01*
X13060860Y442460D01*
X13045110Y474210D01*
X13021480Y500670D01*
X12989990Y511250D01*
G01X12045110Y828750D02*
Y1146250D01*
X11997870Y1082750D01*
G01Y828750D02*
X12092350D01*
G01X12360070Y818170D02*
X12352190Y823460D01*
Y834040D01*
X12360070Y839330D01*
X12367950Y834040D01*
Y823460D01*
X12360070Y818170D01*
G01X12588420Y892250D02*
X12612030Y855200D01*
X12643530Y834040D01*
X12678970Y828750D01*
X12710470Y834040D01*
X12741960Y860490D01*
X12761640Y892250D01*
X12765580Y924000D01*
X12757710Y961030D01*
X12730150Y987500D01*
X12702590Y998090D01*
X12667150D01*
G01X12702590D02*
X12726210Y1013960D01*
X12745900Y1040410D01*
X12753770Y1072160D01*
X12745900Y1103920D01*
X12726210Y1130370D01*
X12690780Y1146250D01*
X12655350Y1140960D01*
X12619910Y1119790D01*
G01X12923060Y865780D02*
X12950620Y839330D01*
X12982110Y828750D01*
X13013610Y839330D01*
X13041170Y871070D01*
X13060860Y918710D01*
X13068730Y966330D01*
Y1024540D01*
X13060860Y1072160D01*
X13041170Y1114500D01*
X13017550Y1135670D01*
X12989990Y1146250D01*
X12958490Y1135670D01*
X12934870Y1114500D01*
X12919120Y1082750D01*
X12911250Y1040410D01*
X12919120Y1003380D01*
X12938810Y966330D01*
X12962430Y945160D01*
X12989990Y939870D01*
X13021480Y950450D01*
X13045110Y976910D01*
X13068730Y1024540D01*
G01X13297070Y828750D02*
X13304950Y897540D01*
X13316760Y955740D01*
X13332510Y1008670D01*
X13352190Y1066870D01*
X13383690Y1146250D01*
X13226210D01*
G01X12119910Y2141070D02*
X12151410Y2114620D01*
X12186840Y2098750D01*
X12218340D01*
X12249830Y2114620D01*
X12273460Y2141070D01*
X12285270Y2178130D01*
X12277400Y2215160D01*
X12257710Y2246910D01*
X12222270Y2268090D01*
X12175030Y2278670D01*
X12147470Y2299830D01*
X12135660Y2336870D01*
X12143540Y2373920D01*
X12163220Y2400370D01*
X12190780Y2416250D01*
X12218340D01*
X12245900Y2405670D01*
X12269520Y2379210D01*
G01X12470310Y2416250D02*
X12564790D01*
G01X12517550D02*
Y2098750D01*
G01X12470310D02*
X12564790D01*
G01X12757700Y2416250D02*
X12907320D01*
X12757700Y2098750D01*
X12907320D01*
G01X13226210D02*
X13068730D01*
Y2416250D01*
X13226210D01*
G01X13163220Y2262800D02*
X13068730D01*
G01X15076600Y2575000D02*
Y35000D01*
G01X15824630Y193750D02*
Y511250D01*
X15919120D01*
X15950610Y495370D01*
X15974240Y458330D01*
X15982110Y416000D01*
X15974240Y373670D01*
X15954550Y341910D01*
X15919120Y326030D01*
X15824630D01*
G01X16139590Y511250D02*
Y193750D01*
X16297070D01*
G01X16434860D02*
X16533290Y511250D01*
X16631720Y193750D01*
G01X16596280Y304870D02*
X16470290D01*
G01X16848250Y511250D02*
Y193750D01*
G01X16757700Y511250D02*
X16938800D01*
G01X17241950Y193750D02*
X17084470D01*
Y511250D01*
X17241950D01*
G01X17178960Y357800D02*
X17084470D01*
G01X17391560Y193750D02*
Y511250D01*
X17470290D01*
X17501790Y495370D01*
X17525410Y474210D01*
X17545100Y442460D01*
X17560850Y405410D01*
X17564780Y352500D01*
X17560850Y299580D01*
X17545100Y262540D01*
X17525410Y230780D01*
X17501790Y209620D01*
X17470290Y193750D01*
X17391560D01*
G01X15824630Y828750D02*
Y1146250D01*
X15919120D01*
X15950610Y1130370D01*
X15974240Y1093330D01*
X15982110Y1051000D01*
X15974240Y1008670D01*
X15954550Y976910D01*
X15919120Y961030D01*
X15824630D01*
G01X16139590Y1146250D02*
Y828750D01*
X16297070D01*
G01X16434860D02*
X16533290Y1146250D01*
X16631720Y828750D01*
G01X16596280Y939870D02*
X16470290D01*
G01X16848250Y1146250D02*
Y828750D01*
G01X16757700Y1146250D02*
X16938800D01*
G01X17241950Y828750D02*
X17084470D01*
Y1146250D01*
X17241950D01*
G01X17178960Y992800D02*
X17084470D01*
G01X17391560Y828750D02*
Y1146250D01*
X17470290D01*
X17501790Y1130370D01*
X17525410Y1109210D01*
X17545100Y1077460D01*
X17560850Y1040410D01*
X17564780Y987500D01*
X17560850Y934580D01*
X17545100Y897540D01*
X17525410Y865780D01*
X17501790Y844620D01*
X17470290Y828750D01*
X17391560D01*
G01X15824630Y1463750D02*
Y1781250D01*
X15919120D01*
X15950610Y1765370D01*
X15974240Y1728330D01*
X15982110Y1686000D01*
X15974240Y1643670D01*
X15954550Y1611910D01*
X15919120Y1596030D01*
X15824630D01*
G01X16139590Y1781250D02*
Y1463750D01*
X16297070D01*
G01X16434860D02*
X16533290Y1781250D01*
X16631720Y1463750D01*
G01X16596280Y1574870D02*
X16470290D01*
G01X16848250Y1781250D02*
Y1463750D01*
G01X16757700Y1781250D02*
X16938800D01*
G01X17241950Y1463750D02*
X17084470D01*
Y1781250D01*
X17241950D01*
G01X17178960Y1627800D02*
X17084470D01*
G01X17391560Y1463750D02*
Y1781250D01*
X17470290D01*
X17501790Y1765370D01*
X17525410Y1744210D01*
X17545100Y1712460D01*
X17560850Y1675410D01*
X17564780Y1622500D01*
X17560850Y1569580D01*
X17545100Y1532540D01*
X17525410Y1500780D01*
X17501790Y1479620D01*
X17470290Y1463750D01*
X17391560D01*
G01X15824630Y2098750D02*
Y2416250D01*
X15919120D01*
X15950610Y2400370D01*
X15974240Y2363330D01*
X15982110Y2321000D01*
X15974240Y2278670D01*
X15954550Y2246910D01*
X15919120Y2231030D01*
X15824630D01*
G01X16139590Y2416250D02*
Y2098750D01*
X16297070D01*
G01X16434860D02*
X16533290Y2416250D01*
X16631720Y2098750D01*
G01X16596280Y2209870D02*
X16470290D01*
G01X16848250Y2416250D02*
Y2098750D01*
G01X16757700Y2416250D02*
X16938800D01*
G01X17241950Y2098750D02*
X17084470D01*
Y2416250D01*
X17241950D01*
G01X17178960Y2262800D02*
X17084470D01*
G01X17391560Y2098750D02*
Y2416250D01*
X17470290D01*
X17501790Y2400370D01*
X17525410Y2379210D01*
X17545100Y2347460D01*
X17560850Y2310410D01*
X17564780Y2257500D01*
X17560850Y2204580D01*
X17545100Y2167540D01*
X17525410Y2135780D01*
X17501790Y2114620D01*
X17470290Y2098750D01*
X17391560D01*
G01X18304940Y2575000D02*
Y35000D01*
G01X18899420Y1728330D02*
X18923050Y1760080D01*
X18950610Y1775960D01*
X18982110Y1781250D01*
X19021470Y1770670D01*
X19049040Y1744210D01*
X19056910Y1712460D01*
X19052970Y1680700D01*
X19037220Y1654250D01*
X18958480Y1601330D01*
X18923050Y1564290D01*
X18899420Y1511360D01*
X18891550Y1463750D01*
X19056910D01*
G01X19202580Y1511360D02*
X19226190Y1484910D01*
X19253750Y1469040D01*
X19289190Y1463750D01*
X19324630Y1474330D01*
X19352180Y1495490D01*
X19371870Y1532540D01*
X19375800Y1574870D01*
X19367930Y1617200D01*
X19348240Y1643670D01*
X19320680Y1664830D01*
X19293130Y1670120D01*
X19265570Y1664830D01*
X19230140Y1643670D01*
X19241950Y1781250D01*
X19348240D01*
G01X19529340Y1596030D02*
X19556910Y1633090D01*
X19580530Y1654250D01*
X19612030Y1664830D01*
X19639590Y1654250D01*
X19659270Y1633090D01*
X19675020Y1601330D01*
X19678960Y1564290D01*
X19675020Y1532540D01*
X19659270Y1500780D01*
X19635640Y1474330D01*
X19608090Y1463750D01*
X19576590Y1474330D01*
X19549030Y1506070D01*
X19533280Y1553710D01*
X19529340Y1606620D01*
X19537220Y1675410D01*
X19549030Y1712460D01*
X19568710Y1749500D01*
X19596270Y1775960D01*
X19623830Y1781250D01*
X19651390Y1770670D01*
X19671080Y1744210D01*
G01X18974230Y2098750D02*
X18942730Y2104040D01*
X18915180Y2125200D01*
X18891550Y2156960D01*
X18875800Y2194000D01*
X18867930Y2236330D01*
Y2278670D01*
X18875800Y2321000D01*
X18891550Y2358040D01*
X18915180Y2389790D01*
X18942730Y2410960D01*
X18974230Y2416250D01*
X19005720Y2410960D01*
X19033280Y2389790D01*
X19056910Y2358040D01*
X19072660Y2321000D01*
X19080530Y2278670D01*
Y2236330D01*
X19072660Y2194000D01*
X19056910Y2156960D01*
X19033280Y2125200D01*
X19005720Y2104040D01*
X18974230Y2098750D01*
G01X19005720Y2183420D02*
X19052970Y2098750D01*
G01X19289190Y2416250D02*
Y2098750D01*
G01X19198640Y2416250D02*
X19379740D01*
G01X19604150Y2098750D02*
Y2241620D01*
X19525410Y2416250D01*
G01X19682890D02*
X19604150Y2241620D01*
G01X19336430Y193750D02*
Y511250D01*
X19190760Y283710D01*
X19387620D01*
G01X19056900Y1093330D02*
X19080530Y1125080D01*
X19108090Y1140960D01*
X19139590Y1146250D01*
X19178950Y1135670D01*
X19206520Y1109210D01*
X19214390Y1077460D01*
X19210450Y1045700D01*
X19194700Y1019250D01*
X19115960Y966330D01*
X19080530Y929290D01*
X19056900Y876360D01*
X19049030Y828750D01*
X19214390D01*
G01X19360060Y876360D02*
X19383670Y849910D01*
X19411230Y834040D01*
X19446670Y828750D01*
X19482110Y839330D01*
X19509660Y860490D01*
X19529350Y897540D01*
X19533280Y939870D01*
X19525410Y982200D01*
X19505720Y1008670D01*
X19478160Y1029830D01*
X19450610Y1035120D01*
X19423050Y1029830D01*
X19387620Y1008670D01*
X19399430Y1146250D01*
X19505720D01*
M02*
