M48
METRIC,TZ
T01C.3048
T02C1.397
T03C2.
;LEADER: 12 
;HEADER: 
;CODE  : ASCII 
;FILE  : RFPW_V10A-1-2.drl for  ... layers TOP and BOTTOM
;DESIGN: RFPW_V10A.brd
;T01 Holesize 1. = 0.304800 Tolerance = +0.000000/-0.000000 PLATED MM Quantity = 256
;T02 Holesize 2. = 1.397000 Tolerance = +0.000000/-0.000000 PLATED MM Quantity = 25
;T03 Holesize 3. = 2.000000 Tolerance = +0.000000/-0.000000 PLATED MM Quantity = 4
%
G90
T01
X2020000Y2170000
X2060000Y2230000
X1980000Y2230000
X1980000Y2110000
X2060000Y2110000
X1700000Y2820000
R02X90000
X3720000Y2190000
R02X80000
X3720000Y2110000
R02X80000
X1980000Y630000
X1980000Y750000
X2020000Y690000
X2060000Y630000
X2060000Y750000
X1880000Y1340000
R02X-90000
X3720000Y700000
R02X80000
X3720000Y620000
R02X80000
X2040000Y3650000
X2000000Y3710000
X2000000Y3590000
X2080000Y3710000
X2080000Y3590000
X2040000Y5140000
X2000000Y5200000
X2080000Y5200000
X2080000Y5080000
X2000000Y5080000
X5684130Y267340
R05X-254000
X6170360Y1918450
R07X-254000
X5454570Y1526360
R06X-254000
X3614350Y1415280
R03X-254000
X2278230Y1537260
R04X-254000
X2449460Y3042420
R05X-254000
X5649770Y3064210
R07X-254000
X3443130Y2920440
R02X-254000
X6195110Y3522970
X5941110Y3522970
X6195110Y3268970
X5941110Y3268970
X5504700Y4519290
R06X-254000
X6203830Y5012900
X5949830Y5012900
X6203830Y4758900
X5949830Y4758900
X2777550Y4453950
R06X-254000
X5242170Y6328560
R15X-254000
X5242170Y6074560
R15X-254000
X881550Y5802280
R02X-254000
X172280Y4878450
R02Y254000
X172280Y4078450
R02Y254000
X172280Y2078450
R02Y254000
X172280Y1158450
R02Y254000
X743550Y162280
X1251550Y162280
X997550Y162280
X1987550Y162280
X1733550Y162280
X2241550Y162280
X3573550Y172280
X4081550Y172280
X3827550Y172280
X3107550Y982280
X2853550Y982280
X3361550Y982280
X3107550Y1202280
X2853550Y1202280
X3361550Y1202280
X5317550Y972280
X5063550Y972280
X5571550Y972280
X5243550Y1222280
X5751550Y1222280
X5497550Y1222280
X5327550Y2452280
X5073550Y2452280
X5581550Y2452280
X5273550Y2742280
X5781550Y2742280
X5527550Y2742280
X3117550Y2462280
X2863550Y2462280
X3371550Y2462280
X3117550Y2702280
X2863550Y2702280
X3371550Y2702280
X1947550Y3252280
X1693550Y3252280
X2201550Y3252280
X2913550Y3622280
X3421550Y3622280
X3167550Y3622280
X2903550Y3912280
X3411550Y3912280
X3157550Y3912280
X3147550Y4182280
X2893550Y4182280
X3401550Y4182280
X3063550Y4502280
X3571550Y4502280
X3317550Y4502280
X4537550Y3422280
X4283550Y3422280
X4791550Y3422280
X5083550Y3512280
X5591550Y3512280
X5337550Y3512280
X4167550Y3912280
X3913550Y3912280
X4421550Y3912280
X4623550Y3912280
X5131550Y3912280
X4877550Y3912280
X4781550Y4892280
R02X-254000
X5317550Y5002280
X5063550Y5002280
X5571550Y5002280
X4613550Y5402280
X5121550Y5402280
X4867550Y5402280
X4157550Y5402280
X3903550Y5402280
X4411550Y5402280
X2903550Y5102280
X3411550Y5102280
X3157550Y5102280
X2903550Y5332280
X3411550Y5332280
X3157550Y5332280
X2903550Y5592280
X3411550Y5592280
X3157550Y5592280
X2903550Y5852280
X3411550Y5852280
X3157550Y5852280
X1347550Y4632280
X1093550Y4632280
X1601550Y4632280
X1873550Y4632280
X2381550Y4632280
X2127550Y4632280
X1710000Y1940000
X1840000Y1940000
X1720000Y460000
X1830000Y460000
X1740000Y1040000
X1060000Y1160000
X1310000Y1160000
X1550000Y1160000
X1730000Y2520000
X1550000Y2620000
R02X-240000
T02
X471600Y3198400
X724000Y2946000
X724000Y3454000
X216000Y3454000
X216000Y2946000
X6138400Y5661600
X5886000Y5914000
X5886000Y5406000
X6394000Y5406000
X6394000Y5914000
X6138400Y4171600
X5886000Y4424000
X5886000Y3916000
X6394000Y3916000
X6394000Y4424000
X6128400Y2711600
X5876000Y2964000
X5876000Y2456000
X6384000Y2456000
X6384000Y2964000
X6128400Y1231600
X5876000Y1484000
X5876000Y976000
X6384000Y976000
X6384000Y1484000
T03
X340000Y340000
X6260000Y340000
X6260000Y6260000
X340000Y6260000
M30
