G04 ================== begin FILE IDENTIFICATION RECORD ==================*
G04 Layout Name:  E:/GitHub/RF-PowerAmplifier-DCDC/RFPW_V10A/PCB/RFPW_V10A.brd*
G04 Film Name:    SilkScreen_Top*
G04 File Format:  Gerber RS274X*
G04 File Origin:  Cadence Allegro 16.6-2015-S071*
G04 Origin Date:  Mon Nov 28 19:10:57 2016*
G04 *
G04 Layer:  BOARD GEOMETRY/OUTLINE*
G04 Layer:  REF DES/SILKSCREEN_TOP*
G04 Layer:  PACKAGE GEOMETRY/SILKSCREEN_TOP*
G04 Layer:  BOARD GEOMETRY/SILKSCREEN_TOP*
G04 *
G04 Offset:    (0.0000 0.0000)*
G04 Mirror:    No*
G04 Mode:      Positive*
G04 Rotation:  0*
G04 FullContactRelief:  No*
G04 UndefLineWidth:     0.1524*
G04 ================== end FILE IDENTIFICATION RECORD ====================*
%FSLAX55Y55*MOMM*%
%IR0*IPPOS*OFA0.00000B0.00000*MIA0B0*SFA1.00000B1.00000*%
%ADD10C,.2032*%
%ADD11C,.127*%
%ADD12C,.254*%
%ADD13C,.1524*%
G75*
%LPD*%
G75*
G36*
G01X1839490Y842400D02*
G03I-25400J0D01*
G37*
G36*
G01Y2322400D02*
G03I-25400J0D01*
G37*
G36*
G01X1859490Y3802400D02*
G03I-25400J0D01*
G37*
G36*
G01Y5292400D02*
G03I-25400J0D01*
G37*
G54D10*
G01X138040Y2737000D02*
X178260Y2610000D01*
X218480Y2737000D01*
G01X288500D02*
X327100D01*
G01X307800D02*
Y2610000D01*
G01X288500D02*
X327100D01*
G01X400340D02*
Y2737000D01*
X474340Y2610000D01*
Y2737000D01*
G01X1306500Y529700D02*
Y250300D01*
G01X1433500D02*
Y529700D01*
G01X1306500Y250300D02*
G03X1433500I63500J71651D01*
G01X1133500D02*
X1006500D01*
G01D02*
Y529700D01*
X1133500D01*
Y250300D01*
G01X1306500Y532240D02*
G02X1433500I63500J-73330D01*
G01X963320Y1406540D02*
Y893460D01*
G01X1176680Y1406540D02*
Y893460D01*
G01X963320Y890920D02*
G03X1176680I106680J187884D01*
G01X1203320Y1406540D02*
Y893460D01*
G01X1416680Y1406540D02*
Y893460D01*
G01X1203320Y890920D02*
G03X1416680I106680J187884D01*
G01X1443320Y1406540D02*
Y893460D01*
G01Y890920D02*
G03X1656680I106680J187884D01*
G01X1133500Y550300D02*
X1006500D01*
G01D02*
Y829700D01*
X1133500D01*
Y550300D01*
G01X963320Y1409080D02*
G02X1176680I106680J-190551D01*
G01X1203320D02*
G02X1416680I106680J-190551D01*
G01X1443320D02*
G02X1656680I106680J-190551D01*
G01X1306500Y2009700D02*
Y1730300D01*
G01X1433500D02*
Y2009700D01*
G01X1306500Y2012240D02*
G02X1433500I63500J-73330D01*
G01X1306500Y1730300D02*
G03X1433500I63500J71651D01*
G01X1133500D02*
X1006500D01*
G01D02*
Y2009700D01*
X1133500D01*
Y1730300D01*
G01X1203320Y2886540D02*
Y2373460D01*
G01X1416680Y2886540D02*
Y2373460D01*
G01X1203320Y2370920D02*
G03X1416680I106680J187884D01*
G01X1443320Y2886540D02*
Y2373460D01*
G01Y2370920D02*
G03X1656680I106680J187884D01*
G01X963320Y2886540D02*
Y2373460D01*
G01X1176680Y2886540D02*
Y2373460D01*
G01X963320Y2370920D02*
G03X1176680I106680J187884D01*
G01X1133500Y2030300D02*
X1006500D01*
G01D02*
Y2309700D01*
X1133500D01*
Y2030300D01*
G01X1203320Y2889080D02*
G02X1416680I106680J-190551D01*
G01X1443320D02*
G02X1656680I106680J-190551D01*
G01X963320D02*
G02X1176680I106680J-190551D01*
G01X1316500Y3489700D02*
Y3210300D01*
G01X1443500D02*
Y3489700D01*
G01X1316500Y3492240D02*
G02X1443500I63500J-73330D01*
G01X1316500Y3210300D02*
G03X1443500I63500J71651D01*
G01X1153500Y3510300D02*
X1026500D01*
G01D02*
Y3789700D01*
X1153500D01*
Y3510300D01*
G01Y3210300D02*
X1026500D01*
G01D02*
Y3489700D01*
X1153500D01*
Y3210300D01*
G01X1463320Y4356540D02*
Y3843460D01*
G01Y3840920D02*
G03X1676680I106680J187884D01*
G01X1223320Y4356540D02*
Y3843460D01*
G01X1436680Y4356540D02*
Y3843460D01*
G01X1223320Y3840920D02*
G03X1436680I106680J187884D01*
G01X983320Y4356540D02*
Y3843460D01*
G01X1196680Y4356540D02*
Y3843460D01*
G01X983320Y3840920D02*
G03X1196680I106680J187884D01*
G01X1316500Y4979700D02*
Y4700300D01*
G01X1443500D02*
Y4979700D01*
G01X1316500Y4700300D02*
G03X1443500I63500J71651D01*
G01X1463320Y4359080D02*
G02X1676680I106680J-190551D01*
G01X1223320D02*
G02X1436680I106680J-190551D01*
G01X983320D02*
G02X1196680I106680J-190551D01*
G01X1153500Y4700300D02*
X1026500D01*
G01D02*
Y4979700D01*
X1153500D01*
Y4700300D01*
G01X1316500Y4982240D02*
G02X1443500I63500J-73330D01*
G01X1153500Y5000300D02*
X1026500D01*
G01D02*
Y5279700D01*
X1153500D01*
Y5000300D01*
G01X1223320Y5846540D02*
Y5333460D01*
G01X1436680Y5846540D02*
Y5333460D01*
G01X1223320Y5330920D02*
G03X1436680I106680J187884D01*
G01X983320Y5846540D02*
Y5333460D01*
G01X1196680Y5846540D02*
Y5333460D01*
G01X983320Y5330920D02*
G03X1196680I106680J187884D01*
G01X1463320Y5846540D02*
Y5333460D01*
G01Y5330920D02*
G03X1676680I106680J187884D01*
G01X1223320Y5849080D02*
G02X1436680I106680J-190551D01*
G01X983320D02*
G02X1196680I106680J-190551D01*
G01X1463320D02*
G02X1676680I106680J-190551D01*
G01X1623500Y250300D02*
X1496500D01*
G01D02*
Y529700D01*
X1623500D01*
Y250300D01*
G01X1880300Y916500D02*
X2159700D01*
G01X1877760D02*
G02Y1043500I73330J63500D01*
G01X1656680Y1406540D02*
Y893460D01*
G01X2159700Y1043500D02*
X1880300D01*
G01X1623500Y1730300D02*
X1496500D01*
G01D02*
Y2009700D01*
X1623500D01*
Y1730300D01*
G01X1880300Y2396500D02*
X2159700D01*
G01Y2523500D02*
X1880300D01*
G01X1877760Y2396500D02*
G02Y2523500I73330J63500D01*
G01X1656680Y2886540D02*
Y2373460D01*
G01X1633500Y3210300D02*
X1506500D01*
G01D02*
Y3489700D01*
X1633500D01*
Y3210300D01*
G01X1900300Y3876500D02*
X2179700D01*
G01Y4003500D02*
X1900300D01*
G01X1897760Y3876500D02*
G02Y4003500I73330J63500D01*
G01X1676680Y4356540D02*
Y3843460D01*
G01X1633500Y4700300D02*
X1506500D01*
G01D02*
Y4979700D01*
X1633500D01*
Y4700300D01*
G01X1900300Y5366500D02*
X2179700D01*
G01Y5493500D02*
X1900300D01*
G01X1897760Y5366500D02*
G02Y5493500I73330J63500D01*
G01X1676680Y5846540D02*
Y5333460D01*
G01X2159700Y916500D02*
G03Y1043500I-71651J63500D01*
G01Y2396500D02*
G03Y2523500I-71651J63500D01*
G01X2179700Y3876500D02*
G03Y4003500I-71651J63500D01*
G01Y5366500D02*
G03Y5493500I-71651J63500D01*
G01X2773500Y260300D02*
Y539700D01*
G01X2646500D02*
Y260300D01*
G01X2773500Y257760D02*
G02X2646500I-63500J73330D01*
G01X3106500Y539700D02*
Y260300D01*
G01X3233500Y257760D02*
G02X3106500I-63500J73330D01*
G01X3079700Y383500D02*
Y256500D01*
G01D02*
X2800300D01*
Y383500D01*
X3079700D01*
G01X2773500Y539700D02*
G03X2646500I-63500J-71651D01*
G01X3233500D02*
G03X3106500I-63500J-71651D01*
G01X2763500Y1740300D02*
Y2019700D01*
G01X2636500D02*
Y1740300D01*
G01X2763500Y1737760D02*
G02X2636500I-63500J73330D01*
G01X3096500Y2019700D02*
Y1740300D01*
G01X3223500Y1737760D02*
G02X3096500I-63500J73330D01*
G01X3069700Y1863500D02*
Y1736500D01*
G01D02*
X2790300D01*
Y1863500D01*
X3069700D01*
G01X2763500Y2019700D02*
G03X2636500I-63500J-71651D01*
G01X3223500D02*
G03X3096500I-63500J-71651D01*
G01X2646500Y3499700D02*
Y3220300D01*
G01X2773500D02*
Y3499700D01*
G01X2646500Y3502240D02*
G02X2773500I63500J-73330D01*
G01X2646500Y3220300D02*
G03X2773500I63500J71651D01*
G01X3106500Y3499700D02*
Y3220300D01*
G01Y3502240D02*
G02X3233500I63500J-73330D01*
G01X3106500Y3220300D02*
G03X3233500I63500J71651D01*
G01X3079700Y3503500D02*
Y3376500D01*
G01D02*
X2800300D01*
Y3503500D01*
X3079700D01*
G01X2646500Y4989700D02*
Y4710300D01*
G01X2773500D02*
Y4989700D01*
G01X2646500Y4710300D02*
G03X2773500I63500J71651D01*
G01X3106500Y4989700D02*
Y4710300D01*
G01D02*
G03X3233500I63500J71651D01*
G01X2646500Y4992240D02*
G02X2773500I63500J-73330D01*
G01X3106500D02*
G02X3233500I63500J-73330D01*
G01X3079700Y4993500D02*
Y4866500D01*
G01D02*
X2800300D01*
Y4993500D01*
X3079700D01*
G01X3233500Y260300D02*
Y539700D01*
G01X3453500Y529700D02*
Y250300D01*
X3326500D01*
Y529700D01*
G01X3613500Y250300D02*
X3486500D01*
G01D02*
Y529700D01*
X3613500D01*
Y250300D01*
G01X3773500Y529700D02*
Y250300D01*
X3646500D01*
Y529700D01*
G01X3326500D02*
X3453500D01*
G01X3646500D02*
X3773500D01*
G01X3223500Y1740300D02*
Y2019700D01*
G01X3326500Y2009700D02*
X3453500D01*
G01D02*
Y1730300D01*
X3326500D01*
Y2009700D01*
G01X3613500Y1730300D02*
X3486500D01*
G01D02*
Y2009700D01*
X3613500D01*
Y1730300D01*
G01X3646500Y2009700D02*
X3773500D01*
G01D02*
Y1730300D01*
X3646500D01*
Y2009700D01*
G01X3233500Y3220300D02*
Y3499700D01*
G01X3633500Y3210300D02*
X3506500D01*
G01D02*
Y3489700D01*
X3633500D01*
Y3210300D01*
G01X3346500Y3489700D02*
X3473500D01*
G01D02*
Y3210300D01*
X3346500D01*
Y3489700D01*
G01X3666500D02*
X3793500D01*
G01D02*
Y3210300D01*
X3666500D01*
Y3489700D01*
G01X3233500Y4710300D02*
Y4989700D01*
G01X3473500Y4979700D02*
Y4700300D01*
X3346500D01*
Y4979700D01*
G01X3633500Y4700300D02*
X3506500D01*
G01D02*
Y4979700D01*
X3633500D01*
Y4700300D01*
G01X3793500Y4979700D02*
Y4700300D01*
X3666500D01*
Y4979700D01*
G01X3346500D02*
X3473500D01*
G01X3666500D02*
X3793500D01*
G01X5256500Y869700D02*
Y590300D01*
G01X5383500Y587760D02*
G02X5256500I-63500J73330D01*
G01X5383500Y869700D02*
G03X5256500I-63500J-71651D01*
G01X5246500Y2359700D02*
Y2080300D01*
G01X5373500Y2077760D02*
G02X5246500I-63500J73330D01*
G01X5373500Y2359700D02*
G03X5246500I-63500J-71651D01*
G01X5256500Y4229700D02*
Y3950300D01*
G01X5383500Y3947760D02*
G02X5256500I-63500J73330D01*
G01X5383500Y4229700D02*
G03X5256500I-63500J-71651D01*
G01Y5719700D02*
Y5440300D01*
G01X5383500Y5437760D02*
G02X5256500I-63500J73330D01*
G01X5383500Y5719700D02*
G03X5256500I-63500J-71651D01*
G01X5383500Y590300D02*
Y869700D01*
G01X5563500Y590300D02*
Y869700D01*
G01X5436500D02*
Y590300D01*
G01X5563500Y587760D02*
G02X5436500I-63500J73330D01*
G01X5563500Y869700D02*
G03X5436500I-63500J-71651D01*
G01X5373500Y2080300D02*
Y2359700D01*
G01X5553500Y2080300D02*
Y2359700D01*
G01X5426500D02*
Y2080300D01*
G01X5553500Y2077760D02*
G02X5426500I-63500J73330D01*
G01X5553500Y2359700D02*
G03X5426500I-63500J-71651D01*
G01X5563500Y3950300D02*
Y4229700D01*
G01X5436500D02*
Y3950300D01*
G01X5563500Y3947760D02*
G02X5436500I-63500J73330D01*
G01X5383500Y3950300D02*
Y4229700D01*
G01X5563500D02*
G03X5436500I-63500J-71651D01*
G01X5563500Y5440300D02*
Y5719700D01*
G01X5436500D02*
Y5440300D01*
G01X5563500Y5437760D02*
G02X5436500I-63500J73330D01*
G01X5563500Y5719700D02*
G03X5436500I-63500J-71651D01*
G01X5383500Y5440300D02*
Y5719700D01*
G01X5888040Y777000D02*
X5928260Y650000D01*
X5968480Y777000D01*
G01X6093190Y766420D02*
X6083540Y772770D01*
X6072280Y777000D01*
X6059410D01*
X6044930Y770650D01*
X6033670Y760070D01*
X6025630Y747370D01*
X6019190Y726200D01*
X6017580Y707150D01*
X6020800Y688100D01*
X6025630Y675400D01*
X6035280Y662700D01*
X6046540Y654230D01*
X6057800Y650000D01*
X6069060D01*
X6080320Y654230D01*
X6089970Y660580D01*
X6098020Y669050D01*
G01X6222730Y766420D02*
X6213080Y772770D01*
X6201820Y777000D01*
X6188950D01*
X6174470Y770650D01*
X6163210Y760070D01*
X6155170Y747370D01*
X6148730Y726200D01*
X6147120Y707150D01*
X6150340Y688100D01*
X6155170Y675400D01*
X6164820Y662700D01*
X6176080Y654230D01*
X6187340Y650000D01*
X6198600D01*
X6209860Y654230D01*
X6219510Y660580D01*
X6227560Y669050D01*
G01X6336180Y650000D02*
Y777000D01*
X6276660Y685980D01*
X6357100D01*
G01X5888040Y2257000D02*
X5928260Y2130000D01*
X5968480Y2257000D01*
G01X6093190Y2246420D02*
X6083540Y2252770D01*
X6072280Y2257000D01*
X6059410D01*
X6044930Y2250650D01*
X6033670Y2240070D01*
X6025630Y2227370D01*
X6019190Y2206200D01*
X6017580Y2187150D01*
X6020800Y2168100D01*
X6025630Y2155400D01*
X6035280Y2142700D01*
X6046540Y2134230D01*
X6057800Y2130000D01*
X6069060D01*
X6080320Y2134230D01*
X6089970Y2140580D01*
X6098020Y2149050D01*
G01X6222730Y2246420D02*
X6213080Y2252770D01*
X6201820Y2257000D01*
X6188950D01*
X6174470Y2250650D01*
X6163210Y2240070D01*
X6155170Y2227370D01*
X6148730Y2206200D01*
X6147120Y2187150D01*
X6150340Y2168100D01*
X6155170Y2155400D01*
X6164820Y2142700D01*
X6176080Y2134230D01*
X6187340Y2130000D01*
X6198600D01*
X6209860Y2134230D01*
X6219510Y2140580D01*
X6227560Y2149050D01*
G01X6281490Y2155400D02*
X6291140Y2140580D01*
X6304010Y2132120D01*
X6318490Y2130000D01*
X6331360Y2132120D01*
X6344230Y2142700D01*
X6352270Y2155400D01*
X6353880Y2168100D01*
X6350660Y2182910D01*
X6339400Y2193500D01*
X6328140Y2197730D01*
X6313660D01*
G01X6328140D02*
X6337790Y2204080D01*
X6345840Y2214660D01*
X6349050Y2227370D01*
X6345840Y2240070D01*
X6337790Y2250650D01*
X6323310Y2257000D01*
X6308840Y2254880D01*
X6294360Y2246420D01*
G01X5878040Y3707000D02*
X5918260Y3580000D01*
X5958480Y3707000D01*
G01X6083190Y3696420D02*
X6073540Y3702770D01*
X6062280Y3707000D01*
X6049410D01*
X6034930Y3700650D01*
X6023670Y3690070D01*
X6015630Y3677370D01*
X6009190Y3656200D01*
X6007580Y3637150D01*
X6010800Y3618100D01*
X6015630Y3605400D01*
X6025280Y3592700D01*
X6036540Y3584230D01*
X6047800Y3580000D01*
X6059060D01*
X6070320Y3584230D01*
X6079970Y3590580D01*
X6088020Y3599050D01*
G01X6212730Y3696420D02*
X6203080Y3702770D01*
X6191820Y3707000D01*
X6178950D01*
X6164470Y3700650D01*
X6153210Y3690070D01*
X6145170Y3677370D01*
X6138730Y3656200D01*
X6137120Y3637150D01*
X6140340Y3618100D01*
X6145170Y3605400D01*
X6154820Y3592700D01*
X6166080Y3584230D01*
X6177340Y3580000D01*
X6188600D01*
X6199860Y3584230D01*
X6209510Y3590580D01*
X6217560Y3599050D01*
G01X6276310Y3685830D02*
X6285970Y3698530D01*
X6297230Y3704880D01*
X6310100Y3707000D01*
X6326180Y3702770D01*
X6337450Y3692180D01*
X6340660Y3679490D01*
X6339050Y3666780D01*
X6332620Y3656200D01*
X6300450Y3635030D01*
X6285970Y3620220D01*
X6276310Y3599050D01*
X6273100Y3580000D01*
X6340660D01*
G01X5898040Y5207000D02*
X5938260Y5080000D01*
X5978480Y5207000D01*
G01X6103190Y5196420D02*
X6093540Y5202770D01*
X6082280Y5207000D01*
X6069410D01*
X6054930Y5200650D01*
X6043670Y5190070D01*
X6035630Y5177370D01*
X6029190Y5156200D01*
X6027580Y5137150D01*
X6030800Y5118100D01*
X6035630Y5105400D01*
X6045280Y5092700D01*
X6056540Y5084230D01*
X6067800Y5080000D01*
X6079060D01*
X6090320Y5084230D01*
X6099970Y5090580D01*
X6108020Y5099050D01*
G01X6232730Y5196420D02*
X6223080Y5202770D01*
X6211820Y5207000D01*
X6198950D01*
X6184470Y5200650D01*
X6173210Y5190070D01*
X6165170Y5177370D01*
X6158730Y5156200D01*
X6157120Y5137150D01*
X6160340Y5118100D01*
X6165170Y5105400D01*
X6174820Y5092700D01*
X6186080Y5084230D01*
X6197340Y5080000D01*
X6208600D01*
X6219860Y5084230D01*
X6229510Y5090580D01*
X6237560Y5099050D01*
G01X6326880Y5080000D02*
Y5207000D01*
X6307580Y5181600D01*
G01Y5080000D02*
X6346180D01*
G54D11*
G01X5763500Y620000D02*
G03I-63500J0D01*
G01X5753500Y2120000D02*
G03I-63500J0D01*
G01X5473500Y4330000D02*
G03I-63500J0D01*
G01Y5820000D02*
G03I-63500J0D01*
G54D12*
G01X-590000Y3000000D02*
X-690000Y3400000D01*
G01X-480000Y3000000D02*
X-580000Y3400000D01*
G01X-370000Y3000000D02*
X-470000Y3400000D01*
G01X-260000Y3000000D02*
X-360000Y3400000D01*
G01X-150000Y3000000D02*
X-250000Y3400000D01*
G01X-530000Y2840000D02*
X-590000Y3000000D01*
X-640000Y2840000D01*
X-690000Y3000000D01*
Y2840000D01*
X-90000D01*
Y3560000D01*
X-690000D01*
Y3400000D01*
X-640000Y3560000D01*
X-580000Y3400000D01*
X-530000Y3560000D01*
G01X-420000Y2840000D02*
X-480000Y3000000D01*
X-530000Y2840000D01*
G01X-310000D02*
X-370000Y3000000D01*
X-420000Y2840000D01*
G01X-200000D02*
X-260000Y3000000D01*
X-310000Y2840000D01*
G01X-90000D02*
X-150000Y3000000D01*
X-200000Y2840000D01*
G01X110000Y3400000D02*
X-690000D01*
Y3000000D01*
X110000D01*
G01X-200000Y3560000D02*
X-140000Y3400000D01*
X-90000Y3560000D01*
G01X-420000D02*
X-360000Y3400000D01*
X-310000Y3560000D01*
G01D02*
X-250000Y3400000D01*
X-200000Y3560000D01*
G01X-530000D02*
X-470000Y3400000D01*
X-420000Y3560000D01*
G01X505100Y890000D02*
G03I-165100J0D01*
G01X100000Y2770000D02*
X520000D01*
Y2570000D01*
X100000D01*
Y2770000D01*
G01X621330Y3200000D02*
G03I-151330J0D01*
G01X730000Y2940000D02*
X210000D01*
Y3460000D01*
X730000D01*
Y2940000D01*
G01X-140000Y3400000D02*
X-90000Y3200000D01*
G01X1970000Y850000D02*
X1910000D01*
Y530000D01*
X2130000D01*
Y850000D01*
X2080000D01*
G02X1970000I-55000J5000D01*
G01X2050500Y1177300D02*
X2025100D01*
Y1215400D01*
X2012400Y1228100D01*
Y1139200D01*
X1987000D01*
Y1240800D01*
X2012400D01*
X2063200Y1190000D01*
X1974300Y1101100D01*
Y1278900D01*
X2063200Y1190000D01*
X2025100D01*
G01X1783800Y1278900D02*
X2253700D01*
Y1101100D01*
X1783800D01*
Y1278900D01*
G01X1970000Y2330000D02*
X1910000D01*
Y2010000D01*
X2130000D01*
Y2330000D01*
X2080000D01*
G02X1970000I-55000J5000D01*
G01X2050500Y2657300D02*
X2025100D01*
Y2695400D01*
X2012400Y2708100D01*
Y2619200D01*
X1987000D01*
Y2720800D01*
X2012400D01*
X2063200Y2670000D01*
X1974300Y2581100D01*
Y2758900D01*
X2063200Y2670000D01*
X2025100D01*
G01X1783800Y2758900D02*
X2253700D01*
Y2581100D01*
X1783800D01*
Y2758900D01*
G01X1990000Y3810000D02*
X1930000D01*
Y3490000D01*
X2150000D01*
Y3810000D01*
X2100000D01*
G02X1990000I-55000J5000D01*
G01X2070500Y4137300D02*
X2045100D01*
Y4175400D01*
X2032400Y4188100D01*
Y4099200D01*
X2007000D01*
Y4200800D01*
X2032400D01*
X2083200Y4150000D01*
X1994300Y4061100D01*
Y4238900D01*
X2083200Y4150000D01*
X2045100D01*
G01X1803800Y4238900D02*
X2273700D01*
Y4061100D01*
X1803800D01*
Y4238900D01*
G01X1990000Y5300000D02*
X1930000D01*
Y4980000D01*
X2150000D01*
Y5300000D01*
X2100000D01*
G02X1990000I-55000J5000D01*
G01X2070500Y5627300D02*
X2045100D01*
Y5665400D01*
X2032400Y5678100D01*
Y5589200D01*
X2007000D01*
Y5690800D01*
X2032400D01*
X2083200Y5640000D01*
X1994300Y5551100D01*
Y5728900D01*
X2083200Y5640000D01*
X2045100D01*
G01X1803800Y5728900D02*
X2273700D01*
Y5551100D01*
X1803800D01*
Y5728900D01*
G01X2253700Y1278900D02*
X2291800D01*
Y1101100D01*
X2253700D01*
G01X2063200Y1278900D02*
Y1101100D01*
G01X2253700Y2758900D02*
X2291800D01*
Y2581100D01*
X2253700D01*
G01X2063200Y2758900D02*
Y2581100D01*
G01X2273700Y4238900D02*
X2311800D01*
Y4061100D01*
X2273700D01*
G01X2083200Y4238900D02*
Y4061100D01*
G01X2273700Y5728900D02*
X2311800D01*
Y5551100D01*
X2273700D01*
G01X2083200Y5728900D02*
Y5551100D01*
G01X2630000Y590000D02*
X3670000D01*
Y1630000D01*
X2630000D01*
Y590000D01*
G01Y2070000D02*
X3670000D01*
Y3110000D01*
X2630000D01*
Y2070000D01*
G01X2640000Y3550000D02*
X3680000D01*
Y4590000D01*
X2640000D01*
Y3550000D01*
G01Y5040000D02*
X3680000D01*
Y6080000D01*
X2640000D01*
Y5040000D01*
G01X3140000Y1270000D02*
G02Y1190000I0J-40000D01*
G01Y1030000D02*
G02Y950000I0J-40000D01*
G01Y1110000D02*
G02Y1030000I0J-40000D01*
G01Y1190000D02*
G02Y1110000I0J-40000D01*
G01Y2510000D02*
G02Y2430000I0J-40000D01*
G01Y2590000D02*
G02Y2510000I0J-40000D01*
G01Y2750000D02*
G02Y2670000I0J-40000D01*
G01D02*
G02Y2590000I0J-40000D01*
G01X3150000Y4230000D02*
G02Y4150000I0J-40000D01*
G01Y3990000D02*
G02Y3910000I0J-40000D01*
G01Y4070000D02*
G02Y3990000I0J-40000D01*
G01Y4150000D02*
G02Y4070000I0J-40000D01*
G01Y5720000D02*
G02Y5640000I0J-40000D01*
G01Y5480000D02*
G02Y5400000I0J-40000D01*
G01Y5560000D02*
G02Y5480000I0J-40000D01*
G01Y5640000D02*
G02Y5560000I0J-40000D01*
G01X4448260Y967300D02*
G03I-318260J0D01*
G01X4460200Y637100D02*
Y1247100D01*
X4410200Y1297100D01*
X3850200D01*
X3800200Y1247100D01*
Y637100D01*
X4460200D01*
G01X3901400Y1119700D02*
X4053800D01*
G01X3977600Y1043500D02*
Y1195900D01*
G01X4448260Y2447300D02*
G03I-318260J0D01*
G01X3977600Y2523500D02*
Y2675900D01*
G01X4460200Y2117100D02*
Y2727100D01*
X4410200Y2777100D01*
X3850200D01*
X3800200Y2727100D01*
Y2117100D01*
X4460200D01*
G01X3901400Y2599700D02*
X4053800D01*
G01X4458260Y3907300D02*
G03I-318260J0D01*
G01X4470200Y3577100D02*
Y4187100D01*
X4420200Y4237100D01*
X3860200D01*
X3810200Y4187100D01*
Y3577100D01*
X4470200D01*
G01X3911400Y4059700D02*
X4063800D01*
G01X3987600Y3983500D02*
Y4135900D01*
G01X4458260Y5397300D02*
G03I-318260J0D01*
G01X4470200Y5067100D02*
Y5677100D01*
X4420200Y5727100D01*
X3860200D01*
X3810200Y5677100D01*
Y5067100D01*
X4470200D01*
G01X3911400Y5549700D02*
X4063800D01*
G01X3987600Y5473500D02*
Y5625900D01*
G01X5168260Y967300D02*
G03I-318260J0D01*
G01X5180200Y637100D02*
Y1247100D01*
X5130200Y1297100D01*
X4570200D01*
X4520200Y1247100D01*
Y637100D01*
X5180200D01*
G01X4621400Y1119700D02*
X4773800D01*
G01X4697600Y1043500D02*
Y1195900D01*
G01X5168260Y2447300D02*
G03I-318260J0D01*
G01X4697600Y2523500D02*
Y2675900D01*
G01X5180200Y2117100D02*
Y2727100D01*
X5130200Y2777100D01*
X4570200D01*
X4520200Y2727100D01*
Y2117100D01*
X5180200D01*
G01X4621400Y2599700D02*
X4773800D01*
G01X5178260Y3907300D02*
G03I-318260J0D01*
G01X5190200Y3577100D02*
Y4187100D01*
X5140200Y4237100D01*
X4580200D01*
X4530200Y4187100D01*
Y3577100D01*
X5190200D01*
G01X4631400Y4059700D02*
X4783800D01*
G01X4707600Y3983500D02*
Y4135900D01*
G01X5178260Y5397300D02*
G03I-318260J0D01*
G01X5190200Y5067100D02*
Y5677100D01*
X5140200Y5727100D01*
X4580200D01*
X4530200Y5677100D01*
Y5067100D01*
X5190200D01*
G01X4631400Y5549700D02*
X4783800D01*
G01X4707600Y5473500D02*
Y5625900D01*
G01X5850000Y810000D02*
X6560000D01*
Y610000D01*
X5850000D01*
Y810000D01*
G01Y2290000D02*
X6560000D01*
Y2090000D01*
X5850000D01*
Y2290000D01*
G01X5840000Y3740000D02*
X6560000D01*
Y3540000D01*
X5840000D01*
Y3740000D01*
G01X5725100Y6260000D02*
G03I-165100J0D01*
G01X6281330Y1230000D02*
G03I-151330J0D01*
G01X5870000Y1490000D02*
X6390000D01*
Y970000D01*
X5870000D01*
Y1490000D01*
G01X6281330Y2710000D02*
G03I-151330J0D01*
G01X5870000Y2970000D02*
X6390000D01*
Y2450000D01*
X5870000D01*
Y2970000D01*
G01X6291330Y4170000D02*
G03I-151330J0D01*
G01X5880000Y4430000D02*
X6400000D01*
Y3910000D01*
X5880000D01*
Y4430000D01*
G01X5860000Y5240000D02*
X6560000D01*
Y5040000D01*
X5860000D01*
Y5240000D01*
G01X6291330Y5660000D02*
G03I-151330J0D01*
G01X5880000Y5920000D02*
X6400000D01*
Y5400000D01*
X5880000D01*
Y5920000D01*
G01X6410000Y710000D02*
X6510000D01*
G01X6800000Y870000D02*
X6740000Y1030000D01*
X6690000Y870000D01*
G01X7020000D02*
X6960000Y1030000D01*
X6910000Y870000D01*
G01D02*
X6850000Y1030000D01*
X6800000Y870000D01*
G01X7130000Y1590000D02*
X7190000Y1430000D01*
X7240000Y1590000D01*
X7290000Y1430000D01*
Y1590000D01*
X6690000D01*
Y870000D01*
X7290000D01*
Y1030000D01*
X7240000Y870000D01*
X7180000Y1030000D01*
X7130000Y870000D01*
G01X6860000Y1430000D02*
X6960000Y1030000D01*
G01X6740000D02*
X6690000Y1230000D01*
G01X6750000Y1430000D02*
X6850000Y1030000D01*
G01X6800000Y1590000D02*
X6860000Y1430000D01*
X6910000Y1590000D01*
G01X6690000D02*
X6750000Y1430000D01*
X6800000Y1590000D01*
G01X6490000Y1030000D02*
X7290000D01*
Y1430000D01*
X6490000D01*
G01X6910000Y1590000D02*
X6970000Y1430000D01*
X7020000Y1590000D01*
G01X6410000Y2190000D02*
X6510000D01*
G01X6740000Y2510000D02*
X6690000Y2710000D01*
G01X6750000Y2910000D02*
X6850000Y2510000D01*
G01X6800000Y2350000D02*
X6740000Y2510000D01*
X6690000Y2350000D01*
G01X7020000D02*
X6960000Y2510000D01*
X6910000Y2350000D01*
G01D02*
X6850000Y2510000D01*
X6800000Y2350000D01*
G01X7130000Y3070000D02*
X7190000Y2910000D01*
X7240000Y3070000D01*
X7290000Y2910000D01*
Y3070000D01*
X6690000D01*
Y2350000D01*
X7290000D01*
Y2510000D01*
X7240000Y2350000D01*
X7180000Y2510000D01*
X7130000Y2350000D01*
G01X6490000Y2510000D02*
X7290000D01*
Y2910000D01*
X6490000D01*
G01X6860000D02*
X6960000Y2510000D01*
G01X6910000Y3070000D02*
X6970000Y2910000D01*
X7020000Y3070000D01*
G01X6800000D02*
X6860000Y2910000D01*
X6910000Y3070000D01*
G01X6690000D02*
X6750000Y2910000D01*
X6800000Y3070000D01*
G01X6410000Y3640000D02*
X6510000D01*
G01X6460000Y3690000D02*
Y3590000D01*
G01X6870000Y4370000D02*
X6970000Y3970000D01*
G01X6750000D02*
X6700000Y4170000D01*
G01X6760000Y4370000D02*
X6860000Y3970000D01*
G01X6810000Y3810000D02*
X6750000Y3970000D01*
X6700000Y3810000D01*
G01X7030000D02*
X6970000Y3970000D01*
X6920000Y3810000D01*
G01D02*
X6860000Y3970000D01*
X6810000Y3810000D01*
G01X7140000Y4530000D02*
X7200000Y4370000D01*
X7250000Y4530000D01*
X7300000Y4370000D01*
Y4530000D01*
X6700000D01*
Y3810000D01*
X7300000D01*
Y3970000D01*
X7250000Y3810000D01*
X7190000Y3970000D01*
X7140000Y3810000D01*
G01X6500000Y3970000D02*
X7300000D01*
Y4370000D01*
X6500000D01*
G01X6920000Y4530000D02*
X6980000Y4370000D01*
X7030000Y4530000D01*
G01X6810000D02*
X6870000Y4370000D01*
X6920000Y4530000D01*
G01X6700000D02*
X6760000Y4370000D01*
X6810000Y4530000D01*
G01X6410000Y5140000D02*
X6510000D01*
G01X6460000Y5190000D02*
Y5090000D01*
G01X6870000Y5860000D02*
X6970000Y5460000D01*
G01X6750000D02*
X6700000Y5660000D01*
G01X6760000Y5860000D02*
X6860000Y5460000D01*
G01X6810000Y5300000D02*
X6750000Y5460000D01*
X6700000Y5300000D01*
G01X7030000D02*
X6970000Y5460000D01*
X6920000Y5300000D01*
G01D02*
X6860000Y5460000D01*
X6810000Y5300000D01*
G01X7140000Y6020000D02*
X7200000Y5860000D01*
X7250000Y6020000D01*
X7300000Y5860000D01*
Y6020000D01*
X6700000D01*
Y5300000D01*
X7300000D01*
Y5460000D01*
X7250000Y5300000D01*
X7190000Y5460000D01*
X7140000Y5300000D01*
G01X6500000Y5460000D02*
X7300000D01*
Y5860000D01*
X6500000D01*
G01X6920000Y6020000D02*
X6980000Y5860000D01*
X7030000Y6020000D01*
G01X6810000D02*
X6870000Y5860000D01*
X6920000Y6020000D01*
G01X6700000D02*
X6760000Y5860000D01*
X6810000Y6020000D01*
G01X7130000Y870000D02*
X7070000Y1030000D01*
X7020000Y870000D01*
G01X7190000Y1430000D02*
X7290000Y1030000D01*
G01X7080000Y1430000D02*
X7180000Y1030000D01*
G01X6970000Y1430000D02*
X7070000Y1030000D01*
G01X7020000Y1590000D02*
X7080000Y1430000D01*
X7130000Y1590000D01*
G01X7190000Y2910000D02*
X7290000Y2510000D01*
G01X7080000Y2910000D02*
X7180000Y2510000D01*
G01X6970000Y2910000D02*
X7070000Y2510000D01*
G01X7130000Y2350000D02*
X7070000Y2510000D01*
X7020000Y2350000D01*
G01Y3070000D02*
X7080000Y2910000D01*
X7130000Y3070000D01*
G01X7200000Y4370000D02*
X7300000Y3970000D01*
G01X7090000Y4370000D02*
X7190000Y3970000D01*
G01X6980000Y4370000D02*
X7080000Y3970000D01*
G01X7140000Y3810000D02*
X7080000Y3970000D01*
X7030000Y3810000D01*
G01Y4530000D02*
X7090000Y4370000D01*
X7140000Y4530000D01*
G01X7200000Y5860000D02*
X7300000Y5460000D01*
G01X7090000Y5860000D02*
X7190000Y5460000D01*
G01X6980000Y5860000D02*
X7080000Y5460000D01*
G01X7140000Y5300000D02*
X7080000Y5460000D01*
X7030000Y5300000D01*
G01Y6020000D02*
X7090000Y5860000D01*
X7140000Y6020000D01*
G54D13*
G01X330000Y0D02*
X6270000D01*
G03X6600000Y330000I0J330000D01*
G01Y6270000D01*
G03X6270000Y6600000I-330000J0D01*
G01X330000D01*
G03X0Y6270000I0J-330000D01*
G01Y330000D01*
G03X330000Y0I330000J0D01*
G01X253890Y50000D02*
Y140000D01*
X279210Y65000D01*
X304530Y140000D01*
Y50000D01*
G01X337500D02*
Y140000D01*
G01X378400D02*
Y50000D01*
G01Y95000D02*
X337500D01*
G01X436690Y50000D02*
Y140000D01*
X425010Y122000D01*
G01Y50000D02*
X448370D01*
G01X243890Y1090000D02*
Y1180000D01*
X269210Y1105000D01*
X294530Y1180000D01*
Y1090000D01*
G01X328480D02*
Y1180000D01*
X351840D01*
X359630Y1175500D01*
X365480Y1165000D01*
X367420Y1153000D01*
X365480Y1141000D01*
X360610Y1132000D01*
X351840Y1127500D01*
X328480D01*
G01X408190Y1165000D02*
X414030Y1174000D01*
X420850Y1178500D01*
X428640Y1180000D01*
X438370Y1177000D01*
X445190Y1169500D01*
X447140Y1160500D01*
X446160Y1151500D01*
X442270Y1144000D01*
X422800Y1129000D01*
X414030Y1118500D01*
X408190Y1103500D01*
X406240Y1090000D01*
X447140D01*
G01X179740Y3628000D02*
X184610Y3619000D01*
X190450Y3613000D01*
X197260Y3610000D01*
X205050Y3613000D01*
X210890Y3619000D01*
X216740Y3628000D01*
X218680Y3640000D01*
Y3700000D01*
G01X277950Y3610000D02*
Y3700000D01*
X266270Y3682000D01*
G01Y3610000D02*
X289630D01*
G01X243890Y6470000D02*
Y6560000D01*
X269210Y6485000D01*
X294530Y6560000D01*
Y6470000D01*
G01X327500D02*
Y6560000D01*
G01X368400D02*
Y6470000D01*
G01Y6515000D02*
X327500D01*
G01X438370Y6470000D02*
Y6560000D01*
X402350Y6495500D01*
X451030D01*
G01X971600Y276740D02*
X881600D01*
Y301080D01*
X886100Y308870D01*
X892100Y313740D01*
X904100Y315680D01*
X916100Y313740D01*
X923600Y307890D01*
X928100Y301080D01*
Y276740D01*
G01Y301080D02*
X971600Y315680D01*
G01X896600Y356450D02*
X887600Y362290D01*
X883100Y369110D01*
X881600Y376900D01*
X884600Y386630D01*
X892100Y393450D01*
X901100Y395400D01*
X910100Y394420D01*
X917600Y390530D01*
X932600Y371060D01*
X943100Y362290D01*
X958100Y356450D01*
X971600Y354500D01*
Y395400D01*
G01Y453690D02*
X881600D01*
X899600Y442010D01*
G01X971600D02*
Y465370D01*
G01X607500Y950630D02*
X603000Y944790D01*
X600000Y937970D01*
Y930180D01*
X604500Y921420D01*
X612000Y914610D01*
X621000Y909740D01*
X636000Y905840D01*
X649500Y904870D01*
X663000Y906820D01*
X672000Y909740D01*
X681000Y915580D01*
X687000Y922390D01*
X690000Y929210D01*
Y936030D01*
X687000Y942840D01*
X682500Y948680D01*
X676500Y953550D01*
G01X672000Y986530D02*
X682500Y992370D01*
X688500Y1000160D01*
X690000Y1008920D01*
X688500Y1016710D01*
X681000Y1024500D01*
X672000Y1029370D01*
X663000Y1030340D01*
X652500Y1028400D01*
X645000Y1021580D01*
X642000Y1014770D01*
Y1006000D01*
G01Y1014770D02*
X637500Y1020610D01*
X630000Y1025480D01*
X621000Y1027420D01*
X612000Y1025480D01*
X604500Y1020610D01*
X600000Y1011840D01*
X601500Y1003080D01*
X607500Y994320D01*
G01X690000Y1086690D02*
X688500Y1093510D01*
X684000Y1101290D01*
X676500Y1106160D01*
X666000Y1108110D01*
X655500Y1106160D01*
X646500Y1100320D01*
X642000Y1091560D01*
Y1081820D01*
X639000Y1075980D01*
X631500Y1071110D01*
X621000Y1069160D01*
X610500Y1072090D01*
X603000Y1078900D01*
X600000Y1086690D01*
X603000Y1094480D01*
X610500Y1101290D01*
X621000Y1104220D01*
X631500Y1102270D01*
X639000Y1097400D01*
X642000Y1091560D01*
Y1081820D01*
X646500Y1073060D01*
X655500Y1067220D01*
X666000Y1065270D01*
X676500Y1067220D01*
X684000Y1072090D01*
X688500Y1079870D01*
X690000Y1086690D01*
G01X727500Y950630D02*
X723000Y944790D01*
X720000Y937970D01*
Y930180D01*
X724500Y921420D01*
X732000Y914610D01*
X741000Y909740D01*
X756000Y905840D01*
X769500Y904870D01*
X783000Y906820D01*
X792000Y909740D01*
X801000Y915580D01*
X807000Y922390D01*
X810000Y929210D01*
Y936030D01*
X807000Y942840D01*
X802500Y948680D01*
X796500Y953550D01*
G01X810000Y1019630D02*
X720000D01*
X784500Y983610D01*
Y1032290D01*
G01X796500Y1065270D02*
X804000Y1071110D01*
X808500Y1077930D01*
X810000Y1086690D01*
X807000Y1095450D01*
X801000Y1102270D01*
X790500Y1107140D01*
X778500Y1108110D01*
X766500Y1106160D01*
X759000Y1101290D01*
X753000Y1094480D01*
X751500Y1087660D01*
X753000Y1080850D01*
X759000Y1072090D01*
X720000Y1075010D01*
Y1101290D01*
G01X847500Y950630D02*
X843000Y944790D01*
X840000Y937970D01*
Y930180D01*
X844500Y921420D01*
X852000Y914610D01*
X861000Y909740D01*
X876000Y905840D01*
X889500Y904870D01*
X903000Y906820D01*
X912000Y909740D01*
X921000Y915580D01*
X927000Y922390D01*
X930000Y929210D01*
Y936030D01*
X927000Y942840D01*
X922500Y948680D01*
X916500Y953550D01*
G01X930000Y1019630D02*
X840000D01*
X904500Y983610D01*
Y1032290D01*
G01X892500Y1068190D02*
X882000Y1075010D01*
X876000Y1080850D01*
X873000Y1088640D01*
X876000Y1095450D01*
X882000Y1100320D01*
X891000Y1104220D01*
X901500Y1105190D01*
X910500Y1104220D01*
X919500Y1100320D01*
X927000Y1094480D01*
X930000Y1087660D01*
X927000Y1079870D01*
X918000Y1073060D01*
X904500Y1069160D01*
X889500Y1068190D01*
X870000Y1070140D01*
X859500Y1073060D01*
X849000Y1077930D01*
X841500Y1084740D01*
X840000Y1091560D01*
X843000Y1098370D01*
X850500Y1103240D01*
G01X971600Y576740D02*
X881600D01*
Y601080D01*
X886100Y608870D01*
X892100Y613740D01*
X904100Y615680D01*
X916100Y613740D01*
X923600Y607890D01*
X928100Y601080D01*
Y576740D01*
G01Y601080D02*
X971600Y615680D01*
G01Y674950D02*
X881600D01*
X899600Y663270D01*
G01X971600D02*
Y686630D01*
G01X961100Y737140D02*
X968600Y743950D01*
X971600Y751740D01*
X968600Y759530D01*
X959600Y766350D01*
X946100Y771220D01*
X932600Y773160D01*
X916100D01*
X902600Y771220D01*
X890600Y766350D01*
X884600Y760510D01*
X881600Y753690D01*
X884600Y745900D01*
X890600Y740060D01*
X899600Y736160D01*
X911600Y734220D01*
X922100Y736160D01*
X932600Y741030D01*
X938600Y746870D01*
X940100Y753690D01*
X937100Y761480D01*
X929600Y767320D01*
X916100Y773160D01*
G01X971600Y1756740D02*
X881600D01*
Y1781080D01*
X886100Y1788870D01*
X892100Y1793740D01*
X904100Y1795680D01*
X916100Y1793740D01*
X923600Y1787890D01*
X928100Y1781080D01*
Y1756740D01*
G01Y1781080D02*
X971600Y1795680D01*
G01Y1854950D02*
X881600D01*
X899600Y1843270D01*
G01X971600D02*
Y1866630D01*
G01X934100Y1915190D02*
X923600Y1922010D01*
X917600Y1927850D01*
X914600Y1935640D01*
X917600Y1942450D01*
X923600Y1947320D01*
X932600Y1951220D01*
X943100Y1952190D01*
X952100Y1951220D01*
X961100Y1947320D01*
X968600Y1941480D01*
X971600Y1934660D01*
X968600Y1926870D01*
X959600Y1920060D01*
X946100Y1916160D01*
X931100Y1915190D01*
X911600Y1917140D01*
X901100Y1920060D01*
X890600Y1924930D01*
X883100Y1931740D01*
X881600Y1938560D01*
X884600Y1945370D01*
X892100Y1950240D01*
G01X727500Y2430630D02*
X723000Y2424790D01*
X720000Y2417970D01*
Y2410180D01*
X724500Y2401420D01*
X732000Y2394610D01*
X741000Y2389740D01*
X756000Y2385840D01*
X769500Y2384870D01*
X783000Y2386820D01*
X792000Y2389740D01*
X801000Y2395580D01*
X807000Y2402390D01*
X810000Y2409210D01*
Y2416030D01*
X807000Y2422840D01*
X802500Y2428680D01*
X796500Y2433550D01*
G01X792000Y2466530D02*
X802500Y2472370D01*
X808500Y2480160D01*
X810000Y2488920D01*
X808500Y2496710D01*
X801000Y2504500D01*
X792000Y2509370D01*
X783000Y2510340D01*
X772500Y2508400D01*
X765000Y2501580D01*
X762000Y2494770D01*
Y2486000D01*
G01Y2494770D02*
X757500Y2500610D01*
X750000Y2505480D01*
X741000Y2507420D01*
X732000Y2505480D01*
X724500Y2500610D01*
X720000Y2491840D01*
X721500Y2483080D01*
X727500Y2474320D01*
G01X810000Y2566690D02*
X720000D01*
X738000Y2555010D01*
G01X810000D02*
Y2578370D01*
G01X840180Y2425990D02*
X835680Y2420150D01*
X832680Y2413330D01*
Y2405540D01*
X837180Y2396780D01*
X844680Y2389970D01*
X853680Y2385100D01*
X868680Y2381200D01*
X882180Y2380230D01*
X895680Y2382180D01*
X904680Y2385100D01*
X913680Y2390940D01*
X919680Y2397750D01*
X922680Y2404570D01*
Y2411390D01*
X919680Y2418200D01*
X915180Y2424040D01*
X909180Y2428910D01*
G01X904680Y2461890D02*
X915180Y2467730D01*
X921180Y2475520D01*
X922680Y2484280D01*
X921180Y2492070D01*
X913680Y2499860D01*
X904680Y2504730D01*
X895680Y2505700D01*
X885180Y2503760D01*
X877680Y2496940D01*
X874680Y2490130D01*
Y2481360D01*
G01Y2490130D02*
X870180Y2495970D01*
X862680Y2500840D01*
X853680Y2502780D01*
X844680Y2500840D01*
X837180Y2495970D01*
X832680Y2487200D01*
X834180Y2478440D01*
X840180Y2469680D01*
G01X847680Y2543550D02*
X838680Y2549390D01*
X834180Y2556210D01*
X832680Y2564000D01*
X835680Y2573730D01*
X843180Y2580550D01*
X852180Y2582500D01*
X861180Y2581520D01*
X868680Y2577630D01*
X883680Y2558160D01*
X894180Y2549390D01*
X909180Y2543550D01*
X922680Y2541600D01*
Y2582500D01*
G01X617500Y2430630D02*
X613000Y2424790D01*
X610000Y2417970D01*
Y2410180D01*
X614500Y2401420D01*
X622000Y2394610D01*
X631000Y2389740D01*
X646000Y2385840D01*
X659500Y2384870D01*
X673000Y2386820D01*
X682000Y2389740D01*
X691000Y2395580D01*
X697000Y2402390D01*
X700000Y2409210D01*
Y2416030D01*
X697000Y2422840D01*
X692500Y2428680D01*
X686500Y2433550D01*
G01X682000Y2466530D02*
X692500Y2472370D01*
X698500Y2480160D01*
X700000Y2488920D01*
X698500Y2496710D01*
X691000Y2504500D01*
X682000Y2509370D01*
X673000Y2510340D01*
X662500Y2508400D01*
X655000Y2501580D01*
X652000Y2494770D01*
Y2486000D01*
G01Y2494770D02*
X647500Y2500610D01*
X640000Y2505480D01*
X631000Y2507420D01*
X622000Y2505480D01*
X614500Y2500610D01*
X610000Y2491840D01*
X611500Y2483080D01*
X617500Y2474320D01*
G01X610000Y2566690D02*
X613000Y2558900D01*
X620500Y2553060D01*
X629500Y2549160D01*
X641500Y2546240D01*
X655000Y2545270D01*
X668500Y2546240D01*
X680500Y2549160D01*
X689500Y2553060D01*
X697000Y2558900D01*
X700000Y2566690D01*
X697000Y2574480D01*
X689500Y2580320D01*
X680500Y2584220D01*
X668500Y2587140D01*
X655000Y2588110D01*
X641500Y2587140D01*
X629500Y2584220D01*
X620500Y2580320D01*
X613000Y2574480D01*
X610000Y2566690D01*
G01X971600Y2056740D02*
X881600D01*
Y2081080D01*
X886100Y2088870D01*
X892100Y2093740D01*
X904100Y2095680D01*
X916100Y2093740D01*
X923600Y2087890D01*
X928100Y2081080D01*
Y2056740D01*
G01Y2081080D02*
X971600Y2095680D01*
G01Y2154950D02*
X881600D01*
X899600Y2143270D01*
G01X971600D02*
Y2166630D01*
G01X953600Y2212270D02*
X964100Y2218110D01*
X970100Y2225900D01*
X971600Y2234660D01*
X970100Y2242450D01*
X962600Y2250240D01*
X953600Y2255110D01*
X944600Y2256080D01*
X934100Y2254140D01*
X926600Y2247320D01*
X923600Y2240510D01*
Y2231740D01*
G01Y2240510D02*
X919100Y2246350D01*
X911600Y2251220D01*
X902600Y2253160D01*
X893600Y2251220D01*
X886100Y2246350D01*
X881600Y2237580D01*
X883100Y2228820D01*
X889100Y2220060D01*
G01X981600Y3596740D02*
X891600D01*
Y3621080D01*
X896100Y3628870D01*
X902100Y3633740D01*
X914100Y3635680D01*
X926100Y3633740D01*
X933600Y3627890D01*
X938100Y3621080D01*
Y3596740D01*
G01Y3621080D02*
X981600Y3635680D01*
G01Y3693000D02*
X962100Y3694950D01*
X945600Y3697870D01*
X930600Y3701770D01*
X914100Y3706630D01*
X891600Y3714420D01*
Y3675480D01*
G01X981600Y3296740D02*
X891600D01*
Y3321080D01*
X896100Y3328870D01*
X902100Y3333740D01*
X914100Y3335680D01*
X926100Y3333740D01*
X933600Y3327890D01*
X938100Y3321080D01*
Y3296740D01*
G01Y3321080D02*
X981600Y3335680D01*
G01Y3394950D02*
X891600D01*
X909600Y3383270D01*
G01X981600D02*
Y3406630D01*
G01X891600Y3473690D02*
X894600Y3465900D01*
X902100Y3460060D01*
X911100Y3456160D01*
X923100Y3453240D01*
X936600Y3452270D01*
X950100Y3453240D01*
X962100Y3456160D01*
X971100Y3460060D01*
X978600Y3465900D01*
X981600Y3473690D01*
X978600Y3481480D01*
X971100Y3487320D01*
X962100Y3491220D01*
X950100Y3494140D01*
X936600Y3495110D01*
X923100Y3494140D01*
X911100Y3491220D01*
X902100Y3487320D01*
X894600Y3481480D01*
X891600Y3473690D01*
G01X867500Y3910630D02*
X863000Y3904790D01*
X860000Y3897970D01*
Y3890180D01*
X864500Y3881420D01*
X872000Y3874610D01*
X881000Y3869740D01*
X896000Y3865840D01*
X909500Y3864870D01*
X923000Y3866820D01*
X932000Y3869740D01*
X941000Y3875580D01*
X947000Y3882390D01*
X950000Y3889210D01*
Y3896030D01*
X947000Y3902840D01*
X942500Y3908680D01*
X936500Y3913550D01*
G01X950000Y3967950D02*
X860000D01*
X878000Y3956270D01*
G01X950000D02*
Y3979630D01*
G01X932000Y4025270D02*
X942500Y4031110D01*
X948500Y4038900D01*
X950000Y4047660D01*
X948500Y4055450D01*
X941000Y4063240D01*
X932000Y4068110D01*
X923000Y4069080D01*
X912500Y4067140D01*
X905000Y4060320D01*
X902000Y4053510D01*
Y4044740D01*
G01Y4053510D02*
X897500Y4059350D01*
X890000Y4064220D01*
X881000Y4066160D01*
X872000Y4064220D01*
X864500Y4059350D01*
X860000Y4050580D01*
X861500Y4041820D01*
X867500Y4033060D01*
G01X747500Y3910630D02*
X743000Y3904790D01*
X740000Y3897970D01*
Y3890180D01*
X744500Y3881420D01*
X752000Y3874610D01*
X761000Y3869740D01*
X776000Y3865840D01*
X789500Y3864870D01*
X803000Y3866820D01*
X812000Y3869740D01*
X821000Y3875580D01*
X827000Y3882390D01*
X830000Y3889210D01*
Y3896030D01*
X827000Y3902840D01*
X822500Y3908680D01*
X816500Y3913550D01*
G01X830000Y3967950D02*
X740000D01*
X758000Y3956270D01*
G01X830000D02*
Y3979630D01*
G01Y4058370D02*
X740000D01*
X804500Y4022350D01*
Y4071030D01*
G01X627500Y3910630D02*
X623000Y3904790D01*
X620000Y3897970D01*
Y3890180D01*
X624500Y3881420D01*
X632000Y3874610D01*
X641000Y3869740D01*
X656000Y3865840D01*
X669500Y3864870D01*
X683000Y3866820D01*
X692000Y3869740D01*
X701000Y3875580D01*
X707000Y3882390D01*
X710000Y3889210D01*
Y3896030D01*
X707000Y3902840D01*
X702500Y3908680D01*
X696500Y3913550D01*
G01X710000Y3967950D02*
X620000D01*
X638000Y3956270D01*
G01X710000D02*
Y3979630D01*
G01X696500Y4025270D02*
X704000Y4031110D01*
X708500Y4037930D01*
X710000Y4046690D01*
X707000Y4055450D01*
X701000Y4062270D01*
X690500Y4067140D01*
X678500Y4068110D01*
X666500Y4066160D01*
X659000Y4061290D01*
X653000Y4054480D01*
X651500Y4047660D01*
X653000Y4040850D01*
X659000Y4032090D01*
X620000Y4035010D01*
Y4061290D01*
G01X981600Y5086740D02*
X891600D01*
Y5111080D01*
X896100Y5118870D01*
X902100Y5123740D01*
X914100Y5125680D01*
X926100Y5123740D01*
X933600Y5117890D01*
X938100Y5111080D01*
Y5086740D01*
G01Y5111080D02*
X981600Y5125680D01*
G01Y5184950D02*
X891600D01*
X909600Y5173270D01*
G01X981600D02*
Y5196630D01*
G01Y4786740D02*
X891600D01*
Y4811080D01*
X896100Y4818870D01*
X902100Y4823740D01*
X914100Y4825680D01*
X926100Y4823740D01*
X933600Y4817890D01*
X938100Y4811080D01*
Y4786740D01*
G01Y4811080D02*
X981600Y4825680D01*
G01X963600Y4863530D02*
X974100Y4869370D01*
X980100Y4877160D01*
X981600Y4885920D01*
X980100Y4893710D01*
X972600Y4901500D01*
X963600Y4906370D01*
X954600Y4907340D01*
X944100Y4905400D01*
X936600Y4898580D01*
X933600Y4891770D01*
Y4883000D01*
G01Y4891770D02*
X929100Y4897610D01*
X921600Y4902480D01*
X912600Y4904420D01*
X903600Y4902480D01*
X896100Y4897610D01*
X891600Y4888840D01*
X893100Y4880080D01*
X899100Y4871320D01*
G01X747500Y5400630D02*
X743000Y5394790D01*
X740000Y5387970D01*
Y5380180D01*
X744500Y5371420D01*
X752000Y5364610D01*
X761000Y5359740D01*
X776000Y5355840D01*
X789500Y5354870D01*
X803000Y5356820D01*
X812000Y5359740D01*
X821000Y5365580D01*
X827000Y5372390D01*
X830000Y5379210D01*
Y5386030D01*
X827000Y5392840D01*
X822500Y5398680D01*
X816500Y5403550D01*
G01X755000Y5439450D02*
X746000Y5445290D01*
X741500Y5452110D01*
X740000Y5459900D01*
X743000Y5469630D01*
X750500Y5476450D01*
X759500Y5478400D01*
X768500Y5477420D01*
X776000Y5473530D01*
X791000Y5454060D01*
X801500Y5445290D01*
X816500Y5439450D01*
X830000Y5437500D01*
Y5478400D01*
G01X627500Y5400630D02*
X623000Y5394790D01*
X620000Y5387970D01*
Y5380180D01*
X624500Y5371420D01*
X632000Y5364610D01*
X641000Y5359740D01*
X656000Y5355840D01*
X669500Y5354870D01*
X683000Y5356820D01*
X692000Y5359740D01*
X701000Y5365580D01*
X707000Y5372390D01*
X710000Y5379210D01*
Y5386030D01*
X707000Y5392840D01*
X702500Y5398680D01*
X696500Y5403550D01*
G01X692000Y5436530D02*
X702500Y5442370D01*
X708500Y5450160D01*
X710000Y5458920D01*
X708500Y5466710D01*
X701000Y5474500D01*
X692000Y5479370D01*
X683000Y5480340D01*
X672500Y5478400D01*
X665000Y5471580D01*
X662000Y5464770D01*
Y5456000D01*
G01Y5464770D02*
X657500Y5470610D01*
X650000Y5475480D01*
X641000Y5477420D01*
X632000Y5475480D01*
X624500Y5470610D01*
X620000Y5461840D01*
X621500Y5453080D01*
X627500Y5444320D01*
G01X867500Y5400630D02*
X863000Y5394790D01*
X860000Y5387970D01*
Y5380180D01*
X864500Y5371420D01*
X872000Y5364610D01*
X881000Y5359740D01*
X896000Y5355840D01*
X909500Y5354870D01*
X923000Y5356820D01*
X932000Y5359740D01*
X941000Y5365580D01*
X947000Y5372390D01*
X950000Y5379210D01*
Y5386030D01*
X947000Y5392840D01*
X942500Y5398680D01*
X936500Y5403550D01*
G01X950000Y5469630D02*
X860000D01*
X924500Y5433610D01*
Y5482290D01*
G01X860000Y5989740D02*
X950000D01*
Y6028680D01*
G01X936500Y6066530D02*
X944000Y6072370D01*
X948500Y6079190D01*
X950000Y6087950D01*
X947000Y6096710D01*
X941000Y6103530D01*
X930500Y6108400D01*
X918500Y6109370D01*
X906500Y6107420D01*
X899000Y6102550D01*
X893000Y6095740D01*
X891500Y6088920D01*
X893000Y6082110D01*
X899000Y6073350D01*
X860000Y6076270D01*
Y6102550D01*
G01X1327500Y640630D02*
X1323000Y634790D01*
X1320000Y627970D01*
Y620180D01*
X1324500Y611420D01*
X1332000Y604610D01*
X1341000Y599740D01*
X1356000Y595840D01*
X1369500Y594870D01*
X1383000Y596820D01*
X1392000Y599740D01*
X1401000Y605580D01*
X1407000Y612390D01*
X1410000Y619210D01*
Y626030D01*
X1407000Y632840D01*
X1402500Y638680D01*
X1396500Y643550D01*
G01X1410000Y709630D02*
X1320000D01*
X1384500Y673610D01*
Y722290D01*
G01X1410000Y776690D02*
X1408500Y783510D01*
X1404000Y791290D01*
X1396500Y796160D01*
X1386000Y798110D01*
X1375500Y796160D01*
X1366500Y790320D01*
X1362000Y781560D01*
Y771820D01*
X1359000Y765980D01*
X1351500Y761110D01*
X1341000Y759160D01*
X1330500Y762090D01*
X1323000Y768900D01*
X1320000Y776690D01*
X1323000Y784480D01*
X1330500Y791290D01*
X1341000Y794220D01*
X1351500Y792270D01*
X1359000Y787400D01*
X1362000Y781560D01*
Y771820D01*
X1366500Y763060D01*
X1375500Y757220D01*
X1386000Y755270D01*
X1396500Y757220D01*
X1404000Y762090D01*
X1408500Y769870D01*
X1410000Y776690D01*
G01X1327500Y2120630D02*
X1323000Y2114790D01*
X1320000Y2107970D01*
Y2100180D01*
X1324500Y2091420D01*
X1332000Y2084610D01*
X1341000Y2079740D01*
X1356000Y2075840D01*
X1369500Y2074870D01*
X1383000Y2076820D01*
X1392000Y2079740D01*
X1401000Y2085580D01*
X1407000Y2092390D01*
X1410000Y2099210D01*
Y2106030D01*
X1407000Y2112840D01*
X1402500Y2118680D01*
X1396500Y2123550D01*
G01X1392000Y2156530D02*
X1402500Y2162370D01*
X1408500Y2170160D01*
X1410000Y2178920D01*
X1408500Y2186710D01*
X1401000Y2194500D01*
X1392000Y2199370D01*
X1383000Y2200340D01*
X1372500Y2198400D01*
X1365000Y2191580D01*
X1362000Y2184770D01*
Y2176000D01*
G01Y2184770D02*
X1357500Y2190610D01*
X1350000Y2195480D01*
X1341000Y2197420D01*
X1332000Y2195480D01*
X1324500Y2190610D01*
X1320000Y2181840D01*
X1321500Y2173080D01*
X1327500Y2164320D01*
G01X1410000Y2268370D02*
X1320000D01*
X1384500Y2232350D01*
Y2281030D01*
G01X1337500Y3600630D02*
X1333000Y3594790D01*
X1330000Y3587970D01*
Y3580180D01*
X1334500Y3571420D01*
X1342000Y3564610D01*
X1351000Y3559740D01*
X1366000Y3555840D01*
X1379500Y3554870D01*
X1393000Y3556820D01*
X1402000Y3559740D01*
X1411000Y3565580D01*
X1417000Y3572390D01*
X1420000Y3579210D01*
Y3586030D01*
X1417000Y3592840D01*
X1412500Y3598680D01*
X1406500Y3603550D01*
G01X1345000Y3639450D02*
X1336000Y3645290D01*
X1331500Y3652110D01*
X1330000Y3659900D01*
X1333000Y3669630D01*
X1340500Y3676450D01*
X1349500Y3678400D01*
X1358500Y3677420D01*
X1366000Y3673530D01*
X1381000Y3654060D01*
X1391500Y3645290D01*
X1406500Y3639450D01*
X1420000Y3637500D01*
Y3678400D01*
G01X1330000Y3736690D02*
X1333000Y3728900D01*
X1340500Y3723060D01*
X1349500Y3719160D01*
X1361500Y3716240D01*
X1375000Y3715270D01*
X1388500Y3716240D01*
X1400500Y3719160D01*
X1409500Y3723060D01*
X1417000Y3728900D01*
X1420000Y3736690D01*
X1417000Y3744480D01*
X1409500Y3750320D01*
X1400500Y3754220D01*
X1388500Y3757140D01*
X1375000Y3758110D01*
X1361500Y3757140D01*
X1349500Y3754220D01*
X1340500Y3750320D01*
X1333000Y3744480D01*
X1330000Y3736690D01*
G01X1337500Y5090630D02*
X1333000Y5084790D01*
X1330000Y5077970D01*
Y5070180D01*
X1334500Y5061420D01*
X1342000Y5054610D01*
X1351000Y5049740D01*
X1366000Y5045840D01*
X1379500Y5044870D01*
X1393000Y5046820D01*
X1402000Y5049740D01*
X1411000Y5055580D01*
X1417000Y5062390D01*
X1420000Y5069210D01*
Y5076030D01*
X1417000Y5082840D01*
X1412500Y5088680D01*
X1406500Y5093550D01*
G01X1409500Y5131400D02*
X1417000Y5138210D01*
X1420000Y5146000D01*
X1417000Y5153790D01*
X1408000Y5160610D01*
X1394500Y5165480D01*
X1381000Y5167420D01*
X1364500D01*
X1351000Y5165480D01*
X1339000Y5160610D01*
X1333000Y5154770D01*
X1330000Y5147950D01*
X1333000Y5140160D01*
X1339000Y5134320D01*
X1348000Y5130420D01*
X1360000Y5128480D01*
X1370500Y5130420D01*
X1381000Y5135290D01*
X1387000Y5141130D01*
X1388500Y5147950D01*
X1385500Y5155740D01*
X1378000Y5161580D01*
X1364500Y5167420D01*
G01X1140800Y6150000D02*
X1039200D01*
G01X998560Y6335420D02*
X1181440D01*
Y5964580D01*
X998560D01*
Y6335420D01*
G01X1957790Y470000D02*
Y405500D01*
X1961680Y392000D01*
X1969470Y383000D01*
X1979210Y380000D01*
X1988950Y383000D01*
X1996740Y392000D01*
X2000630Y405500D01*
Y470000D01*
G01X2036530Y393500D02*
X2042370Y386000D01*
X2049190Y381500D01*
X2057950Y380000D01*
X2066710Y383000D01*
X2073530Y389000D01*
X2078400Y399500D01*
X2079370Y411500D01*
X2077420Y423500D01*
X2072550Y431000D01*
X2065740Y437000D01*
X2058920Y438500D01*
X2052110Y437000D01*
X2043350Y431000D01*
X2046270Y470000D01*
X2072550D01*
G01X1600000Y599740D02*
X1510000D01*
Y624080D01*
X1514500Y631870D01*
X1520500Y636740D01*
X1532500Y638680D01*
X1544500Y636740D01*
X1552000Y630890D01*
X1556500Y624080D01*
Y599740D01*
G01Y624080D02*
X1600000Y638680D01*
G01X1525000Y679450D02*
X1516000Y685290D01*
X1511500Y692110D01*
X1510000Y699900D01*
X1513000Y709630D01*
X1520500Y716450D01*
X1529500Y718400D01*
X1538500Y717420D01*
X1546000Y713530D01*
X1561000Y694060D01*
X1571500Y685290D01*
X1586500Y679450D01*
X1600000Y677500D01*
Y718400D01*
G01X1525000Y758190D02*
X1516000Y764030D01*
X1511500Y770850D01*
X1510000Y778640D01*
X1513000Y788370D01*
X1520500Y795190D01*
X1529500Y797140D01*
X1538500Y796160D01*
X1546000Y792270D01*
X1561000Y772800D01*
X1571500Y764030D01*
X1586500Y758190D01*
X1600000Y756240D01*
Y797140D01*
G01X1957790Y1950000D02*
Y1885500D01*
X1961680Y1872000D01*
X1969470Y1863000D01*
X1979210Y1860000D01*
X1988950Y1863000D01*
X1996740Y1872000D01*
X2000630Y1885500D01*
Y1950000D01*
G01X2036530Y1878000D02*
X2042370Y1867500D01*
X2050160Y1861500D01*
X2058920Y1860000D01*
X2066710Y1861500D01*
X2074500Y1869000D01*
X2079370Y1878000D01*
X2080340Y1887000D01*
X2078400Y1897500D01*
X2071580Y1905000D01*
X2064770Y1908000D01*
X2056000D01*
G01X2064770D02*
X2070610Y1912500D01*
X2075480Y1920000D01*
X2077420Y1929000D01*
X2075480Y1938000D01*
X2070610Y1945500D01*
X2061840Y1950000D01*
X2053080Y1948500D01*
X2044320Y1942500D01*
G01X1600000Y2079740D02*
X1510000D01*
Y2104080D01*
X1514500Y2111870D01*
X1520500Y2116740D01*
X1532500Y2118680D01*
X1544500Y2116740D01*
X1552000Y2110890D01*
X1556500Y2104080D01*
Y2079740D01*
G01Y2104080D02*
X1600000Y2118680D01*
G01Y2177950D02*
X1510000D01*
X1528000Y2166270D01*
G01X1600000D02*
Y2189630D01*
G01Y2254740D02*
X1580500Y2256690D01*
X1564000Y2259610D01*
X1549000Y2263510D01*
X1532500Y2268370D01*
X1510000Y2276160D01*
Y2237220D01*
G01X1977790Y3450000D02*
Y3385500D01*
X1981680Y3372000D01*
X1989470Y3363000D01*
X1999210Y3360000D01*
X2008950Y3363000D01*
X2016740Y3372000D01*
X2020630Y3385500D01*
Y3450000D01*
G01X2059450Y3435000D02*
X2065290Y3444000D01*
X2072110Y3448500D01*
X2079900Y3450000D01*
X2089630Y3447000D01*
X2096450Y3439500D01*
X2098400Y3430500D01*
X2097420Y3421500D01*
X2093530Y3414000D01*
X2074060Y3399000D01*
X2065290Y3388500D01*
X2059450Y3373500D01*
X2057500Y3360000D01*
X2098400D01*
G01X1620000Y3559740D02*
X1530000D01*
Y3584080D01*
X1534500Y3591870D01*
X1540500Y3596740D01*
X1552500Y3598680D01*
X1564500Y3596740D01*
X1572000Y3590890D01*
X1576500Y3584080D01*
Y3559740D01*
G01Y3584080D02*
X1620000Y3598680D01*
G01Y3657950D02*
X1530000D01*
X1548000Y3646270D01*
G01X1620000D02*
Y3669630D01*
G01Y3736690D02*
X1530000D01*
X1548000Y3725010D01*
G01X1620000D02*
Y3748370D01*
G01X1987790Y4940000D02*
Y4875500D01*
X1991680Y4862000D01*
X1999470Y4853000D01*
X2009210Y4850000D01*
X2018950Y4853000D01*
X2026740Y4862000D01*
X2030630Y4875500D01*
Y4940000D01*
G01X2087950Y4850000D02*
Y4940000D01*
X2076270Y4922000D01*
G01Y4850000D02*
X2099630D01*
G01X1620000Y5049740D02*
X1530000D01*
Y5074080D01*
X1534500Y5081870D01*
X1540500Y5086740D01*
X1552500Y5088680D01*
X1564500Y5086740D01*
X1572000Y5080890D01*
X1576500Y5074080D01*
Y5049740D01*
G01Y5074080D02*
X1620000Y5088680D01*
G01X1606500Y5126530D02*
X1614000Y5132370D01*
X1618500Y5139190D01*
X1620000Y5147950D01*
X1617000Y5156710D01*
X1611000Y5163530D01*
X1600500Y5168400D01*
X1588500Y5169370D01*
X1576500Y5167420D01*
X1569000Y5162550D01*
X1563000Y5155740D01*
X1561500Y5148920D01*
X1563000Y5142110D01*
X1569000Y5133350D01*
X1530000Y5136270D01*
Y5162550D01*
G01X2167500Y300630D02*
X2163000Y294790D01*
X2160000Y287970D01*
Y280180D01*
X2164500Y271420D01*
X2172000Y264610D01*
X2181000Y259740D01*
X2196000Y255840D01*
X2209500Y254870D01*
X2223000Y256820D01*
X2232000Y259740D01*
X2241000Y265580D01*
X2247000Y272390D01*
X2250000Y279210D01*
Y286030D01*
X2247000Y292840D01*
X2242500Y298680D01*
X2236500Y303550D01*
G01X2250000Y369630D02*
X2160000D01*
X2224500Y333610D01*
Y382290D01*
G01X2239500Y420140D02*
X2247000Y426950D01*
X2250000Y434740D01*
X2247000Y442530D01*
X2238000Y449350D01*
X2224500Y454220D01*
X2211000Y456160D01*
X2194500D01*
X2181000Y454220D01*
X2169000Y449350D01*
X2163000Y443510D01*
X2160000Y436690D01*
X2163000Y428900D01*
X2169000Y423060D01*
X2178000Y419160D01*
X2190000Y417220D01*
X2200500Y419160D01*
X2211000Y424030D01*
X2217000Y429870D01*
X2218500Y436690D01*
X2215500Y444480D01*
X2208000Y450320D01*
X2194500Y456160D01*
G01X2537500Y300630D02*
X2533000Y294790D01*
X2530000Y287970D01*
Y280180D01*
X2534500Y271420D01*
X2542000Y264610D01*
X2551000Y259740D01*
X2566000Y255840D01*
X2579500Y254870D01*
X2593000Y256820D01*
X2602000Y259740D01*
X2611000Y265580D01*
X2617000Y272390D01*
X2620000Y279210D01*
Y286030D01*
X2617000Y292840D01*
X2612500Y298680D01*
X2606500Y303550D01*
G01Y336530D02*
X2614000Y342370D01*
X2618500Y349190D01*
X2620000Y357950D01*
X2617000Y366710D01*
X2611000Y373530D01*
X2600500Y378400D01*
X2588500Y379370D01*
X2576500Y377420D01*
X2569000Y372550D01*
X2563000Y365740D01*
X2561500Y358920D01*
X2563000Y352110D01*
X2569000Y343350D01*
X2530000Y346270D01*
Y372550D01*
G01Y436690D02*
X2533000Y428900D01*
X2540500Y423060D01*
X2549500Y419160D01*
X2561500Y416240D01*
X2575000Y415270D01*
X2588500Y416240D01*
X2600500Y419160D01*
X2609500Y423060D01*
X2617000Y428900D01*
X2620000Y436690D01*
X2617000Y444480D01*
X2609500Y450320D01*
X2600500Y454220D01*
X2588500Y457140D01*
X2575000Y458110D01*
X2561500Y457140D01*
X2549500Y454220D01*
X2540500Y450320D01*
X2533000Y444480D01*
X2530000Y436690D01*
G01X2299740Y260000D02*
Y350000D01*
X2324080D01*
X2331870Y345500D01*
X2336740Y339500D01*
X2338680Y327500D01*
X2336740Y315500D01*
X2330890Y308000D01*
X2324080Y303500D01*
X2299740D01*
G01X2324080D02*
X2338680Y260000D01*
G01X2379450Y335000D02*
X2385290Y344000D01*
X2392110Y348500D01*
X2399900Y350000D01*
X2409630Y347000D01*
X2416450Y339500D01*
X2418400Y330500D01*
X2417420Y321500D01*
X2413530Y314000D01*
X2394060Y299000D01*
X2385290Y288500D01*
X2379450Y273500D01*
X2377500Y260000D01*
X2418400D01*
G01X2488370D02*
Y350000D01*
X2452350Y285500D01*
X2501030D01*
G01X2280630Y1022500D02*
X2274790Y1027000D01*
X2267970Y1030000D01*
X2260180D01*
X2251420Y1025500D01*
X2244610Y1018000D01*
X2239740Y1009000D01*
X2235840Y994000D01*
X2234870Y980500D01*
X2236820Y967000D01*
X2239740Y958000D01*
X2245580Y949000D01*
X2252390Y943000D01*
X2259210Y940000D01*
X2266030D01*
X2272840Y943000D01*
X2278680Y947500D01*
X2283550Y953500D01*
G01X2316530Y958000D02*
X2322370Y947500D01*
X2330160Y941500D01*
X2338920Y940000D01*
X2346710Y941500D01*
X2354500Y949000D01*
X2359370Y958000D01*
X2360340Y967000D01*
X2358400Y977500D01*
X2351580Y985000D01*
X2344770Y988000D01*
X2336000D01*
G01X2344770D02*
X2350610Y992500D01*
X2355480Y1000000D01*
X2357420Y1009000D01*
X2355480Y1018000D01*
X2350610Y1025500D01*
X2341840Y1030000D01*
X2333080Y1028500D01*
X2324320Y1022500D01*
G01X2414740Y940000D02*
X2416690Y959500D01*
X2419610Y976000D01*
X2423510Y991000D01*
X2428370Y1007500D01*
X2436160Y1030000D01*
X2397220D01*
G01X2347790Y1150000D02*
Y1240000D01*
X2367260D01*
X2375050Y1235500D01*
X2380890Y1229500D01*
X2385760Y1220500D01*
X2389660Y1210000D01*
X2390630Y1195000D01*
X2389660Y1180000D01*
X2385760Y1169500D01*
X2380890Y1160500D01*
X2375050Y1154500D01*
X2367260Y1150000D01*
X2347790D01*
G01X2459630D02*
Y1240000D01*
X2423610Y1175500D01*
X2472290D01*
G01X2177500Y1780630D02*
X2173000Y1774790D01*
X2170000Y1767970D01*
Y1760180D01*
X2174500Y1751420D01*
X2182000Y1744610D01*
X2191000Y1739740D01*
X2206000Y1735840D01*
X2219500Y1734870D01*
X2233000Y1736820D01*
X2242000Y1739740D01*
X2251000Y1745580D01*
X2257000Y1752390D01*
X2260000Y1759210D01*
Y1766030D01*
X2257000Y1772840D01*
X2252500Y1778680D01*
X2246500Y1783550D01*
G01X2242000Y1816530D02*
X2252500Y1822370D01*
X2258500Y1830160D01*
X2260000Y1838920D01*
X2258500Y1846710D01*
X2251000Y1854500D01*
X2242000Y1859370D01*
X2233000Y1860340D01*
X2222500Y1858400D01*
X2215000Y1851580D01*
X2212000Y1844770D01*
Y1836000D01*
G01Y1844770D02*
X2207500Y1850610D01*
X2200000Y1855480D01*
X2191000Y1857420D01*
X2182000Y1855480D01*
X2174500Y1850610D01*
X2170000Y1841840D01*
X2171500Y1833080D01*
X2177500Y1824320D01*
G01X2246500Y1895270D02*
X2254000Y1901110D01*
X2258500Y1907930D01*
X2260000Y1916690D01*
X2257000Y1925450D01*
X2251000Y1932270D01*
X2240500Y1937140D01*
X2228500Y1938110D01*
X2216500Y1936160D01*
X2209000Y1931290D01*
X2203000Y1924480D01*
X2201500Y1917660D01*
X2203000Y1910850D01*
X2209000Y1902090D01*
X2170000Y1905010D01*
Y1931290D01*
G01X2527500Y1780630D02*
X2523000Y1774790D01*
X2520000Y1767970D01*
Y1760180D01*
X2524500Y1751420D01*
X2532000Y1744610D01*
X2541000Y1739740D01*
X2556000Y1735840D01*
X2569500Y1734870D01*
X2583000Y1736820D01*
X2592000Y1739740D01*
X2601000Y1745580D01*
X2607000Y1752390D01*
X2610000Y1759210D01*
Y1766030D01*
X2607000Y1772840D01*
X2602500Y1778680D01*
X2596500Y1783550D01*
G01X2592000Y1816530D02*
X2602500Y1822370D01*
X2608500Y1830160D01*
X2610000Y1838920D01*
X2608500Y1846710D01*
X2601000Y1854500D01*
X2592000Y1859370D01*
X2583000Y1860340D01*
X2572500Y1858400D01*
X2565000Y1851580D01*
X2562000Y1844770D01*
Y1836000D01*
G01Y1844770D02*
X2557500Y1850610D01*
X2550000Y1855480D01*
X2541000Y1857420D01*
X2532000Y1855480D01*
X2524500Y1850610D01*
X2520000Y1841840D01*
X2521500Y1833080D01*
X2527500Y1824320D01*
G01X2572500Y1898190D02*
X2562000Y1905010D01*
X2556000Y1910850D01*
X2553000Y1918640D01*
X2556000Y1925450D01*
X2562000Y1930320D01*
X2571000Y1934220D01*
X2581500Y1935190D01*
X2590500Y1934220D01*
X2599500Y1930320D01*
X2607000Y1924480D01*
X2610000Y1917660D01*
X2607000Y1909870D01*
X2598000Y1903060D01*
X2584500Y1899160D01*
X2569500Y1898190D01*
X2550000Y1900140D01*
X2539500Y1903060D01*
X2529000Y1907930D01*
X2521500Y1914740D01*
X2520000Y1921560D01*
X2523000Y1928370D01*
X2530500Y1933240D01*
G01X2289740Y1740000D02*
Y1830000D01*
X2314080D01*
X2321870Y1825500D01*
X2326740Y1819500D01*
X2328680Y1807500D01*
X2326740Y1795500D01*
X2320890Y1788000D01*
X2314080Y1783500D01*
X2289740D01*
G01X2314080D02*
X2328680Y1740000D01*
G01X2387950D02*
Y1830000D01*
X2376270Y1812000D01*
G01Y1740000D02*
X2399630D01*
G01X2445270Y1753500D02*
X2451110Y1746000D01*
X2457930Y1741500D01*
X2466690Y1740000D01*
X2475450Y1743000D01*
X2482270Y1749000D01*
X2487140Y1759500D01*
X2488110Y1771500D01*
X2486160Y1783500D01*
X2481290Y1791000D01*
X2474480Y1797000D01*
X2467660Y1798500D01*
X2460850Y1797000D01*
X2452090Y1791000D01*
X2455010Y1830000D01*
X2481290D01*
G01X2459740Y1630000D02*
Y1540000D01*
X2498680D01*
G01X2569630D02*
Y1630000D01*
X2533610Y1565500D01*
X2582290D01*
G01X2280630Y2502500D02*
X2274790Y2507000D01*
X2267970Y2510000D01*
X2260180D01*
X2251420Y2505500D01*
X2244610Y2498000D01*
X2239740Y2489000D01*
X2235840Y2474000D01*
X2234870Y2460500D01*
X2236820Y2447000D01*
X2239740Y2438000D01*
X2245580Y2429000D01*
X2252390Y2423000D01*
X2259210Y2420000D01*
X2266030D01*
X2272840Y2423000D01*
X2278680Y2427500D01*
X2283550Y2433500D01*
G01X2319450Y2495000D02*
X2325290Y2504000D01*
X2332110Y2508500D01*
X2339900Y2510000D01*
X2349630Y2507000D01*
X2356450Y2499500D01*
X2358400Y2490500D01*
X2357420Y2481500D01*
X2353530Y2474000D01*
X2334060Y2459000D01*
X2325290Y2448500D01*
X2319450Y2433500D01*
X2317500Y2420000D01*
X2358400D01*
G01X2395270Y2438000D02*
X2401110Y2427500D01*
X2408900Y2421500D01*
X2417660Y2420000D01*
X2425450Y2421500D01*
X2433240Y2429000D01*
X2438110Y2438000D01*
X2439080Y2447000D01*
X2437140Y2457500D01*
X2430320Y2465000D01*
X2423510Y2468000D01*
X2414740D01*
G01X2423510D02*
X2429350Y2472500D01*
X2434220Y2480000D01*
X2436160Y2489000D01*
X2434220Y2498000D01*
X2429350Y2505500D01*
X2420580Y2510000D01*
X2411820Y2508500D01*
X2403060Y2502500D01*
G01X2347790Y2630000D02*
Y2720000D01*
X2367260D01*
X2375050Y2715500D01*
X2380890Y2709500D01*
X2385760Y2700500D01*
X2389660Y2690000D01*
X2390630Y2675000D01*
X2389660Y2660000D01*
X2385760Y2649500D01*
X2380890Y2640500D01*
X2375050Y2634500D01*
X2367260Y2630000D01*
X2347790D01*
G01X2426530Y2648000D02*
X2432370Y2637500D01*
X2440160Y2631500D01*
X2448920Y2630000D01*
X2456710Y2631500D01*
X2464500Y2639000D01*
X2469370Y2648000D01*
X2470340Y2657000D01*
X2468400Y2667500D01*
X2461580Y2675000D01*
X2454770Y2678000D01*
X2446000D01*
G01X2454770D02*
X2460610Y2682500D01*
X2465480Y2690000D01*
X2467420Y2699000D01*
X2465480Y2708000D01*
X2460610Y2715500D01*
X2451840Y2720000D01*
X2443080Y2718500D01*
X2434320Y2712500D01*
G01X2459740Y3110000D02*
Y3020000D01*
X2498680D01*
G01X2536530Y3038000D02*
X2542370Y3027500D01*
X2550160Y3021500D01*
X2558920Y3020000D01*
X2566710Y3021500D01*
X2574500Y3029000D01*
X2579370Y3038000D01*
X2580340Y3047000D01*
X2578400Y3057500D01*
X2571580Y3065000D01*
X2564770Y3068000D01*
X2556000D01*
G01X2564770D02*
X2570610Y3072500D01*
X2575480Y3080000D01*
X2577420Y3089000D01*
X2575480Y3098000D01*
X2570610Y3105500D01*
X2561840Y3110000D01*
X2553080Y3108500D01*
X2544320Y3102500D01*
G01X2237500Y3250630D02*
X2233000Y3244790D01*
X2230000Y3237970D01*
Y3230180D01*
X2234500Y3221420D01*
X2242000Y3214610D01*
X2251000Y3209740D01*
X2266000Y3205840D01*
X2279500Y3204870D01*
X2293000Y3206820D01*
X2302000Y3209740D01*
X2311000Y3215580D01*
X2317000Y3222390D01*
X2320000Y3229210D01*
Y3236030D01*
X2317000Y3242840D01*
X2312500Y3248680D01*
X2306500Y3253550D01*
G01X2245000Y3289450D02*
X2236000Y3295290D01*
X2231500Y3302110D01*
X2230000Y3309900D01*
X2233000Y3319630D01*
X2240500Y3326450D01*
X2249500Y3328400D01*
X2258500Y3327420D01*
X2266000Y3323530D01*
X2281000Y3304060D01*
X2291500Y3295290D01*
X2306500Y3289450D01*
X2320000Y3287500D01*
Y3328400D01*
G01Y3386690D02*
X2230000D01*
X2248000Y3375010D01*
G01X2320000D02*
Y3398370D01*
G01X2527500Y3250630D02*
X2523000Y3244790D01*
X2520000Y3237970D01*
Y3230180D01*
X2524500Y3221420D01*
X2532000Y3214610D01*
X2541000Y3209740D01*
X2556000Y3205840D01*
X2569500Y3204870D01*
X2583000Y3206820D01*
X2592000Y3209740D01*
X2601000Y3215580D01*
X2607000Y3222390D01*
X2610000Y3229210D01*
Y3236030D01*
X2607000Y3242840D01*
X2602500Y3248680D01*
X2596500Y3253550D01*
G01X2535000Y3289450D02*
X2526000Y3295290D01*
X2521500Y3302110D01*
X2520000Y3309900D01*
X2523000Y3319630D01*
X2530500Y3326450D01*
X2539500Y3328400D01*
X2548500Y3327420D01*
X2556000Y3323530D01*
X2571000Y3304060D01*
X2581500Y3295290D01*
X2596500Y3289450D01*
X2610000Y3287500D01*
Y3328400D01*
G01X2535000Y3368190D02*
X2526000Y3374030D01*
X2521500Y3380850D01*
X2520000Y3388640D01*
X2523000Y3398370D01*
X2530500Y3405190D01*
X2539500Y3407140D01*
X2548500Y3406160D01*
X2556000Y3402270D01*
X2571000Y3382800D01*
X2581500Y3374030D01*
X2596500Y3368190D01*
X2610000Y3366240D01*
Y3407140D01*
G01X2359740Y3300000D02*
Y3390000D01*
X2384080D01*
X2391870Y3385500D01*
X2396740Y3379500D01*
X2398680Y3367500D01*
X2396740Y3355500D01*
X2390890Y3348000D01*
X2384080Y3343500D01*
X2359740D01*
G01X2384080D02*
X2398680Y3300000D01*
G01X2441400Y3310500D02*
X2448210Y3303000D01*
X2456000Y3300000D01*
X2463790Y3303000D01*
X2470610Y3312000D01*
X2475480Y3325500D01*
X2477420Y3339000D01*
Y3355500D01*
X2475480Y3369000D01*
X2470610Y3381000D01*
X2464770Y3387000D01*
X2457950Y3390000D01*
X2450160Y3387000D01*
X2444320Y3381000D01*
X2440420Y3372000D01*
X2438480Y3360000D01*
X2440420Y3349500D01*
X2445290Y3339000D01*
X2451130Y3333000D01*
X2457950Y3331500D01*
X2465740Y3334500D01*
X2471580Y3342000D01*
X2477420Y3355500D01*
G01X2300630Y3982500D02*
X2294790Y3987000D01*
X2287970Y3990000D01*
X2280180D01*
X2271420Y3985500D01*
X2264610Y3978000D01*
X2259740Y3969000D01*
X2255840Y3954000D01*
X2254870Y3940500D01*
X2256820Y3927000D01*
X2259740Y3918000D01*
X2265580Y3909000D01*
X2272390Y3903000D01*
X2279210Y3900000D01*
X2286030D01*
X2292840Y3903000D01*
X2298680Y3907500D01*
X2303550Y3913500D01*
G01X2357950Y3900000D02*
Y3990000D01*
X2346270Y3972000D01*
G01Y3900000D02*
X2369630D01*
G01X2418190Y3975000D02*
X2424030Y3984000D01*
X2430850Y3988500D01*
X2438640Y3990000D01*
X2448370Y3987000D01*
X2455190Y3979500D01*
X2457140Y3970500D01*
X2456160Y3961500D01*
X2452270Y3954000D01*
X2432800Y3939000D01*
X2424030Y3928500D01*
X2418190Y3913500D01*
X2416240Y3900000D01*
X2457140D01*
G01X2357790Y4110000D02*
Y4200000D01*
X2377260D01*
X2385050Y4195500D01*
X2390890Y4189500D01*
X2395760Y4180500D01*
X2399660Y4170000D01*
X2400630Y4155000D01*
X2399660Y4140000D01*
X2395760Y4129500D01*
X2390890Y4120500D01*
X2385050Y4114500D01*
X2377260Y4110000D01*
X2357790D01*
G01X2439450Y4185000D02*
X2445290Y4194000D01*
X2452110Y4198500D01*
X2459900Y4200000D01*
X2469630Y4197000D01*
X2476450Y4189500D01*
X2478400Y4180500D01*
X2477420Y4171500D01*
X2473530Y4164000D01*
X2454060Y4149000D01*
X2445290Y4138500D01*
X2439450Y4123500D01*
X2437500Y4110000D01*
X2478400D01*
G01X2237500Y4760630D02*
X2233000Y4754790D01*
X2230000Y4747970D01*
Y4740180D01*
X2234500Y4731420D01*
X2242000Y4724610D01*
X2251000Y4719740D01*
X2266000Y4715840D01*
X2279500Y4714870D01*
X2293000Y4716820D01*
X2302000Y4719740D01*
X2311000Y4725580D01*
X2317000Y4732390D01*
X2320000Y4739210D01*
Y4746030D01*
X2317000Y4752840D01*
X2312500Y4758680D01*
X2306500Y4763550D01*
G01X2320000Y4817950D02*
X2230000D01*
X2248000Y4806270D01*
G01X2320000D02*
Y4829630D01*
G01X2230000Y4896690D02*
X2233000Y4888900D01*
X2240500Y4883060D01*
X2249500Y4879160D01*
X2261500Y4876240D01*
X2275000Y4875270D01*
X2288500Y4876240D01*
X2300500Y4879160D01*
X2309500Y4883060D01*
X2317000Y4888900D01*
X2320000Y4896690D01*
X2317000Y4904480D01*
X2309500Y4910320D01*
X2300500Y4914220D01*
X2288500Y4917140D01*
X2275000Y4918110D01*
X2261500Y4917140D01*
X2249500Y4914220D01*
X2240500Y4910320D01*
X2233000Y4904480D01*
X2230000Y4896690D01*
G01X2527500Y4760630D02*
X2523000Y4754790D01*
X2520000Y4747970D01*
Y4740180D01*
X2524500Y4731420D01*
X2532000Y4724610D01*
X2541000Y4719740D01*
X2556000Y4715840D01*
X2569500Y4714870D01*
X2583000Y4716820D01*
X2592000Y4719740D01*
X2601000Y4725580D01*
X2607000Y4732390D01*
X2610000Y4739210D01*
Y4746030D01*
X2607000Y4752840D01*
X2602500Y4758680D01*
X2596500Y4763550D01*
G01X2610000Y4817950D02*
X2520000D01*
X2538000Y4806270D01*
G01X2610000D02*
Y4829630D01*
G01Y4896690D02*
X2520000D01*
X2538000Y4885010D01*
G01X2610000D02*
Y4908370D01*
G01X2479740Y4580000D02*
Y4490000D01*
X2518680D01*
G01X2559450Y4565000D02*
X2565290Y4574000D01*
X2572110Y4578500D01*
X2579900Y4580000D01*
X2589630Y4577000D01*
X2596450Y4569500D01*
X2598400Y4560500D01*
X2597420Y4551500D01*
X2593530Y4544000D01*
X2574060Y4529000D01*
X2565290Y4518500D01*
X2559450Y4503500D01*
X2557500Y4490000D01*
X2598400D01*
G01X2359740Y4810000D02*
Y4900000D01*
X2384080D01*
X2391870Y4895500D01*
X2396740Y4889500D01*
X2398680Y4877500D01*
X2396740Y4865500D01*
X2390890Y4858000D01*
X2384080Y4853500D01*
X2359740D01*
G01X2384080D02*
X2398680Y4810000D01*
G01X2469630D02*
Y4900000D01*
X2433610Y4835500D01*
X2482290D01*
G01X2300630Y5472500D02*
X2294790Y5477000D01*
X2287970Y5480000D01*
X2280180D01*
X2271420Y5475500D01*
X2264610Y5468000D01*
X2259740Y5459000D01*
X2255840Y5444000D01*
X2254870Y5430500D01*
X2256820Y5417000D01*
X2259740Y5408000D01*
X2265580Y5399000D01*
X2272390Y5393000D01*
X2279210Y5390000D01*
X2286030D01*
X2292840Y5393000D01*
X2298680Y5397500D01*
X2303550Y5403500D01*
G01X2357950Y5390000D02*
Y5480000D01*
X2346270Y5462000D01*
G01Y5390000D02*
X2369630D01*
G01X2357790Y5600000D02*
Y5690000D01*
X2377260D01*
X2385050Y5685500D01*
X2390890Y5679500D01*
X2395760Y5670500D01*
X2399660Y5660000D01*
X2400630Y5645000D01*
X2399660Y5630000D01*
X2395760Y5619500D01*
X2390890Y5610500D01*
X2385050Y5604500D01*
X2377260Y5600000D01*
X2357790D01*
G01X2457950D02*
Y5690000D01*
X2446270Y5672000D01*
G01Y5600000D02*
X2469630D01*
G01X2499740Y6070000D02*
Y5980000D01*
X2538680D01*
G01X2597950D02*
Y6070000D01*
X2586270Y6052000D01*
G01Y5980000D02*
X2609630D01*
G01X3900000Y269740D02*
X3810000D01*
Y294080D01*
X3814500Y301870D01*
X3820500Y306740D01*
X3832500Y308680D01*
X3844500Y306740D01*
X3852000Y300890D01*
X3856500Y294080D01*
Y269740D01*
G01Y294080D02*
X3900000Y308680D01*
G01X3825000Y349450D02*
X3816000Y355290D01*
X3811500Y362110D01*
X3810000Y369900D01*
X3813000Y379630D01*
X3820500Y386450D01*
X3829500Y388400D01*
X3838500Y387420D01*
X3846000Y383530D01*
X3861000Y364060D01*
X3871500Y355290D01*
X3886500Y349450D01*
X3900000Y347500D01*
Y388400D01*
G01X3882000Y425270D02*
X3892500Y431110D01*
X3898500Y438900D01*
X3900000Y447660D01*
X3898500Y455450D01*
X3891000Y463240D01*
X3882000Y468110D01*
X3873000Y469080D01*
X3862500Y467140D01*
X3855000Y460320D01*
X3852000Y453510D01*
Y444740D01*
G01Y453510D02*
X3847500Y459350D01*
X3840000Y464220D01*
X3831000Y466160D01*
X3822000Y464220D01*
X3814500Y459350D01*
X3810000Y450580D01*
X3811500Y441820D01*
X3817500Y433060D01*
G01X4030000Y269740D02*
X3940000D01*
Y294080D01*
X3944500Y301870D01*
X3950500Y306740D01*
X3962500Y308680D01*
X3974500Y306740D01*
X3982000Y300890D01*
X3986500Y294080D01*
Y269740D01*
G01Y294080D02*
X4030000Y308680D01*
G01X3955000Y349450D02*
X3946000Y355290D01*
X3941500Y362110D01*
X3940000Y369900D01*
X3943000Y379630D01*
X3950500Y386450D01*
X3959500Y388400D01*
X3968500Y387420D01*
X3976000Y383530D01*
X3991000Y364060D01*
X4001500Y355290D01*
X4016500Y349450D01*
X4030000Y347500D01*
Y388400D01*
G01X3940000Y446690D02*
X3943000Y438900D01*
X3950500Y433060D01*
X3959500Y429160D01*
X3971500Y426240D01*
X3985000Y425270D01*
X3998500Y426240D01*
X4010500Y429160D01*
X4019500Y433060D01*
X4027000Y438900D01*
X4030000Y446690D01*
X4027000Y454480D01*
X4019500Y460320D01*
X4010500Y464220D01*
X3998500Y467140D01*
X3985000Y468110D01*
X3971500Y467140D01*
X3959500Y464220D01*
X3950500Y460320D01*
X3943000Y454480D01*
X3940000Y446690D01*
G01X4160000Y269740D02*
X4070000D01*
Y294080D01*
X4074500Y301870D01*
X4080500Y306740D01*
X4092500Y308680D01*
X4104500Y306740D01*
X4112000Y300890D01*
X4116500Y294080D01*
Y269740D01*
G01Y294080D02*
X4160000Y308680D01*
G01X4085000Y349450D02*
X4076000Y355290D01*
X4071500Y362110D01*
X4070000Y369900D01*
X4073000Y379630D01*
X4080500Y386450D01*
X4089500Y388400D01*
X4098500Y387420D01*
X4106000Y383530D01*
X4121000Y364060D01*
X4131500Y355290D01*
X4146500Y349450D01*
X4160000Y347500D01*
Y388400D01*
G01Y446690D02*
X4158500Y453510D01*
X4154000Y461290D01*
X4146500Y466160D01*
X4136000Y468110D01*
X4125500Y466160D01*
X4116500Y460320D01*
X4112000Y451560D01*
Y441820D01*
X4109000Y435980D01*
X4101500Y431110D01*
X4091000Y429160D01*
X4080500Y432090D01*
X4073000Y438900D01*
X4070000Y446690D01*
X4073000Y454480D01*
X4080500Y461290D01*
X4091000Y464220D01*
X4101500Y462270D01*
X4109000Y457400D01*
X4112000Y451560D01*
Y441820D01*
X4116500Y433060D01*
X4125500Y427220D01*
X4136000Y425270D01*
X4146500Y427220D01*
X4154000Y432090D01*
X4158500Y439870D01*
X4160000Y446690D01*
G01X3865030Y1419600D02*
X3859190Y1424100D01*
X3852370Y1427100D01*
X3844580D01*
X3835820Y1422600D01*
X3829010Y1415100D01*
X3824140Y1406100D01*
X3820240Y1391100D01*
X3819270Y1377600D01*
X3821220Y1364100D01*
X3824140Y1355100D01*
X3829980Y1346100D01*
X3836790Y1340100D01*
X3843610Y1337100D01*
X3850430D01*
X3857240Y1340100D01*
X3863080Y1344600D01*
X3867950Y1350600D01*
G01X3900930Y1355100D02*
X3906770Y1344600D01*
X3914560Y1338600D01*
X3923320Y1337100D01*
X3931110Y1338600D01*
X3938900Y1346100D01*
X3943770Y1355100D01*
X3944740Y1364100D01*
X3942800Y1374600D01*
X3935980Y1382100D01*
X3929170Y1385100D01*
X3920400D01*
G01X3929170D02*
X3935010Y1389600D01*
X3939880Y1397100D01*
X3941820Y1406100D01*
X3939880Y1415100D01*
X3935010Y1422600D01*
X3926240Y1427100D01*
X3917480Y1425600D01*
X3908720Y1419600D01*
G01X3984540Y1347600D02*
X3991350Y1340100D01*
X3999140Y1337100D01*
X4006930Y1340100D01*
X4013750Y1349100D01*
X4018620Y1362600D01*
X4020560Y1376100D01*
Y1392600D01*
X4018620Y1406100D01*
X4013750Y1418100D01*
X4007910Y1424100D01*
X4001090Y1427100D01*
X3993300Y1424100D01*
X3987460Y1418100D01*
X3983560Y1409100D01*
X3981620Y1397100D01*
X3983560Y1386600D01*
X3988430Y1376100D01*
X3994270Y1370100D01*
X4001090Y1368600D01*
X4008880Y1371600D01*
X4014720Y1379100D01*
X4020560Y1392600D01*
G01X3900000Y1739740D02*
X3810000D01*
Y1764080D01*
X3814500Y1771870D01*
X3820500Y1776740D01*
X3832500Y1778680D01*
X3844500Y1776740D01*
X3852000Y1770890D01*
X3856500Y1764080D01*
Y1739740D01*
G01Y1764080D02*
X3900000Y1778680D01*
G01Y1837950D02*
X3810000D01*
X3828000Y1826270D01*
G01X3900000D02*
Y1849630D01*
G01Y1916690D02*
X3898500Y1923510D01*
X3894000Y1931290D01*
X3886500Y1936160D01*
X3876000Y1938110D01*
X3865500Y1936160D01*
X3856500Y1930320D01*
X3852000Y1921560D01*
Y1911820D01*
X3849000Y1905980D01*
X3841500Y1901110D01*
X3831000Y1899160D01*
X3820500Y1902090D01*
X3813000Y1908900D01*
X3810000Y1916690D01*
X3813000Y1924480D01*
X3820500Y1931290D01*
X3831000Y1934220D01*
X3841500Y1932270D01*
X3849000Y1927400D01*
X3852000Y1921560D01*
Y1911820D01*
X3856500Y1903060D01*
X3865500Y1897220D01*
X3876000Y1895270D01*
X3886500Y1897220D01*
X3894000Y1902090D01*
X3898500Y1909870D01*
X3900000Y1916690D01*
G01X4020000Y1739740D02*
X3930000D01*
Y1764080D01*
X3934500Y1771870D01*
X3940500Y1776740D01*
X3952500Y1778680D01*
X3964500Y1776740D01*
X3972000Y1770890D01*
X3976500Y1764080D01*
Y1739740D01*
G01Y1764080D02*
X4020000Y1778680D01*
G01Y1837950D02*
X3930000D01*
X3948000Y1826270D01*
G01X4020000D02*
Y1849630D01*
G01Y1928370D02*
X3930000D01*
X3994500Y1892350D01*
Y1941030D01*
G01X4140000Y1739740D02*
X4050000D01*
Y1764080D01*
X4054500Y1771870D01*
X4060500Y1776740D01*
X4072500Y1778680D01*
X4084500Y1776740D01*
X4092000Y1770890D01*
X4096500Y1764080D01*
Y1739740D01*
G01Y1764080D02*
X4140000Y1778680D01*
G01X4065000Y1819450D02*
X4056000Y1825290D01*
X4051500Y1832110D01*
X4050000Y1839900D01*
X4053000Y1849630D01*
X4060500Y1856450D01*
X4069500Y1858400D01*
X4078500Y1857420D01*
X4086000Y1853530D01*
X4101000Y1834060D01*
X4111500Y1825290D01*
X4126500Y1819450D01*
X4140000Y1817500D01*
Y1858400D01*
G01Y1914740D02*
X4120500Y1916690D01*
X4104000Y1919610D01*
X4089000Y1923510D01*
X4072500Y1928370D01*
X4050000Y1936160D01*
Y1897220D01*
G01X3865030Y2899600D02*
X3859190Y2904100D01*
X3852370Y2907100D01*
X3844580D01*
X3835820Y2902600D01*
X3829010Y2895100D01*
X3824140Y2886100D01*
X3820240Y2871100D01*
X3819270Y2857600D01*
X3821220Y2844100D01*
X3824140Y2835100D01*
X3829980Y2826100D01*
X3836790Y2820100D01*
X3843610Y2817100D01*
X3850430D01*
X3857240Y2820100D01*
X3863080Y2824600D01*
X3867950Y2830600D01*
G01X3903850Y2892100D02*
X3909690Y2901100D01*
X3916510Y2905600D01*
X3924300Y2907100D01*
X3934030Y2904100D01*
X3940850Y2896600D01*
X3942800Y2887600D01*
X3941820Y2878600D01*
X3937930Y2871100D01*
X3918460Y2856100D01*
X3909690Y2845600D01*
X3903850Y2830600D01*
X3901900Y2817100D01*
X3942800D01*
G01X4012770D02*
Y2907100D01*
X3976750Y2842600D01*
X4025430D01*
G01X4050000Y3219740D02*
X3960000D01*
Y3244080D01*
X3964500Y3251870D01*
X3970500Y3256740D01*
X3982500Y3258680D01*
X3994500Y3256740D01*
X4002000Y3250890D01*
X4006500Y3244080D01*
Y3219740D01*
G01Y3244080D02*
X4050000Y3258680D01*
G01Y3317950D02*
X4048500Y3324770D01*
X4044000Y3332550D01*
X4036500Y3337420D01*
X4026000Y3339370D01*
X4015500Y3337420D01*
X4006500Y3331580D01*
X4002000Y3322820D01*
Y3313080D01*
X3999000Y3307240D01*
X3991500Y3302370D01*
X3981000Y3300420D01*
X3970500Y3303350D01*
X3963000Y3310160D01*
X3960000Y3317950D01*
X3963000Y3325740D01*
X3970500Y3332550D01*
X3981000Y3335480D01*
X3991500Y3333530D01*
X3999000Y3328660D01*
X4002000Y3322820D01*
Y3313080D01*
X4006500Y3304320D01*
X4015500Y3298480D01*
X4026000Y3296530D01*
X4036500Y3298480D01*
X4044000Y3303350D01*
X4048500Y3311130D01*
X4050000Y3317950D01*
G01X3920000Y3219740D02*
X3830000D01*
Y3244080D01*
X3834500Y3251870D01*
X3840500Y3256740D01*
X3852500Y3258680D01*
X3864500Y3256740D01*
X3872000Y3250890D01*
X3876500Y3244080D01*
Y3219740D01*
G01Y3244080D02*
X3920000Y3258680D01*
G01Y3317950D02*
X3830000D01*
X3848000Y3306270D01*
G01X3920000D02*
Y3329630D01*
G01X3845000Y3378190D02*
X3836000Y3384030D01*
X3831500Y3390850D01*
X3830000Y3398640D01*
X3833000Y3408370D01*
X3840500Y3415190D01*
X3849500Y3417140D01*
X3858500Y3416160D01*
X3866000Y3412270D01*
X3881000Y3392800D01*
X3891500Y3384030D01*
X3906500Y3378190D01*
X3920000Y3376240D01*
Y3417140D01*
G01X4180000Y3219740D02*
X4090000D01*
Y3244080D01*
X4094500Y3251870D01*
X4100500Y3256740D01*
X4112500Y3258680D01*
X4124500Y3256740D01*
X4132000Y3250890D01*
X4136500Y3244080D01*
Y3219740D01*
G01Y3244080D02*
X4180000Y3258680D01*
G01X4105000Y3299450D02*
X4096000Y3305290D01*
X4091500Y3312110D01*
X4090000Y3319900D01*
X4093000Y3329630D01*
X4100500Y3336450D01*
X4109500Y3338400D01*
X4118500Y3337420D01*
X4126000Y3333530D01*
X4141000Y3314060D01*
X4151500Y3305290D01*
X4166500Y3299450D01*
X4180000Y3297500D01*
Y3338400D01*
G01X4142500Y3378190D02*
X4132000Y3385010D01*
X4126000Y3390850D01*
X4123000Y3398640D01*
X4126000Y3405450D01*
X4132000Y3410320D01*
X4141000Y3414220D01*
X4151500Y3415190D01*
X4160500Y3414220D01*
X4169500Y3410320D01*
X4177000Y3404480D01*
X4180000Y3397660D01*
X4177000Y3389870D01*
X4168000Y3383060D01*
X4154500Y3379160D01*
X4139500Y3378190D01*
X4120000Y3380140D01*
X4109500Y3383060D01*
X4099000Y3387930D01*
X4091500Y3394740D01*
X4090000Y3401560D01*
X4093000Y3408370D01*
X4100500Y3413240D01*
G01X3885030Y4359600D02*
X3879190Y4364100D01*
X3872370Y4367100D01*
X3864580D01*
X3855820Y4362600D01*
X3849010Y4355100D01*
X3844140Y4346100D01*
X3840240Y4331100D01*
X3839270Y4317600D01*
X3841220Y4304100D01*
X3844140Y4295100D01*
X3849980Y4286100D01*
X3856790Y4280100D01*
X3863610Y4277100D01*
X3870430D01*
X3877240Y4280100D01*
X3883080Y4284600D01*
X3887950Y4290600D01*
G01X3942350Y4277100D02*
Y4367100D01*
X3930670Y4349100D01*
G01Y4277100D02*
X3954030D01*
G01X4019140D02*
X4021090Y4296600D01*
X4024010Y4313100D01*
X4027910Y4328100D01*
X4032770Y4344600D01*
X4040560Y4367100D01*
X4001620D01*
G01X3920000Y4709740D02*
X3830000D01*
Y4734080D01*
X3834500Y4741870D01*
X3840500Y4746740D01*
X3852500Y4748680D01*
X3864500Y4746740D01*
X3872000Y4740890D01*
X3876500Y4734080D01*
Y4709740D01*
G01Y4734080D02*
X3920000Y4748680D01*
G01X3882500Y4789450D02*
X3872000Y4796270D01*
X3866000Y4802110D01*
X3863000Y4809900D01*
X3866000Y4816710D01*
X3872000Y4821580D01*
X3881000Y4825480D01*
X3891500Y4826450D01*
X3900500Y4825480D01*
X3909500Y4821580D01*
X3917000Y4815740D01*
X3920000Y4808920D01*
X3917000Y4801130D01*
X3908000Y4794320D01*
X3894500Y4790420D01*
X3879500Y4789450D01*
X3860000Y4791400D01*
X3849500Y4794320D01*
X3839000Y4799190D01*
X3831500Y4806000D01*
X3830000Y4812820D01*
X3833000Y4819630D01*
X3840500Y4824500D01*
G01X4050000Y4709740D02*
X3960000D01*
Y4734080D01*
X3964500Y4741870D01*
X3970500Y4746740D01*
X3982500Y4748680D01*
X3994500Y4746740D01*
X4002000Y4740890D01*
X4006500Y4734080D01*
Y4709740D01*
G01Y4734080D02*
X4050000Y4748680D01*
G01X3975000Y4789450D02*
X3966000Y4795290D01*
X3961500Y4802110D01*
X3960000Y4809900D01*
X3963000Y4819630D01*
X3970500Y4826450D01*
X3979500Y4828400D01*
X3988500Y4827420D01*
X3996000Y4823530D01*
X4011000Y4804060D01*
X4021500Y4795290D01*
X4036500Y4789450D01*
X4050000Y4787500D01*
Y4828400D01*
G01X4180000Y4709740D02*
X4090000D01*
Y4734080D01*
X4094500Y4741870D01*
X4100500Y4746740D01*
X4112500Y4748680D01*
X4124500Y4746740D01*
X4132000Y4740890D01*
X4136500Y4734080D01*
Y4709740D01*
G01Y4734080D02*
X4180000Y4748680D01*
G01X4105000Y4789450D02*
X4096000Y4795290D01*
X4091500Y4802110D01*
X4090000Y4809900D01*
X4093000Y4819630D01*
X4100500Y4826450D01*
X4109500Y4828400D01*
X4118500Y4827420D01*
X4126000Y4823530D01*
X4141000Y4804060D01*
X4151500Y4795290D01*
X4166500Y4789450D01*
X4180000Y4787500D01*
Y4828400D01*
G01X4166500Y4865270D02*
X4174000Y4871110D01*
X4178500Y4877930D01*
X4180000Y4886690D01*
X4177000Y4895450D01*
X4171000Y4902270D01*
X4160500Y4907140D01*
X4148500Y4908110D01*
X4136500Y4906160D01*
X4129000Y4901290D01*
X4123000Y4894480D01*
X4121500Y4887660D01*
X4123000Y4880850D01*
X4129000Y4872090D01*
X4090000Y4875010D01*
Y4901290D01*
G01X3885030Y5849600D02*
X3879190Y5854100D01*
X3872370Y5857100D01*
X3864580D01*
X3855820Y5852600D01*
X3849010Y5845100D01*
X3844140Y5836100D01*
X3840240Y5821100D01*
X3839270Y5807600D01*
X3841220Y5794100D01*
X3844140Y5785100D01*
X3849980Y5776100D01*
X3856790Y5770100D01*
X3863610Y5767100D01*
X3870430D01*
X3877240Y5770100D01*
X3883080Y5774600D01*
X3887950Y5780600D01*
G01X3920930D02*
X3926770Y5773100D01*
X3933590Y5768600D01*
X3942350Y5767100D01*
X3951110Y5770100D01*
X3957930Y5776100D01*
X3962800Y5786600D01*
X3963770Y5798600D01*
X3961820Y5810600D01*
X3956950Y5818100D01*
X3950140Y5824100D01*
X3943320Y5825600D01*
X3936510Y5824100D01*
X3927750Y5818100D01*
X3930670Y5857100D01*
X3956950D01*
G01X4585030Y1419600D02*
X4579190Y1424100D01*
X4572370Y1427100D01*
X4564580D01*
X4555820Y1422600D01*
X4549010Y1415100D01*
X4544140Y1406100D01*
X4540240Y1391100D01*
X4539270Y1377600D01*
X4541220Y1364100D01*
X4544140Y1355100D01*
X4549980Y1346100D01*
X4556790Y1340100D01*
X4563610Y1337100D01*
X4570430D01*
X4577240Y1340100D01*
X4583080Y1344600D01*
X4587950Y1350600D01*
G01X4654030Y1337100D02*
Y1427100D01*
X4618010Y1362600D01*
X4666690D01*
G01X4721090Y1427100D02*
X4713300Y1424100D01*
X4707460Y1416600D01*
X4703560Y1407600D01*
X4700640Y1395600D01*
X4699670Y1382100D01*
X4700640Y1368600D01*
X4703560Y1356600D01*
X4707460Y1347600D01*
X4713300Y1340100D01*
X4721090Y1337100D01*
X4728880Y1340100D01*
X4734720Y1347600D01*
X4738620Y1356600D01*
X4741540Y1368600D01*
X4742510Y1382100D01*
X4741540Y1395600D01*
X4738620Y1407600D01*
X4734720Y1416600D01*
X4728880Y1424100D01*
X4721090Y1427100D01*
G01X4585030Y2899600D02*
X4579190Y2904100D01*
X4572370Y2907100D01*
X4564580D01*
X4555820Y2902600D01*
X4549010Y2895100D01*
X4544140Y2886100D01*
X4540240Y2871100D01*
X4539270Y2857600D01*
X4541220Y2844100D01*
X4544140Y2835100D01*
X4549980Y2826100D01*
X4556790Y2820100D01*
X4563610Y2817100D01*
X4570430D01*
X4577240Y2820100D01*
X4583080Y2824600D01*
X4587950Y2830600D01*
G01X4623850Y2892100D02*
X4629690Y2901100D01*
X4636510Y2905600D01*
X4644300Y2907100D01*
X4654030Y2904100D01*
X4660850Y2896600D01*
X4662800Y2887600D01*
X4661820Y2878600D01*
X4657930Y2871100D01*
X4638460Y2856100D01*
X4629690Y2845600D01*
X4623850Y2830600D01*
X4621900Y2817100D01*
X4662800D01*
G01X4699670Y2830600D02*
X4705510Y2823100D01*
X4712330Y2818600D01*
X4721090Y2817100D01*
X4729850Y2820100D01*
X4736670Y2826100D01*
X4741540Y2836600D01*
X4742510Y2848600D01*
X4740560Y2860600D01*
X4735690Y2868100D01*
X4728880Y2874100D01*
X4722060Y2875600D01*
X4715250Y2874100D01*
X4706490Y2868100D01*
X4709410Y2907100D01*
X4735690D01*
G01X4605030Y4359600D02*
X4599190Y4364100D01*
X4592370Y4367100D01*
X4584580D01*
X4575820Y4362600D01*
X4569010Y4355100D01*
X4564140Y4346100D01*
X4560240Y4331100D01*
X4559270Y4317600D01*
X4561220Y4304100D01*
X4564140Y4295100D01*
X4569980Y4286100D01*
X4576790Y4280100D01*
X4583610Y4277100D01*
X4590430D01*
X4597240Y4280100D01*
X4603080Y4284600D01*
X4607950Y4290600D01*
G01X4662350Y4277100D02*
Y4367100D01*
X4650670Y4349100D01*
G01Y4277100D02*
X4674030D01*
G01X4722590Y4314600D02*
X4729410Y4325100D01*
X4735250Y4331100D01*
X4743040Y4334100D01*
X4749850Y4331100D01*
X4754720Y4325100D01*
X4758620Y4316100D01*
X4759590Y4305600D01*
X4758620Y4296600D01*
X4754720Y4287600D01*
X4748880Y4280100D01*
X4742060Y4277100D01*
X4734270Y4280100D01*
X4727460Y4289100D01*
X4723560Y4302600D01*
X4722590Y4317600D01*
X4724540Y4337100D01*
X4727460Y4347600D01*
X4732330Y4358100D01*
X4739140Y4365600D01*
X4745960Y4367100D01*
X4752770Y4364100D01*
X4757640Y4356600D01*
G01X4605030Y5849600D02*
X4599190Y5854100D01*
X4592370Y5857100D01*
X4584580D01*
X4575820Y5852600D01*
X4569010Y5845100D01*
X4564140Y5836100D01*
X4560240Y5821100D01*
X4559270Y5807600D01*
X4561220Y5794100D01*
X4564140Y5785100D01*
X4569980Y5776100D01*
X4576790Y5770100D01*
X4583610Y5767100D01*
X4590430D01*
X4597240Y5770100D01*
X4603080Y5774600D01*
X4607950Y5780600D01*
G01X4643850Y5804600D02*
X4650670Y5815100D01*
X4656510Y5821100D01*
X4664300Y5824100D01*
X4671110Y5821100D01*
X4675980Y5815100D01*
X4679880Y5806100D01*
X4680850Y5795600D01*
X4679880Y5786600D01*
X4675980Y5777600D01*
X4670140Y5770100D01*
X4663320Y5767100D01*
X4655530Y5770100D01*
X4648720Y5779100D01*
X4644820Y5792600D01*
X4643850Y5807600D01*
X4645800Y5827100D01*
X4648720Y5837600D01*
X4653590Y5848100D01*
X4660400Y5855600D01*
X4667220Y5857100D01*
X4674030Y5854100D01*
X4678900Y5846600D01*
G01X5277500Y370630D02*
X5273000Y364790D01*
X5270000Y357970D01*
Y350180D01*
X5274500Y341420D01*
X5282000Y334610D01*
X5291000Y329740D01*
X5306000Y325840D01*
X5319500Y324870D01*
X5333000Y326820D01*
X5342000Y329740D01*
X5351000Y335580D01*
X5357000Y342390D01*
X5360000Y349210D01*
Y356030D01*
X5357000Y362840D01*
X5352500Y368680D01*
X5346500Y373550D01*
G01X5360000Y439630D02*
X5270000D01*
X5334500Y403610D01*
Y452290D01*
G01X5360000Y506690D02*
X5270000D01*
X5288000Y495010D01*
G01X5360000D02*
Y518370D01*
G01X5277500Y1850630D02*
X5273000Y1844790D01*
X5270000Y1837970D01*
Y1830180D01*
X5274500Y1821420D01*
X5282000Y1814610D01*
X5291000Y1809740D01*
X5306000Y1805840D01*
X5319500Y1804870D01*
X5333000Y1806820D01*
X5342000Y1809740D01*
X5351000Y1815580D01*
X5357000Y1822390D01*
X5360000Y1829210D01*
Y1836030D01*
X5357000Y1842840D01*
X5352500Y1848680D01*
X5346500Y1853550D01*
G01X5285000Y1889450D02*
X5276000Y1895290D01*
X5271500Y1902110D01*
X5270000Y1909900D01*
X5273000Y1919630D01*
X5280500Y1926450D01*
X5289500Y1928400D01*
X5298500Y1927420D01*
X5306000Y1923530D01*
X5321000Y1904060D01*
X5331500Y1895290D01*
X5346500Y1889450D01*
X5360000Y1887500D01*
Y1928400D01*
G01X5322500Y1968190D02*
X5312000Y1975010D01*
X5306000Y1980850D01*
X5303000Y1988640D01*
X5306000Y1995450D01*
X5312000Y2000320D01*
X5321000Y2004220D01*
X5331500Y2005190D01*
X5340500Y2004220D01*
X5349500Y2000320D01*
X5357000Y1994480D01*
X5360000Y1987660D01*
X5357000Y1979870D01*
X5348000Y1973060D01*
X5334500Y1969160D01*
X5319500Y1968190D01*
X5300000Y1970140D01*
X5289500Y1973060D01*
X5279000Y1977930D01*
X5271500Y1984740D01*
X5270000Y1991560D01*
X5273000Y1998370D01*
X5280500Y2003240D01*
G01X5279100Y3729230D02*
X5274600Y3723390D01*
X5271600Y3716570D01*
Y3708780D01*
X5276100Y3700020D01*
X5283600Y3693210D01*
X5292600Y3688340D01*
X5307600Y3684440D01*
X5321100Y3683470D01*
X5334600Y3685420D01*
X5343600Y3688340D01*
X5352600Y3694180D01*
X5358600Y3700990D01*
X5361600Y3707810D01*
Y3714630D01*
X5358600Y3721440D01*
X5354100Y3727280D01*
X5348100Y3732150D01*
G01X5361600Y3786550D02*
X5271600D01*
X5289600Y3774870D01*
G01X5361600D02*
Y3798230D01*
G01X5351100Y3848740D02*
X5358600Y3855550D01*
X5361600Y3863340D01*
X5358600Y3871130D01*
X5349600Y3877950D01*
X5336100Y3882820D01*
X5322600Y3884760D01*
X5306100D01*
X5292600Y3882820D01*
X5280600Y3877950D01*
X5274600Y3872110D01*
X5271600Y3865290D01*
X5274600Y3857500D01*
X5280600Y3851660D01*
X5289600Y3847760D01*
X5301600Y3845820D01*
X5312100Y3847760D01*
X5322600Y3852630D01*
X5328600Y3858470D01*
X5330100Y3865290D01*
X5327100Y3873080D01*
X5319600Y3878920D01*
X5306100Y3884760D01*
G01X5129210Y4380000D02*
Y4290000D01*
G01X5106820Y4380000D02*
X5151600D01*
G01X5188480Y4290000D02*
Y4380000D01*
X5211840D01*
X5219630Y4375500D01*
X5225480Y4365000D01*
X5227420Y4353000D01*
X5225480Y4341000D01*
X5220610Y4332000D01*
X5211840Y4327500D01*
X5188480D01*
G01X5268190Y4365000D02*
X5274030Y4374000D01*
X5280850Y4378500D01*
X5288640Y4380000D01*
X5298370Y4377000D01*
X5305190Y4369500D01*
X5307140Y4360500D01*
X5306160Y4351500D01*
X5302270Y4344000D01*
X5282800Y4329000D01*
X5274030Y4318500D01*
X5268190Y4303500D01*
X5266240Y4290000D01*
X5307140D01*
G01X5289100Y5299230D02*
X5284600Y5293390D01*
X5281600Y5286570D01*
Y5278780D01*
X5286100Y5270020D01*
X5293600Y5263210D01*
X5302600Y5258340D01*
X5317600Y5254440D01*
X5331100Y5253470D01*
X5344600Y5255420D01*
X5353600Y5258340D01*
X5362600Y5264180D01*
X5368600Y5270990D01*
X5371600Y5277810D01*
Y5284630D01*
X5368600Y5291440D01*
X5364100Y5297280D01*
X5358100Y5302150D01*
G01X5371600Y5356550D02*
X5370100Y5363370D01*
X5365600Y5371150D01*
X5358100Y5376020D01*
X5347600Y5377970D01*
X5337100Y5376020D01*
X5328100Y5370180D01*
X5323600Y5361420D01*
Y5351680D01*
X5320600Y5345840D01*
X5313100Y5340970D01*
X5302600Y5339020D01*
X5292100Y5341950D01*
X5284600Y5348760D01*
X5281600Y5356550D01*
X5284600Y5364340D01*
X5292100Y5371150D01*
X5302600Y5374080D01*
X5313100Y5372130D01*
X5320600Y5367260D01*
X5323600Y5361420D01*
Y5351680D01*
X5328100Y5342920D01*
X5337100Y5337080D01*
X5347600Y5335130D01*
X5358100Y5337080D01*
X5365600Y5341950D01*
X5370100Y5349730D01*
X5371600Y5356550D01*
G01X5129210Y5870000D02*
Y5780000D01*
G01X5106820Y5870000D02*
X5151600D01*
G01X5188480Y5780000D02*
Y5870000D01*
X5211840D01*
X5219630Y5865500D01*
X5225480Y5855000D01*
X5227420Y5843000D01*
X5225480Y5831000D01*
X5220610Y5822000D01*
X5211840Y5817500D01*
X5188480D01*
G01X5286690Y5780000D02*
Y5870000D01*
X5275010Y5852000D01*
G01Y5780000D02*
X5298370D01*
G01X5457500Y370630D02*
X5453000Y364790D01*
X5450000Y357970D01*
Y350180D01*
X5454500Y341420D01*
X5462000Y334610D01*
X5471000Y329740D01*
X5486000Y325840D01*
X5499500Y324870D01*
X5513000Y326820D01*
X5522000Y329740D01*
X5531000Y335580D01*
X5537000Y342390D01*
X5540000Y349210D01*
Y356030D01*
X5537000Y362840D01*
X5532500Y368680D01*
X5526500Y373550D01*
G01X5540000Y439630D02*
X5450000D01*
X5514500Y403610D01*
Y452290D01*
G01X5465000Y488190D02*
X5456000Y494030D01*
X5451500Y500850D01*
X5450000Y508640D01*
X5453000Y518370D01*
X5460500Y525190D01*
X5469500Y527140D01*
X5478500Y526160D01*
X5486000Y522270D01*
X5501000Y502800D01*
X5511500Y494030D01*
X5526500Y488190D01*
X5540000Y486240D01*
Y527140D01*
G01X5629210Y800000D02*
Y710000D01*
G01X5606820Y800000D02*
X5651600D01*
G01X5688480Y710000D02*
Y800000D01*
X5711840D01*
X5719630Y795500D01*
X5725480Y785000D01*
X5727420Y773000D01*
X5725480Y761000D01*
X5720610Y752000D01*
X5711840Y747500D01*
X5688480D01*
G01X5768190D02*
X5775010Y758000D01*
X5780850Y764000D01*
X5788640Y767000D01*
X5795450Y764000D01*
X5800320Y758000D01*
X5804220Y749000D01*
X5805190Y738500D01*
X5804220Y729500D01*
X5800320Y720500D01*
X5794480Y713000D01*
X5787660Y710000D01*
X5779870Y713000D01*
X5773060Y722000D01*
X5769160Y735500D01*
X5768190Y750500D01*
X5770140Y770000D01*
X5773060Y780500D01*
X5777930Y791000D01*
X5784740Y798500D01*
X5791560Y800000D01*
X5798370Y797000D01*
X5803240Y789500D01*
G01X5599740Y1468000D02*
X5604610Y1459000D01*
X5610450Y1453000D01*
X5617260Y1450000D01*
X5625050Y1453000D01*
X5630890Y1459000D01*
X5636740Y1468000D01*
X5638680Y1480000D01*
Y1540000D01*
G01X5676530Y1463500D02*
X5682370Y1456000D01*
X5689190Y1451500D01*
X5697950Y1450000D01*
X5706710Y1453000D01*
X5713530Y1459000D01*
X5718400Y1469500D01*
X5719370Y1481500D01*
X5717420Y1493500D01*
X5712550Y1501000D01*
X5705740Y1507000D01*
X5698920Y1508500D01*
X5692110Y1507000D01*
X5683350Y1501000D01*
X5686270Y1540000D01*
X5712550D01*
G01X5447500Y1850630D02*
X5443000Y1844790D01*
X5440000Y1837970D01*
Y1830180D01*
X5444500Y1821420D01*
X5452000Y1814610D01*
X5461000Y1809740D01*
X5476000Y1805840D01*
X5489500Y1804870D01*
X5503000Y1806820D01*
X5512000Y1809740D01*
X5521000Y1815580D01*
X5527000Y1822390D01*
X5530000Y1829210D01*
Y1836030D01*
X5527000Y1842840D01*
X5522500Y1848680D01*
X5516500Y1853550D01*
G01X5455000Y1889450D02*
X5446000Y1895290D01*
X5441500Y1902110D01*
X5440000Y1909900D01*
X5443000Y1919630D01*
X5450500Y1926450D01*
X5459500Y1928400D01*
X5468500Y1927420D01*
X5476000Y1923530D01*
X5491000Y1904060D01*
X5501500Y1895290D01*
X5516500Y1889450D01*
X5530000Y1887500D01*
Y1928400D01*
G01Y1984740D02*
X5510500Y1986690D01*
X5494000Y1989610D01*
X5479000Y1993510D01*
X5462500Y1998370D01*
X5440000Y2006160D01*
Y1967220D01*
G01X5609210Y2300000D02*
Y2210000D01*
G01X5586820Y2300000D02*
X5631600D01*
G01X5668480Y2210000D02*
Y2300000D01*
X5691840D01*
X5699630Y2295500D01*
X5705480Y2285000D01*
X5707420Y2273000D01*
X5705480Y2261000D01*
X5700610Y2252000D01*
X5691840Y2247500D01*
X5668480D01*
G01X5778370Y2210000D02*
Y2300000D01*
X5742350Y2235500D01*
X5791030D01*
G01X5599740Y2948000D02*
X5604610Y2939000D01*
X5610450Y2933000D01*
X5617260Y2930000D01*
X5625050Y2933000D01*
X5630890Y2939000D01*
X5636740Y2948000D01*
X5638680Y2960000D01*
Y3020000D01*
G01X5709630Y2930000D02*
Y3020000D01*
X5673610Y2955500D01*
X5722290D01*
G01X5459100Y3729230D02*
X5454600Y3723390D01*
X5451600Y3716570D01*
Y3708780D01*
X5456100Y3700020D01*
X5463600Y3693210D01*
X5472600Y3688340D01*
X5487600Y3684440D01*
X5501100Y3683470D01*
X5514600Y3685420D01*
X5523600Y3688340D01*
X5532600Y3694180D01*
X5538600Y3700990D01*
X5541600Y3707810D01*
Y3714630D01*
X5538600Y3721440D01*
X5534100Y3727280D01*
X5528100Y3732150D01*
G01X5541600Y3786550D02*
X5451600D01*
X5469600Y3774870D01*
G01X5541600D02*
Y3798230D01*
G01Y3865290D02*
X5540100Y3872110D01*
X5535600Y3879890D01*
X5528100Y3884760D01*
X5517600Y3886710D01*
X5507100Y3884760D01*
X5498100Y3878920D01*
X5493600Y3870160D01*
Y3860420D01*
X5490600Y3854580D01*
X5483100Y3849710D01*
X5472600Y3847760D01*
X5462100Y3850690D01*
X5454600Y3857500D01*
X5451600Y3865290D01*
X5454600Y3873080D01*
X5462100Y3879890D01*
X5472600Y3882820D01*
X5483100Y3880870D01*
X5490600Y3876000D01*
X5493600Y3870160D01*
Y3860420D01*
X5498100Y3851660D01*
X5507100Y3845820D01*
X5517600Y3843870D01*
X5528100Y3845820D01*
X5535600Y3850690D01*
X5540100Y3858470D01*
X5541600Y3865290D01*
G01X5619740Y4408000D02*
X5624610Y4399000D01*
X5630450Y4393000D01*
X5637260Y4390000D01*
X5645050Y4393000D01*
X5650890Y4399000D01*
X5656740Y4408000D01*
X5658680Y4420000D01*
Y4480000D01*
G01X5696530Y4408000D02*
X5702370Y4397500D01*
X5710160Y4391500D01*
X5718920Y4390000D01*
X5726710Y4391500D01*
X5734500Y4399000D01*
X5739370Y4408000D01*
X5740340Y4417000D01*
X5738400Y4427500D01*
X5731580Y4435000D01*
X5724770Y4438000D01*
X5716000D01*
G01X5724770D02*
X5730610Y4442500D01*
X5735480Y4450000D01*
X5737420Y4459000D01*
X5735480Y4468000D01*
X5730610Y4475500D01*
X5721840Y4480000D01*
X5713080Y4478500D01*
X5704320Y4472500D01*
G01X5469100Y5299230D02*
X5464600Y5293390D01*
X5461600Y5286570D01*
Y5278780D01*
X5466100Y5270020D01*
X5473600Y5263210D01*
X5482600Y5258340D01*
X5497600Y5254440D01*
X5511100Y5253470D01*
X5524600Y5255420D01*
X5533600Y5258340D01*
X5542600Y5264180D01*
X5548600Y5270990D01*
X5551600Y5277810D01*
Y5284630D01*
X5548600Y5291440D01*
X5544100Y5297280D01*
X5538100Y5302150D01*
G01X5551600Y5354600D02*
X5532100Y5356550D01*
X5515600Y5359470D01*
X5500600Y5363370D01*
X5484100Y5368230D01*
X5461600Y5376020D01*
Y5337080D01*
G01X5619740Y5898000D02*
X5624610Y5889000D01*
X5630450Y5883000D01*
X5637260Y5880000D01*
X5645050Y5883000D01*
X5650890Y5889000D01*
X5656740Y5898000D01*
X5658680Y5910000D01*
Y5970000D01*
G01X5699450Y5955000D02*
X5705290Y5964000D01*
X5712110Y5968500D01*
X5719900Y5970000D01*
X5729630Y5967000D01*
X5736450Y5959500D01*
X5738400Y5950500D01*
X5737420Y5941500D01*
X5733530Y5934000D01*
X5714060Y5919000D01*
X5705290Y5908500D01*
X5699450Y5893500D01*
X5697500Y5880000D01*
X5738400D01*
G01X5473890Y6460000D02*
Y6550000D01*
X5499210Y6475000D01*
X5524530Y6550000D01*
Y6460000D01*
G01X5558480D02*
Y6550000D01*
X5581840D01*
X5589630Y6545500D01*
X5595480Y6535000D01*
X5597420Y6523000D01*
X5595480Y6511000D01*
X5590610Y6502000D01*
X5581840Y6497500D01*
X5558480D01*
G01X5656690Y6460000D02*
Y6550000D01*
X5645010Y6532000D01*
G01Y6460000D02*
X5668370D01*
G01X6163890Y40000D02*
Y130000D01*
X6189210Y55000D01*
X6214530Y130000D01*
Y40000D01*
G01X6247500D02*
Y130000D01*
G01X6288400D02*
Y40000D01*
G01Y85000D02*
X6247500D01*
G01X6328190Y115000D02*
X6334030Y124000D01*
X6340850Y128500D01*
X6348640Y130000D01*
X6358370Y127000D01*
X6365190Y119500D01*
X6367140Y110500D01*
X6366160Y101500D01*
X6362270Y94000D01*
X6342800Y79000D01*
X6334030Y68500D01*
X6328190Y53500D01*
X6326240Y40000D01*
X6367140D01*
G01X6163890Y6460000D02*
Y6550000D01*
X6189210Y6475000D01*
X6214530Y6550000D01*
Y6460000D01*
G01X6247500D02*
Y6550000D01*
G01X6288400D02*
Y6460000D01*
G01Y6505000D02*
X6247500D01*
G01X6325270Y6478000D02*
X6331110Y6467500D01*
X6338900Y6461500D01*
X6347660Y6460000D01*
X6355450Y6461500D01*
X6363240Y6469000D01*
X6368110Y6478000D01*
X6369080Y6487000D01*
X6367140Y6497500D01*
X6360320Y6505000D01*
X6353510Y6508000D01*
X6344740D01*
G01X6353510D02*
X6359350Y6512500D01*
X6364220Y6520000D01*
X6366160Y6529000D01*
X6364220Y6538000D01*
X6359350Y6545500D01*
X6350580Y6550000D01*
X6341820Y6548500D01*
X6333060Y6542500D01*
M02*
